M48
; DRILL file {KiCad 9.0.8-9.0.8~ubuntu24.04.1} date 2026-04-15T10:55:06+0200
; FORMAT={-:-/ absolute / metric / decimal}
; #@! TF.CreationDate,2026-04-15T10:55:06+02:00
; #@! TF.GenerationSoftware,Kicad,Pcbnew,9.0.8-9.0.8~ubuntu24.04.1
; #@! TF.FileFunction,Plated,1,2,PTH
FMAT,2
METRIC
; #@! TA.AperFunction,Plated,PTH,ViaDrill
T1C0.300
; #@! TA.AperFunction,Plated,PTH,ComponentDrill
T2C0.450
; #@! TA.AperFunction,Plated,PTH,ComponentDrill
T3C0.500
; #@! TA.AperFunction,Plated,PTH,ComponentDrill
T4C0.800
; #@! TA.AperFunction,Plated,PTH,ComponentDrill
T5C3.200
%
G90
G05
T1
X52.65Y-48.9
X52.65Y-50.4
X52.65Y-51.9
X52.65Y-53.4
X52.65Y-54.9
X52.65Y-56.4
X52.65Y-57.9
X52.65Y-59.4
X52.65Y-60.9
X52.65Y-62.4
X52.65Y-63.9
X52.65Y-65.4
X52.65Y-66.9
X52.65Y-68.4
X52.65Y-69.9
X52.65Y-71.4
X52.65Y-72.9
X52.65Y-74.4
X52.65Y-75.9
X52.65Y-77.4
X52.65Y-78.9
X52.65Y-80.4
X52.65Y-81.9
X52.65Y-83.4
X52.65Y-84.9
X52.65Y-86.4
X52.65Y-87.9
X52.65Y-89.4
X52.65Y-90.9
X52.65Y-92.4
X52.65Y-93.9
X52.65Y-95.4
X52.65Y-96.9
X52.65Y-98.4
X52.65Y-99.9
X52.65Y-101.4
X52.65Y-102.9
X52.65Y-104.4
X52.65Y-105.9
X52.65Y-107.4
X52.65Y-108.9
X52.65Y-110.4
X52.65Y-111.9
X52.65Y-113.4
X52.65Y-114.9
X52.65Y-116.4
X54.15Y-48.9
X54.15Y-50.4
X54.15Y-51.9
X54.15Y-53.4
X54.15Y-54.9
X54.15Y-56.4
X54.15Y-57.9
X54.15Y-59.4
X54.15Y-60.9
X54.15Y-62.4
X54.15Y-63.9
X54.15Y-65.4
X54.15Y-66.9
X54.15Y-68.4
X54.15Y-69.9
X54.15Y-71.4
X54.15Y-72.9
X54.15Y-74.4
X54.15Y-75.9
X54.15Y-77.4
X54.15Y-78.9
X54.15Y-80.4
X54.15Y-81.9
X54.15Y-83.4
X54.15Y-84.9
X54.15Y-86.4
X54.15Y-87.9
X54.15Y-89.4
X54.15Y-90.9
X54.15Y-92.4
X54.15Y-93.9
X54.15Y-95.4
X54.15Y-96.9
X54.15Y-98.4
X54.15Y-99.9
X54.15Y-101.4
X54.15Y-102.9
X54.15Y-104.4
X54.15Y-105.9
X54.15Y-107.4
X54.15Y-108.9
X54.15Y-110.4
X54.15Y-111.9
X54.15Y-113.4
X54.15Y-114.9
X54.15Y-116.4
X55.65Y-59.4
X55.65Y-60.9
X55.65Y-62.4
X55.65Y-81.9
X55.65Y-83.4
X55.65Y-113.4
X55.65Y-114.9
X55.65Y-116.4
X57.15Y-44.4
X57.15Y-45.9
X57.15Y-59.4
X57.15Y-60.9
X57.15Y-62.4
X57.15Y-81.9
X57.15Y-83.4
X57.15Y-113.4
X57.15Y-114.9
X57.15Y-116.4
X58.65Y-44.4
X58.65Y-45.9
X58.65Y-59.4
X58.65Y-60.9
X58.65Y-62.4
X58.65Y-81.9
X58.65Y-83.4
X58.65Y-113.4
X58.65Y-114.9
X58.65Y-116.4
X60.15Y-44.4
X60.15Y-45.9
X60.15Y-59.4
X60.15Y-60.9
X60.15Y-62.4
X60.15Y-81.9
X60.15Y-83.4
X60.15Y-113.4
X60.15Y-114.9
X60.15Y-116.4
X61.65Y-44.4
X61.65Y-45.9
X61.65Y-59.4
X61.65Y-60.9
X61.65Y-62.4
X61.65Y-81.9
X61.65Y-83.4
X61.65Y-113.4
X61.65Y-114.9
X61.65Y-116.4
X63.15Y-44.4
X63.15Y-45.9
X63.15Y-59.4
X63.15Y-60.9
X63.15Y-62.4
X63.15Y-81.9
X63.15Y-83.4
X63.15Y-113.4
X63.15Y-114.9
X63.15Y-116.4
X64.65Y-44.4
X64.65Y-45.9
X64.65Y-59.4
X64.65Y-60.9
X64.65Y-62.4
X64.65Y-81.9
X64.65Y-83.4
X64.65Y-113.4
X64.65Y-114.9
X64.65Y-116.4
X66.15Y-44.4
X66.15Y-45.9
X66.15Y-59.4
X66.15Y-60.9
X66.15Y-62.4
X66.15Y-81.9
X66.15Y-83.4
X66.15Y-113.4
X66.15Y-114.9
X66.15Y-116.4
X67.65Y-44.4
X67.65Y-45.9
X67.65Y-59.4
X67.65Y-60.9
X67.65Y-62.4
X67.65Y-81.9
X67.65Y-83.4
X67.65Y-113.4
X67.65Y-114.9
X67.65Y-116.4
X69.15Y-44.4
X69.15Y-45.9
X69.15Y-59.4
X69.15Y-60.9
X69.15Y-62.4
X69.15Y-81.9
X69.15Y-83.4
X69.15Y-113.4
X69.15Y-114.9
X69.15Y-116.4
X70.65Y-44.4
X70.65Y-45.9
X70.65Y-59.4
X70.65Y-60.9
X70.65Y-62.4
X70.65Y-81.9
X70.65Y-83.4
X70.65Y-113.4
X70.65Y-114.9
X70.65Y-116.4
X72.15Y-44.4
X72.15Y-45.9
X72.15Y-59.4
X72.15Y-60.9
X72.15Y-62.4
X72.15Y-81.9
X72.15Y-83.4
X72.15Y-113.4
X72.15Y-114.9
X72.15Y-116.4
X73.65Y-44.4
X73.65Y-45.9
X73.65Y-59.4
X73.65Y-60.9
X73.65Y-62.4
X73.65Y-81.9
X73.65Y-83.4
X73.65Y-113.4
X73.65Y-114.9
X73.65Y-116.4
X75.15Y-44.4
X75.15Y-45.9
X75.15Y-59.4
X75.15Y-60.9
X75.15Y-62.4
X75.15Y-81.9
X75.15Y-83.4
X75.15Y-113.4
X75.15Y-114.9
X75.15Y-116.4
X76.65Y-44.4
X76.65Y-45.9
X76.65Y-59.4
X76.65Y-60.9
X76.65Y-62.4
X76.65Y-81.9
X76.65Y-83.4
X76.65Y-113.4
X76.65Y-114.9
X76.65Y-116.4
X78.15Y-44.4
X78.15Y-45.9
X78.15Y-59.4
X78.15Y-60.9
X78.15Y-62.4
X78.15Y-63.8
X78.15Y-65.2
X78.15Y-66.7
X78.15Y-68.2
X78.15Y-69.9
X78.15Y-81.9
X78.15Y-83.4
X78.15Y-113.4
X78.15Y-114.9
X78.15Y-116.4
X78.2Y-57.575
X79.5Y-56.425
X79.6Y-71.4
X79.65Y-44.4
X79.65Y-45.9
X79.65Y-81.9
X79.65Y-83.4
X79.65Y-113.4
X79.65Y-114.9
X79.65Y-116.4
X80.8Y-72.6
X80.85Y-55.075
X80.85Y-66.925
X80.85Y-68.45
X81.15Y-44.4
X81.15Y-45.9
X81.15Y-59.4
X81.15Y-60.9
X81.15Y-62.4
X81.15Y-63.825
X81.15Y-65.4
X81.15Y-81.9
X81.15Y-83.4
X81.15Y-113.4
X81.15Y-114.9
X81.15Y-116.4
X82.275Y-53.775
X82.65Y-44.4
X82.65Y-45.9
X82.65Y-57.675
X82.65Y-59.4
X82.65Y-60.9
X82.65Y-62.4
X82.65Y-63.825
X82.65Y-65.4
X82.65Y-81.9
X82.65Y-83.4
X82.65Y-113.4
X82.65Y-114.9
X82.65Y-116.4
X82.7Y-74.5
X83.7Y-56.125
X83.875Y-52.325
X84.1Y-57.6
X84.15Y-44.4
X84.15Y-45.9
X84.15Y-59.4
X84.15Y-62.4
X84.15Y-63.825
X84.15Y-65.4
X84.15Y-81.9
X84.15Y-83.4
X84.15Y-113.4
X84.15Y-114.9
X84.15Y-116.4
X84.2Y-60.85
X84.6Y-76.4
X84.9Y-72.6
X85.1Y-51.1
X85.4Y-58.675
X85.425Y-53.95
X85.425Y-55.6
X85.45Y-57.025
X85.45Y-62.4
X85.45Y-63.825
X85.45Y-65.4
X85.475Y-60.425
X85.65Y-44.4
X85.65Y-45.9
X85.65Y-81.9
X85.65Y-83.4
X85.65Y-113.4
X85.65Y-114.9
X85.65Y-116.4
X86.3Y-78.1
X86.45Y-74.45
X86.775Y-53.85
X86.775Y-55.5
X87.1Y-47.2
X87.1Y-48.45
X87.1Y-49.775
X87.1Y-51.1
X87.15Y-44.4
X87.15Y-45.9
X87.15Y-81.9
X87.15Y-83.4
X87.15Y-113.4
X87.15Y-114.9
X87.15Y-116.4
X87.7Y-58.675
X87.725Y-67.0
X87.75Y-62.4
X87.75Y-63.825
X87.75Y-65.4
X87.775Y-60.425
X87.95Y-53.85
X88.02Y-75.95
X88.2Y-80.0
X88.4Y-72.6
X88.65Y-44.4
X88.65Y-45.9
X88.65Y-81.9
X88.65Y-83.4
X88.65Y-113.4
X88.65Y-114.9
X88.65Y-116.4
X88.7Y-47.2
X89.8Y-74.0
X89.82Y-72.6
X89.84Y-77.84
X90.15Y-44.4
X90.15Y-45.9
X90.15Y-81.9
X90.15Y-83.4
X90.15Y-113.4
X90.15Y-114.9
X90.15Y-116.4
X90.3Y-47.2
X91.36Y-72.6
X91.51Y-75.71
X91.625Y-83.4
X91.63Y-79.63
X91.65Y-44.4
X91.65Y-45.9
X91.65Y-114.9
X91.65Y-116.4
X91.7Y-113.4
X92.45Y-71.51
X92.71Y-66.825
X93.04Y-81.04
X93.125Y-84.5
X93.15Y-44.4
X93.15Y-45.9
X93.15Y-85.9
X93.15Y-87.4
X93.15Y-89.25
X93.15Y-90.775
X93.15Y-92.275
X93.15Y-94.125
X93.15Y-95.625
X93.15Y-108.3
X93.15Y-109.8
X93.15Y-111.65
X93.15Y-113.15
X93.15Y-114.9
X93.15Y-116.4
X93.18Y-77.38
X94.1Y-48.8
X94.35Y-82.35
X94.55Y-78.75
X94.65Y-44.4
X94.65Y-45.9
X94.65Y-56.375
X94.65Y-57.825
X94.65Y-59.4
X94.65Y-60.9
X94.65Y-62.4
X94.65Y-85.9
X94.65Y-87.4
X94.65Y-89.25
X94.65Y-90.775
X94.65Y-92.275
X94.65Y-94.125
X94.65Y-95.625
X94.65Y-108.3
X94.65Y-109.8
X94.65Y-111.65
X94.65Y-113.15
X94.65Y-114.9
X94.65Y-116.4
X94.7Y-51.25
X94.7Y-71.51
X95.66Y-83.66
X95.7Y-53.8
X95.77Y-48.8
X95.95Y-80.15
X96.1Y-87.4
X96.15Y-44.4
X96.15Y-45.9
X96.15Y-56.375
X96.15Y-57.775
X96.15Y-59.4
X96.15Y-60.9
X96.15Y-62.4
X96.15Y-114.9
X96.15Y-116.4
X96.15Y-117.9
X96.15Y-119.4
X96.15Y-120.9
X96.15Y-122.4
X96.15Y-123.9
X96.15Y-125.4
X96.15Y-126.9
X96.15Y-128.4
X96.15Y-129.9
X96.15Y-131.4
X96.15Y-132.9
X96.15Y-134.4
X96.15Y-135.9
X96.15Y-137.4
X96.15Y-138.9
X96.15Y-140.4
X96.15Y-141.9
X96.15Y-143.4
X96.15Y-144.9
X96.15Y-146.4
X96.15Y-147.9
X96.15Y-149.4
X96.15Y-150.9
X96.15Y-152.4
X96.15Y-153.9
X96.15Y-155.4
X96.21Y-113.15
X96.24Y-111.65
X96.71Y-71.56
X96.8Y-95.625
X96.975Y-51.25
X97.2Y-88.5
X97.23Y-85.23
X97.65Y-44.4
X97.65Y-45.9
X97.65Y-57.775
X97.65Y-59.4
X97.65Y-60.9
X97.65Y-62.4
X97.65Y-66.825
X97.65Y-81.725
X97.65Y-114.9
X97.65Y-116.4
X97.65Y-117.9
X97.65Y-119.4
X97.65Y-120.9
X97.65Y-122.4
X97.65Y-123.9
X97.65Y-125.4
X97.65Y-126.9
X97.65Y-128.4
X97.65Y-129.9
X97.65Y-131.4
X97.65Y-132.9
X97.65Y-134.4
X97.65Y-135.9
X97.65Y-137.4
X97.65Y-138.9
X97.65Y-140.4
X97.65Y-141.9
X97.65Y-143.4
X97.65Y-144.9
X97.65Y-146.4
X97.65Y-147.9
X97.65Y-149.4
X97.65Y-150.9
X97.65Y-152.4
X97.65Y-153.9
X97.65Y-155.4
X97.66Y-64.69
X97.67Y-113.15
X97.7Y-111.65
X98.3Y-89.6
X98.31Y-48.8
X98.375Y-83.025
X98.44Y-71.4
X98.44Y-72.9
X98.44Y-74.4
X98.44Y-75.875
X98.44Y-77.375
X98.44Y-78.875
X98.44Y-80.225
X98.475Y-53.8
X98.5Y-55.2
X98.57Y-86.57
X99.03Y-95.625
X99.1Y-111.65
X99.15Y-44.4
X99.15Y-45.9
X99.15Y-114.9
X99.15Y-116.4
X99.15Y-117.9
X99.15Y-119.4
X99.15Y-120.9
X99.15Y-122.4
X99.15Y-123.9
X99.15Y-125.4
X99.15Y-126.9
X99.15Y-128.4
X99.15Y-129.9
X99.15Y-131.4
X99.15Y-132.9
X99.15Y-134.4
X99.15Y-135.9
X99.15Y-137.4
X99.15Y-138.9
X99.15Y-140.4
X99.15Y-141.9
X99.15Y-143.4
X99.15Y-144.9
X99.15Y-146.4
X99.15Y-147.9
X99.15Y-149.4
X99.15Y-150.9
X99.15Y-152.4
X99.15Y-153.9
X99.15Y-155.4
X99.16Y-113.15
X99.225Y-51.25
X99.7Y-91.0
X99.95Y-82.825
X99.975Y-58.425
X100.0Y-56.3
X100.025Y-84.675
X100.07Y-88.07
X100.4Y-48.8
X100.42Y-97.49
X100.65Y-44.4
X100.65Y-45.9
X100.65Y-134.4
X100.65Y-135.9
X100.65Y-137.4
X100.65Y-138.9
X100.65Y-140.4
X100.65Y-141.9
X100.65Y-143.4
X100.65Y-144.9
X100.65Y-146.4
X100.65Y-147.9
X100.65Y-149.4
X100.65Y-150.9
X100.65Y-152.4
X100.65Y-153.9
X100.65Y-155.4
X100.82Y-95.625
X101.025Y-51.25
X101.05Y-52.65
X101.2Y-92.5
X101.4Y-57.7
X101.475Y-59.4
X101.475Y-60.9
X101.475Y-62.4
X101.475Y-63.9
X101.475Y-65.4
X101.475Y-66.9
X101.475Y-71.4
X101.475Y-72.9
X101.475Y-74.4
X101.475Y-75.9
X101.475Y-77.4
X101.475Y-78.9
X101.475Y-80.4
X101.475Y-81.9
X101.475Y-89.4
X101.525Y-86.15
X102.15Y-44.4
X102.15Y-45.9
X102.15Y-112.92
X102.15Y-114.9
X102.15Y-116.4
X102.15Y-117.9
X102.15Y-119.4
X102.15Y-120.9
X102.15Y-122.4
X102.15Y-123.9
X102.15Y-125.4
X102.15Y-126.9
X102.15Y-128.4
X102.15Y-129.9
X102.15Y-131.4
X102.15Y-135.9
X102.15Y-137.4
X102.15Y-138.9
X102.15Y-140.4
X102.15Y-141.9
X102.15Y-143.4
X102.15Y-144.9
X102.15Y-146.4
X102.15Y-147.9
X102.15Y-149.4
X102.15Y-150.9
X102.15Y-152.4
X102.15Y-153.9
X102.15Y-155.4
X102.19Y-95.625
X102.19Y-98.24
X102.7Y-48.8
X102.85Y-87.5
X102.875Y-51.325
X102.875Y-52.825
X102.875Y-54.325
X102.9Y-94.2
X102.975Y-59.4
X102.975Y-60.9
X102.975Y-62.4
X102.975Y-63.9
X102.975Y-65.4
X102.975Y-66.9
X102.975Y-71.4
X102.975Y-72.9
X102.975Y-74.4
X102.975Y-75.9
X102.975Y-77.4
X102.975Y-78.9
X102.975Y-80.4
X102.975Y-81.9
X102.975Y-83.4
X102.975Y-90.9
X103.57Y-132.97
X103.65Y-44.4
X103.65Y-45.9
X103.65Y-114.9
X103.65Y-116.4
X103.65Y-117.9
X103.65Y-119.4
X103.65Y-120.9
X103.65Y-122.4
X103.65Y-123.9
X103.65Y-125.4
X103.65Y-137.4
X103.65Y-138.9
X103.65Y-140.4
X103.65Y-141.9
X103.65Y-143.4
X103.65Y-144.9
X103.65Y-146.4
X103.65Y-147.9
X103.65Y-149.4
X103.65Y-150.9
X103.65Y-152.4
X103.65Y-153.9
X103.65Y-155.4
X103.69Y-126.9
X103.69Y-128.4
X103.69Y-129.9
X103.69Y-131.4
X103.7Y-112.92
X104.325Y-58.525
X104.425Y-52.875
X104.425Y-54.375
X104.425Y-55.875
X105.0Y-49.2
X105.13Y-133.15
X105.14Y-126.9
X105.14Y-128.4
X105.14Y-129.9
X105.14Y-131.4
X105.15Y-44.4
X105.15Y-45.9
X105.15Y-114.9
X105.15Y-116.4
X105.15Y-117.9
X105.15Y-119.4
X105.15Y-120.9
X105.15Y-122.4
X105.15Y-123.9
X105.15Y-125.4
X105.15Y-137.4
X105.15Y-138.9
X105.15Y-140.4
X105.15Y-141.9
X105.15Y-143.4
X105.15Y-144.9
X105.15Y-146.4
X105.15Y-147.9
X105.15Y-149.4
X105.15Y-150.9
X105.15Y-152.4
X105.15Y-153.9
X105.15Y-155.4
X105.16Y-134.6
X105.22Y-112.92
X105.575Y-93.65
X105.6Y-96.9
X105.625Y-90.3
X105.65Y-54.4
X105.65Y-55.9
X105.65Y-57.4
X105.65Y-59.4
X105.65Y-60.9
X105.65Y-62.4
X105.65Y-63.9
X105.65Y-65.4
X105.65Y-66.9
X105.65Y-71.4
X105.65Y-72.9
X105.65Y-74.4
X105.65Y-75.9
X105.65Y-77.4
X105.65Y-78.9
X105.65Y-80.4
X105.65Y-81.9
X105.65Y-83.4
X105.65Y-84.9
X105.65Y-86.4
X106.0Y-50.2
X106.65Y-44.4
X106.65Y-45.9
X106.65Y-152.4
X106.65Y-153.9
X106.65Y-155.4
X106.9Y-58.6
X106.97Y-47.23
X107.1Y-51.4
X108.0Y-52.5
X108.025Y-54.4
X108.025Y-55.9
X108.025Y-57.4
X108.025Y-59.4
X108.025Y-60.9
X108.025Y-62.4
X108.025Y-63.9
X108.025Y-69.625
X108.025Y-71.4
X108.025Y-72.9
X108.025Y-74.4
X108.025Y-75.9
X108.025Y-77.4
X108.025Y-78.9
X108.025Y-80.4
X108.025Y-81.9
X108.025Y-83.4
X108.025Y-84.9
X108.025Y-86.4
X108.1Y-99.4
X108.15Y-44.4
X108.15Y-45.9
X108.15Y-153.9
X108.15Y-155.4
X108.17Y-48.48
X108.475Y-115.425
X108.475Y-116.925
X108.475Y-118.425
X108.475Y-119.925
X108.475Y-121.425
X108.475Y-122.925
X108.475Y-124.425
X108.475Y-125.925
X108.475Y-127.425
X108.475Y-128.925
X108.475Y-130.425
X108.475Y-131.925
X108.475Y-133.425
X108.475Y-134.925
X108.475Y-136.425
X108.475Y-137.925
X109.0Y-141.8
X109.0Y-143.3
X109.0Y-144.8
X109.0Y-146.3
X109.0Y-147.8
X109.0Y-149.3
X109.21Y-49.4
X109.65Y-44.4
X109.65Y-45.9
X109.65Y-155.4
X109.7Y-101.0
X109.925Y-94.475
X109.925Y-97.975
X109.95Y-138.875
X110.05Y-89.4
X110.05Y-90.9
X110.2Y-50.46
X110.2Y-52.52
X110.2Y-54.57
X110.2Y-55.94
X110.2Y-57.57
X110.2Y-59.4
X110.2Y-60.9
X110.2Y-62.4
X110.2Y-68.4
X110.2Y-69.9
X110.2Y-71.4
X110.2Y-72.9
X110.2Y-74.4
X110.2Y-75.9
X110.2Y-77.4
X110.2Y-78.9
X110.2Y-80.4
X110.2Y-81.9
X110.2Y-83.4
X110.2Y-84.9
X110.2Y-86.4
X110.2Y-150.5
X110.4Y-143.5
X110.55Y-102.55
X110.55Y-104.05
X110.55Y-105.55
X110.55Y-107.05
X110.55Y-108.55
X110.55Y-110.05
X110.55Y-111.55
X110.55Y-114.425
X110.55Y-117.55
X110.55Y-119.05
X110.55Y-120.5
X110.55Y-122.3
X110.55Y-124.4
X110.55Y-125.9
X110.55Y-127.5
X110.55Y-129.0
X110.55Y-130.5
X110.55Y-132.1
X110.55Y-133.6
X110.55Y-135.1
X110.84Y-66.88
X110.975Y-95.525
X111.15Y-44.4
X111.15Y-45.9
X111.175Y-92.15
X111.3Y-59.4
X111.3Y-60.9
X111.3Y-62.4
X111.3Y-87.5
X111.35Y-99.3
X111.4Y-151.7
X111.515Y-142.615
X111.6Y-136.2
X111.8Y-118.8
X111.825Y-140.75
X111.9Y-144.5
X112.15Y-126.76
X112.225Y-96.775
X112.275Y-93.425
X112.3Y-88.5
X112.38Y-128.89
X112.4Y-68.44
X112.6Y-137.2
X112.6Y-152.9
X112.65Y-44.4
X112.65Y-45.9
X112.65Y-59.4
X112.65Y-60.9
X112.65Y-62.4
X112.775Y-100.675
X112.775Y-102.175
X112.775Y-103.675
X112.775Y-105.175
X112.775Y-106.675
X112.9Y-119.9
X113.3Y-108.475
X113.5Y-89.7
X113.5Y-94.65
X113.575Y-98.125
X113.69Y-126.76
X113.7Y-154.0
X113.8Y-144.5
X113.9Y-138.5
X113.92Y-128.89
X114.0Y-141.375
X114.03Y-70.07
X114.1Y-121.1
X114.15Y-44.4
X114.15Y-45.9
X114.15Y-59.4
X114.15Y-60.9
X114.15Y-62.4
X114.55Y-119.69
X114.65Y-94.125
X114.65Y-95.625
X114.675Y-109.85
X114.68Y-117.22
X114.7Y-90.9
X114.8Y-99.35
X115.14Y-126.76
X115.37Y-128.89
X115.375Y-100.675
X115.375Y-102.175
X115.375Y-103.675
X115.375Y-105.175
X115.375Y-106.675
X115.375Y-114.175
X115.4Y-154.0
X115.58Y-71.62
X115.6Y-121.6
X115.6Y-138.5
X115.64Y-66.94
X115.65Y-44.4
X115.65Y-45.9
X115.65Y-59.4
X115.65Y-60.9
X115.65Y-62.4
X115.8Y-92.0
X115.8Y-144.5
X116.5Y-122.5
X116.9Y-93.1
X116.9Y-154.0
X117.05Y-141.375
X117.15Y-44.4
X117.15Y-45.9
X117.15Y-59.4
X117.15Y-60.9
X117.15Y-62.4
X117.2Y-94.5
X117.2Y-95.9
X117.3Y-97.5
X117.4Y-131.0
X117.4Y-133.1
X117.4Y-135.0
X117.4Y-136.7
X117.4Y-138.5
X117.44Y-71.62
X117.5Y-123.7
X117.5Y-125.3
X117.5Y-127.1
X117.5Y-129.0
X117.7Y-112.875
X117.7Y-144.5
X117.775Y-109.875
X117.9Y-99.3
X117.9Y-100.8
X117.9Y-102.3
X117.9Y-103.8
X117.9Y-105.3
X118.6Y-66.475
X118.6Y-67.975
X118.6Y-85.15
X118.6Y-86.65
X118.6Y-88.65
X118.6Y-90.15
X118.6Y-91.65
X118.6Y-93.15
X118.6Y-94.375
X118.6Y-95.875
X118.6Y-145.4
X118.6Y-147.2
X118.6Y-148.8
X118.6Y-150.8
X118.6Y-152.6
X118.6Y-154.0
X118.65Y-44.4
X118.65Y-45.9
X118.65Y-59.4
X118.65Y-60.9
X119.99Y-71.68
X120.15Y-44.4
X120.15Y-45.9
X120.15Y-59.4
X120.15Y-62.4
X120.275Y-88.65
X120.275Y-90.15
X120.275Y-91.65
X120.275Y-93.15
X120.275Y-94.375
X120.275Y-95.875
X120.32Y-85.17
X120.32Y-86.72
X121.07Y-66.47
X121.14Y-67.81
X121.49Y-60.98
X121.65Y-44.4
X121.65Y-45.9
X121.775Y-85.15
X121.775Y-86.7
X121.775Y-88.65
X121.775Y-90.15
X121.775Y-91.65
X121.775Y-93.15
X121.775Y-94.375
X121.775Y-95.875
X123.13Y-59.66
X123.15Y-44.4
X123.15Y-45.9
X123.15Y-62.4
X123.275Y-66.5
X123.275Y-68.0
X123.275Y-85.15
X123.275Y-86.7
X123.275Y-88.65
X123.69Y-71.75
X124.65Y-44.4
X124.65Y-45.9
X124.65Y-59.62
X124.65Y-62.4
X124.775Y-66.5
X124.775Y-68.0
X124.775Y-85.15
X124.775Y-86.7
X124.775Y-88.65
X125.73Y-71.75
X126.15Y-44.4
X126.15Y-45.9
X126.15Y-59.62
X126.15Y-62.4
X126.275Y-66.5
X126.275Y-68.0
X126.275Y-85.15
X126.275Y-86.7
X126.275Y-88.65
X127.65Y-44.4
X127.65Y-45.9
X127.65Y-59.62
X127.65Y-62.4
X127.775Y-66.5
X127.775Y-68.0
X127.775Y-85.15
X127.775Y-86.7
X127.775Y-88.65
X128.25Y-71.75
X129.15Y-44.4
X129.15Y-45.9
X129.15Y-59.62
X129.15Y-62.4
X129.275Y-66.5
X129.275Y-68.0
X129.275Y-85.15
X129.275Y-86.7
X129.275Y-88.65
X130.37Y-71.75
X130.65Y-44.4
X130.65Y-45.9
X130.65Y-59.62
X130.65Y-62.4
X130.775Y-85.15
X130.775Y-86.7
X130.775Y-88.65
X131.92Y-70.38
X132.15Y-44.4
X132.15Y-45.9
X132.15Y-59.62
X132.15Y-62.4
X132.275Y-85.15
X132.275Y-86.7
X132.275Y-88.65
X133.19Y-71.65
X133.65Y-44.4
X133.65Y-45.9
X133.65Y-59.62
X133.775Y-85.15
X133.775Y-86.7
X133.775Y-88.65
X134.05Y-68.25
X134.38Y-72.84
X135.15Y-44.4
X135.15Y-45.9
X135.15Y-59.62
X135.275Y-66.5
X135.275Y-68.0
X135.275Y-85.15
X135.275Y-86.7
X135.275Y-88.65
X135.34Y-69.54
X135.64Y-74.1
X136.19Y-57.3
X136.525Y-66.5
X136.525Y-68.0
X136.59Y-69.54
X136.64Y-70.84
X136.65Y-44.4
X136.65Y-45.9
X136.775Y-85.15
X136.775Y-86.7
X136.775Y-88.65
X137.04Y-75.5
X137.95Y-72.15
X138.125Y-64.05
X138.125Y-65.55
X138.15Y-44.4
X138.15Y-45.9
X138.15Y-62.4
X138.275Y-85.15
X138.275Y-86.7
X138.275Y-88.65
X138.89Y-77.35
X139.38Y-73.58
X139.65Y-44.4
X139.65Y-45.9
X139.65Y-62.4
X139.69Y-59.76
X139.775Y-85.15
X139.775Y-86.7
X139.775Y-88.65
X140.12Y-51.96
X140.12Y-55.19
X140.39Y-78.85
X141.0Y-57.3
X141.04Y-75.24
X141.15Y-44.4
X141.15Y-45.9
X141.15Y-62.4
X141.24Y-50.53
X141.275Y-85.15
X141.275Y-86.7
X141.275Y-88.65
X141.47Y-59.68
X141.65Y-80.11
X142.41Y-76.61
X142.52Y-155.46
X142.65Y-44.4
X142.65Y-45.9
X142.65Y-62.4
X142.775Y-85.15
X142.775Y-86.7
X142.775Y-88.65
X142.94Y-49.27
X143.04Y-57.3
X143.05Y-59.66
X143.22Y-81.68
X143.87Y-78.07
X143.94Y-155.52
X144.15Y-44.4
X144.15Y-45.9
X144.15Y-62.4
X144.275Y-88.65
X144.44Y-86.77
X144.45Y-85.17
X144.87Y-59.37
X144.9Y-83.36
X145.15Y-49.27
X145.31Y-79.51
X145.325Y-89.675
X145.325Y-91.175
X145.325Y-92.4
X145.325Y-93.9
X145.325Y-95.4
X145.58Y-85.8
X145.58Y-87.91
X145.65Y-44.4
X145.65Y-45.9
X145.65Y-62.4
X145.995Y-58.275
X146.78Y-90.92
X146.825Y-92.4
X146.825Y-93.9
X146.825Y-95.4
X146.83Y-88.88
X146.87Y-81.07
X146.98Y-86.58
X147.12Y-57.15
X147.15Y-44.4
X147.15Y-45.9
X147.15Y-60.9
X147.15Y-62.4
X147.275Y-85.15
X147.52Y-52.96
X147.63Y-49.27
X148.27Y-56.0
X148.37Y-90.04
X148.4Y-86.6
X148.4Y-129.9
X148.4Y-131.4
X148.4Y-134.025
X148.405Y-143.02
X148.425Y-123.55
X148.425Y-126.025
X148.425Y-128.45
X148.425Y-141.9
X148.425Y-144.9
X148.425Y-146.4
X148.425Y-147.9
X148.45Y-92.4
X148.45Y-93.9
X148.45Y-95.4
X148.45Y-96.9
X148.45Y-98.4
X148.45Y-99.9
X148.45Y-101.4
X148.45Y-102.9
X148.45Y-104.4
X148.45Y-121.05
X148.465Y-139.315
X148.475Y-88.0
X148.475Y-136.225
X148.5Y-108.9
X148.5Y-110.4
X148.5Y-111.9
X148.5Y-113.4
X148.5Y-114.9
X148.5Y-116.4
X148.5Y-117.9
X148.54Y-51.8
X148.65Y-44.4
X148.65Y-45.9
X148.65Y-59.4
X148.65Y-60.9
X148.65Y-62.4
X148.65Y-63.9
X148.65Y-65.4
X148.65Y-66.9
X148.65Y-68.4
X148.65Y-69.9
X148.65Y-71.4
X148.65Y-72.9
X148.65Y-74.4
X148.65Y-75.9
X148.65Y-77.4
X148.65Y-78.9
X148.65Y-80.4
X148.65Y-81.9
X149.295Y-54.975
X149.87Y-133.68
X149.9Y-128.5
X149.975Y-136.225
X150.125Y-119.825
X150.13Y-143.02
X150.15Y-44.4
X150.15Y-45.9
X150.15Y-57.825
X150.15Y-59.4
X150.15Y-60.9
X150.15Y-62.4
X150.15Y-63.9
X150.15Y-65.4
X150.15Y-66.9
X150.15Y-68.4
X150.15Y-69.9
X150.15Y-71.4
X150.15Y-72.9
X150.15Y-74.4
X150.15Y-75.9
X150.15Y-77.4
X150.15Y-78.9
X150.15Y-80.4
X150.15Y-81.9
X150.15Y-83.4
X150.15Y-107.4
X150.15Y-108.9
X150.15Y-110.4
X150.15Y-111.9
X150.15Y-113.4
X150.15Y-114.9
X150.15Y-116.4
X150.15Y-122.775
X150.15Y-125.625
X150.15Y-141.9
X150.15Y-144.9
X150.15Y-146.4
X150.15Y-147.9
X150.24Y-50.17
X150.24Y-139.29
X150.47Y-53.8
X150.525Y-92.4
X150.525Y-93.9
X150.525Y-95.4
X150.55Y-86.4
X150.55Y-96.9
X150.55Y-98.425
X150.55Y-99.95
X150.57Y-90.04
X150.575Y-87.95
X150.575Y-101.425
X150.575Y-102.925
X150.575Y-104.325
X151.37Y-133.68
X151.4Y-128.375
X151.45Y-48.96
X151.475Y-136.225
X151.625Y-118.325
X151.625Y-121.325
X151.63Y-143.02
X151.65Y-44.4
X151.65Y-45.9
X151.65Y-141.9
X151.65Y-144.9
X151.65Y-155.4
X151.74Y-139.29
X151.85Y-56.125
X151.86Y-52.41
X151.9Y-57.525
X151.925Y-59.4
X151.925Y-60.9
X151.925Y-62.4
X152.13Y-131.07
X152.8Y-126.1
X152.85Y-116.975
X152.85Y-127.225
X152.87Y-133.68
X152.875Y-128.325
X152.975Y-136.225
X153.125Y-119.825
X153.13Y-143.02
X153.15Y-44.4
X153.15Y-45.9
X153.15Y-122.75
X153.15Y-141.9
X153.15Y-144.9
X153.15Y-155.4
X153.24Y-139.29
X153.35Y-54.775
X153.35Y-56.125
X153.45Y-57.675
X153.45Y-66.025
X153.45Y-67.525
X153.45Y-69.025
X153.45Y-70.525
X153.45Y-72.025
X153.45Y-73.525
X153.45Y-75.025
X153.45Y-76.525
X153.45Y-78.025
X153.45Y-79.525
X153.45Y-81.025
X153.45Y-82.525
X153.45Y-84.025
X153.45Y-85.525
X153.45Y-87.025
X153.45Y-88.525
X153.45Y-91.525
X153.45Y-93.025
X153.45Y-94.525
X153.45Y-96.025
X153.45Y-97.525
X153.45Y-99.025
X153.45Y-100.525
X153.45Y-102.025
X153.45Y-103.525
X153.45Y-105.025
X153.45Y-106.525
X153.45Y-108.025
X153.45Y-109.525
X153.45Y-111.025
X153.45Y-112.525
X153.45Y-114.025
X153.45Y-115.525
X153.47Y-90.04
X153.475Y-59.4
X153.475Y-60.9
X153.475Y-64.8
X153.61Y-51.6
X153.86Y-48.83
X154.31Y-126.03
X154.35Y-124.575
X154.575Y-118.375
X154.625Y-121.325
X154.63Y-143.02
X154.65Y-44.4
X154.65Y-45.9
X154.65Y-141.9
X154.65Y-144.9
X154.65Y-155.4
X154.74Y-139.29
X155.17Y-127.77
X155.81Y-126.03
X155.85Y-124.575
X155.9Y-51.6
X155.95Y-141.875
X156.005Y-143.02
X156.025Y-144.9
X156.05Y-116.9
X156.125Y-119.825
X156.15Y-44.4
X156.15Y-45.9
X156.2Y-48.83
X156.67Y-127.77
X157.275Y-140.675
X157.3Y-62.3
X157.33Y-143.045
X157.34Y-90.04
X157.35Y-141.925
X157.375Y-66.05
X157.375Y-67.55
X157.375Y-69.05
X157.375Y-70.55
X157.375Y-72.05
X157.375Y-73.55
X157.375Y-75.05
X157.375Y-76.55
X157.375Y-78.05
X157.375Y-79.55
X157.375Y-81.05
X157.375Y-82.55
X157.375Y-84.05
X157.375Y-85.55
X157.375Y-87.05
X157.375Y-88.55
X157.375Y-91.55
X157.375Y-93.05
X157.375Y-94.55
X157.375Y-96.05
X157.375Y-97.55
X157.375Y-99.05
X157.375Y-100.55
X157.375Y-102.05
X157.375Y-103.55
X157.375Y-105.05
X157.375Y-106.55
X157.375Y-108.05
X157.375Y-109.55
X157.375Y-111.05
X157.375Y-112.55
X157.375Y-114.05
X157.375Y-115.4
X157.375Y-123.05
X157.375Y-124.55
X157.4Y-121.75
X157.425Y-118.425
X157.45Y-145.025
X157.5Y-54.7
X157.57Y-126.0
X157.62Y-130.5
X157.65Y-44.4
X157.65Y-45.9
X157.76Y-136.68
X157.95Y-51.65
X158.39Y-133.87
X158.41Y-48.83
X158.775Y-140.65
X158.775Y-141.975
X158.8Y-62.3
X158.8Y-139.175
X158.805Y-143.07
X158.875Y-66.05
X158.875Y-67.55
X158.875Y-69.05
X158.875Y-70.55
X158.875Y-72.05
X158.875Y-73.55
X158.875Y-75.05
X158.875Y-76.55
X158.875Y-78.05
X158.875Y-79.55
X158.875Y-81.05
X158.875Y-82.55
X158.875Y-84.05
X158.875Y-85.55
X158.875Y-87.05
X158.875Y-88.55
X158.875Y-91.55
X158.875Y-93.05
X158.875Y-94.55
X158.875Y-96.05
X158.875Y-97.55
X158.875Y-99.05
X158.875Y-100.55
X158.875Y-102.05
X158.875Y-103.55
X158.875Y-105.05
X158.875Y-106.55
X158.875Y-108.05
X158.875Y-109.55
X158.875Y-111.05
X158.875Y-112.55
X158.875Y-114.05
X158.875Y-120.275
X158.875Y-121.775
X158.875Y-123.275
X158.875Y-124.775
X158.875Y-126.275
X158.875Y-127.775
X158.875Y-130.775
X158.875Y-132.275
X158.875Y-144.975
X158.89Y-90.04
X158.9Y-116.95
X158.95Y-135.575
X159.0Y-54.75
X159.15Y-44.4
X159.15Y-45.9
X159.45Y-51.65
X159.975Y-63.6
X160.21Y-48.83
X160.325Y-144.975
X160.33Y-143.07
X160.375Y-118.725
X160.375Y-120.275
X160.375Y-121.775
X160.375Y-123.275
X160.375Y-124.775
X160.375Y-126.275
X160.375Y-127.775
X160.375Y-130.775
X160.4Y-138.925
X160.4Y-140.475
X160.425Y-134.175
X160.425Y-141.675
X160.425Y-149.175
X160.425Y-150.675
X160.425Y-152.175
X160.425Y-153.675
X160.425Y-155.4
X160.45Y-115.4
X160.5Y-54.625
X160.65Y-44.4
X160.65Y-45.9
X160.95Y-51.65
X161.0Y-64.5
X161.675Y-113.95
X161.875Y-117.225
X161.875Y-118.725
X161.875Y-120.275
X161.875Y-121.775
X161.875Y-123.275
X161.875Y-124.775
X161.875Y-126.275
X161.875Y-127.775
X161.875Y-132.675
X161.92Y-130.62
X161.925Y-150.675
X161.925Y-152.175
X161.925Y-153.675
X161.955Y-143.045
X161.975Y-135.625
X161.975Y-138.925
X161.975Y-140.425
X161.975Y-141.925
X161.975Y-144.925
X161.975Y-146.18
X161.975Y-149.125
X162.025Y-54.625
X162.07Y-48.83
X162.15Y-44.4
X162.15Y-45.9
X162.15Y-64.5
X162.15Y-66.0
X162.15Y-67.5
X162.15Y-69.0
X162.15Y-73.55
X162.15Y-75.05
X162.15Y-76.55
X162.15Y-78.05
X162.15Y-79.55
X162.15Y-81.05
X162.15Y-82.55
X162.15Y-84.05
X162.15Y-85.55
X162.15Y-87.05
X162.15Y-88.55
X162.15Y-100.275
X162.15Y-101.775
X162.15Y-103.275
X162.15Y-104.775
X162.15Y-106.275
X162.15Y-107.775
X162.15Y-109.275
X162.15Y-110.775
X162.15Y-112.375
X162.15Y-155.4
X162.18Y-71.92
X162.25Y-91.45
X162.25Y-92.625
X162.25Y-94.125
X162.25Y-95.625
X162.25Y-97.125
X162.25Y-98.625
X162.29Y-90.0
X162.45Y-51.65
X163.375Y-100.275
X163.375Y-101.775
X163.375Y-103.275
X163.375Y-104.775
X163.375Y-106.275
X163.375Y-107.775
X163.375Y-109.275
X163.375Y-110.775
X163.375Y-117.225
X163.375Y-118.725
X163.375Y-120.275
X163.375Y-121.775
X163.375Y-123.275
X163.375Y-124.775
X163.375Y-126.275
X163.375Y-127.775
X163.375Y-131.225
X163.405Y-143.07
X163.425Y-115.675
X163.425Y-134.15
X163.425Y-137.15
X163.425Y-138.95
X163.425Y-140.45
X163.425Y-141.95
X163.425Y-144.95
X163.425Y-146.205
X163.425Y-149.175
X163.425Y-150.675
X163.425Y-152.175
X163.425Y-153.675
X163.45Y-112.125
X163.5Y-54.65
X163.53Y-48.81
X163.65Y-44.4
X163.65Y-45.9
X163.65Y-155.4
X163.75Y-91.45
X163.75Y-92.625
X163.75Y-94.125
X163.75Y-95.625
X163.75Y-97.125
X163.75Y-98.625
X163.95Y-51.65
X164.925Y-132.825
X164.925Y-135.925
X164.925Y-137.15
X164.925Y-149.175
X164.925Y-150.675
X164.925Y-152.175
X164.95Y-146.205
X165.05Y-54.575
X165.075Y-91.45
X165.125Y-92.625
X165.15Y-44.4
X165.15Y-45.9
X165.15Y-131.0
X165.15Y-155.4
X165.26Y-48.83
X165.45Y-51.65
X166.175Y-131.625
X166.36Y-146.205
X166.425Y-135.925
X166.425Y-137.15
X166.425Y-149.175
X166.475Y-95.6
X166.475Y-97.025
X166.475Y-98.525
X166.475Y-100.025
X166.475Y-101.525
X166.475Y-103.025
X166.475Y-104.525
X166.475Y-106.025
X166.475Y-107.525
X166.475Y-109.025
X166.475Y-134.325
X166.575Y-91.45
X166.65Y-44.4
X166.65Y-45.9
X166.65Y-155.4
X166.675Y-54.6
X166.675Y-127.925
X166.675Y-129.35
X166.7Y-113.525
X166.7Y-115.025
X166.7Y-116.525
X166.7Y-118.025
X166.7Y-119.525
X166.7Y-121.025
X166.7Y-122.525
X166.7Y-124.025
X166.95Y-51.65
X167.21Y-48.83
X167.675Y-112.275
X167.675Y-113.775
X167.675Y-115.275
X167.675Y-116.775
X167.675Y-118.275
X167.675Y-119.775
X167.675Y-121.275
X167.7Y-97.025
X167.7Y-98.525
X167.7Y-100.025
X167.7Y-101.525
X167.7Y-103.025
X167.7Y-104.525
X167.7Y-106.025
X167.7Y-107.525
X167.75Y-95.55
X167.775Y-123.025
X167.825Y-126.925
X167.825Y-129.07
X167.86Y-90.18
X167.91Y-132.89
X167.925Y-149.175
X167.95Y-146.205
X168.05Y-54.6
X168.125Y-94.1
X168.15Y-44.4
X168.15Y-45.9
X168.15Y-155.4
X168.45Y-51.65
X169.02Y-48.83
X169.12Y-131.68
X169.425Y-149.175
X169.425Y-150.675
X169.425Y-152.175
X169.475Y-92.75
X169.525Y-54.7
X169.536Y-146.205
X169.65Y-44.4
X169.65Y-45.9
X169.65Y-88.55
X169.65Y-155.4
X169.82Y-60.2
X169.95Y-51.65
X170.51Y-128.49
X170.55Y-125.45
X170.55Y-127.12
X170.55Y-130.25
X170.6Y-96.1
X170.6Y-97.6
X170.6Y-99.1
X170.6Y-100.6
X170.6Y-102.1
X170.6Y-103.6
X170.6Y-105.1
X170.6Y-109.15
X170.6Y-110.65
X170.6Y-112.15
X170.6Y-113.65
X170.6Y-115.35
X170.6Y-116.85
X170.6Y-118.35
X170.6Y-119.85
X170.8Y-91.425
X170.825Y-87.375
X170.88Y-144.33
X170.925Y-149.175
X170.925Y-150.675
X170.925Y-152.175
X170.925Y-153.675
X170.96Y-48.83
X171.0Y-54.675
X171.07Y-56.43
X171.15Y-44.4
X171.15Y-45.9
X171.15Y-155.4
X171.25Y-121.725
X171.45Y-51.65
X171.46Y-61.84
X171.6Y-95.1
X171.75Y-86.45
X171.9Y-124.1
X172.1Y-103.6
X172.11Y-118.34
X172.26Y-107.49
X172.425Y-149.175
X172.425Y-150.675
X172.425Y-152.175
X172.425Y-153.675
X172.43Y-144.33
X172.47Y-146.205
X172.57Y-57.93
X172.6Y-54.675
X172.65Y-44.4
X172.65Y-45.9
X172.65Y-155.4
X172.72Y-63.1
X172.725Y-85.475
X172.725Y-93.975
X172.95Y-51.65
X172.97Y-48.85
X173.1Y-88.9
X173.29Y-122.71
X173.35Y-102.35
X173.44Y-117.01
X173.725Y-92.95
X173.73Y-106.12
X173.925Y-149.175
X173.925Y-150.675
X173.925Y-152.175
X173.925Y-153.675
X174.0Y-56.225
X174.0Y-57.725
X174.0Y-59.225
X174.0Y-144.33
X174.04Y-146.205
X174.1Y-84.2
X174.15Y-44.4
X174.15Y-45.9
X174.15Y-155.4
X174.2Y-64.58
X174.35Y-52.35
X174.525Y-101.175
X174.55Y-92.125
X174.68Y-49.84
X174.95Y-87.32
X175.22Y-115.64
X175.35Y-49.17
X175.425Y-56.8
X175.425Y-58.3
X175.425Y-59.8
X175.425Y-65.8
X175.425Y-67.3
X175.425Y-68.8
X175.425Y-70.3
X175.425Y-71.8
X175.425Y-73.3
X175.425Y-74.8
X175.425Y-76.3
X175.425Y-77.8
X175.425Y-79.35
X175.425Y-104.8
X175.47Y-150.72
X175.5Y-82.85
X175.525Y-91.25
X175.57Y-153.65
X175.575Y-92.85
X175.58Y-152.22
X175.6Y-149.175
X175.62Y-144.33
X175.65Y-44.4
X175.65Y-45.9
X175.65Y-155.4
X175.66Y-146.205
X175.81Y-50.97
X175.81Y-53.75
X176.26Y-119.91
X176.51Y-50.33
X176.72Y-103.5
X176.72Y-105.0
X176.72Y-106.5
X176.72Y-108.0
X176.72Y-109.5
X176.72Y-111.0
X176.72Y-112.5
X176.72Y-114.0
X176.9Y-58.72
X176.94Y-54.9
X176.95Y-52.15
X177.01Y-88.81
X177.15Y-44.4
X177.15Y-45.9
X177.15Y-155.4
X177.79Y-118.38
X177.86Y-146.205
X178.15Y-84.18
X178.35Y-69.425
X178.375Y-68.15
X178.375Y-70.825
X178.375Y-72.325
X178.375Y-73.825
X178.375Y-75.325
X178.375Y-76.825
X178.375Y-78.325
X178.375Y-79.725
X178.375Y-81.225
X178.65Y-44.4
X178.65Y-45.9
X178.65Y-47.4
X178.65Y-155.4
X179.11Y-142.76
X179.11Y-144.96
X180.15Y-44.4
X180.15Y-45.9
X180.15Y-47.4
X180.15Y-48.9
X180.15Y-97.825
X180.15Y-99.325
X180.15Y-100.825
X180.15Y-102.325
X180.15Y-103.825
X180.15Y-105.325
X180.15Y-106.825
X180.15Y-108.325
X180.15Y-109.825
X180.15Y-111.325
X180.15Y-112.825
X180.15Y-114.325
X180.15Y-115.825
X180.15Y-117.325
X180.15Y-118.825
X180.15Y-120.325
X180.15Y-121.825
X180.15Y-123.325
X180.15Y-124.825
X180.15Y-126.325
X180.15Y-155.4
X180.225Y-70.9
X180.225Y-72.4
X180.225Y-73.9
X180.225Y-75.4
X180.225Y-76.9
X180.225Y-78.4
X180.225Y-79.9
X181.185Y-66.41
X181.225Y-63.775
X181.225Y-65.275
X181.5Y-55.63
X181.65Y-44.4
X181.65Y-45.9
X181.65Y-47.4
X181.65Y-48.9
X181.65Y-99.325
X181.65Y-100.825
X181.65Y-102.325
X181.65Y-103.825
X181.65Y-105.325
X181.65Y-106.825
X181.65Y-108.325
X181.65Y-109.825
X181.65Y-111.325
X181.65Y-112.825
X181.65Y-114.325
X181.65Y-115.825
X181.65Y-117.325
X181.65Y-118.825
X181.65Y-120.325
X181.65Y-121.825
X181.65Y-123.325
X181.65Y-124.825
X181.65Y-126.325
X181.65Y-155.4
X182.1Y-72.325
X182.1Y-73.825
X182.1Y-75.325
X182.1Y-76.825
X182.1Y-78.325
X182.1Y-79.825
X182.21Y-66.41
X182.25Y-63.775
X182.25Y-65.275
X182.625Y-87.325
X182.625Y-88.75
X182.675Y-90.325
X183.15Y-44.4
X183.15Y-45.9
X183.15Y-47.4
X183.15Y-48.9
X183.15Y-155.4
X183.45Y-95.32
X184.44Y-87.65
X184.64Y-94.45
X184.65Y-44.4
X184.65Y-45.9
X184.65Y-47.4
X184.65Y-48.9
X184.65Y-75.325
X184.65Y-76.825
X184.65Y-78.325
X184.65Y-79.825
X184.65Y-81.325
X184.65Y-82.825
X184.65Y-84.09
X184.65Y-85.825
X184.65Y-88.825
X184.65Y-96.325
X184.65Y-155.4
X185.075Y-59.0
X185.075Y-60.75
X185.075Y-64.675
X185.075Y-66.375
X185.075Y-69.75
X186.15Y-44.4
X186.15Y-45.9
X186.15Y-47.4
X186.15Y-48.9
X186.15Y-155.4
X187.65Y-44.4
X187.65Y-45.9
X187.65Y-47.4
X187.65Y-48.9
X187.65Y-155.4
X189.15Y-48.9
X189.15Y-50.4
X189.15Y-51.9
X189.15Y-53.4
X189.15Y-54.9
X189.15Y-56.4
X189.15Y-57.9
X189.2Y-89.4
X189.2Y-90.9
X189.2Y-92.475
X190.62Y-136.42
X190.65Y-87.9
X190.65Y-89.4
X190.65Y-90.9
X190.65Y-92.4
X190.65Y-93.9
X190.65Y-95.4
X190.65Y-96.9
X190.65Y-98.4
X190.65Y-99.9
X190.65Y-101.4
X190.65Y-102.9
X190.65Y-104.4
X190.65Y-105.9
X190.65Y-107.4
X190.65Y-108.9
X190.65Y-110.4
X190.65Y-111.9
X190.65Y-113.4
X190.65Y-114.9
X190.65Y-116.4
X190.65Y-117.9
X190.65Y-119.4
X190.65Y-120.9
X190.65Y-122.4
X190.65Y-123.9
X190.65Y-125.4
X190.65Y-126.9
X190.65Y-128.4
X190.65Y-129.9
X190.65Y-131.4
X190.65Y-132.9
X190.65Y-137.4
X190.65Y-138.9
X190.65Y-140.4
X190.65Y-141.9
X190.65Y-143.4
X190.65Y-144.9
X190.65Y-146.4
X190.65Y-147.9
X190.65Y-149.4
X191.275Y-66.9
X191.275Y-68.4
X191.275Y-69.9
X191.275Y-71.4
X191.275Y-72.9
X191.275Y-74.4
X191.275Y-75.9
X191.275Y-77.4
X191.275Y-78.9
X191.275Y-80.4
X191.275Y-81.9
X191.275Y-83.4
X191.275Y-84.9
X191.275Y-86.4
X191.3Y-53.4
X191.3Y-54.9
X191.3Y-56.4
X191.3Y-57.9
X191.3Y-59.4
X191.3Y-60.9
X191.3Y-62.4
X191.3Y-63.9
X191.3Y-65.4
X191.325Y-48.9
X191.325Y-50.4
X191.325Y-51.9
X192.15Y-87.9
X192.15Y-89.4
X192.15Y-90.9
X192.15Y-92.4
X192.15Y-93.9
X192.15Y-95.4
X192.15Y-96.9
X192.15Y-98.4
X192.15Y-99.9
X192.15Y-101.4
X192.15Y-102.9
X192.15Y-104.4
X192.15Y-105.9
X192.15Y-107.4
X192.15Y-108.9
X192.15Y-110.4
X192.15Y-111.9
X192.15Y-113.4
X192.15Y-114.9
X192.15Y-116.4
X192.15Y-117.9
X192.15Y-119.4
X192.15Y-120.9
X192.15Y-122.4
X192.15Y-123.9
X192.15Y-125.4
X192.15Y-126.9
X192.15Y-128.4
X192.15Y-129.9
X192.15Y-131.4
X192.15Y-132.9
X192.15Y-137.4
X192.15Y-138.9
X192.15Y-140.4
X192.15Y-141.9
X192.15Y-143.4
X192.15Y-144.9
X192.15Y-146.4
X192.15Y-147.9
X192.15Y-149.4
X192.17Y-136.44
X192.775Y-66.9
X192.775Y-68.4
X192.775Y-69.9
X192.775Y-71.4
X192.775Y-72.9
X192.775Y-74.4
X192.775Y-75.9
X192.775Y-77.4
X192.775Y-78.9
X192.775Y-80.4
X192.775Y-81.9
X192.775Y-83.4
X192.775Y-84.9
X192.775Y-86.4
X192.8Y-53.4
X192.8Y-54.9
X192.8Y-56.4
X192.8Y-57.9
X192.8Y-59.4
X192.8Y-60.9
X192.8Y-62.4
X192.8Y-63.9
X192.8Y-65.4
X192.825Y-48.9
X192.825Y-50.4
X192.825Y-51.9
X192.92Y-134.42
X199.12Y-143.09
X199.19Y-70.6
X199.19Y-73.14
X199.19Y-75.68
X199.19Y-78.22
X199.19Y-80.76
X199.19Y-83.3
X199.19Y-85.84
X199.19Y-139.59
X199.19Y-144.67
X199.19Y-147.21
X199.19Y-149.75
X199.19Y-152.29
X199.19Y-154.83
X199.23Y-68.7
X199.24Y-137.6
X201.6Y-53.38
X201.6Y-54.82
X201.6Y-56.35
X201.6Y-58.063
X201.6Y-122.37
X201.6Y-123.81
X201.6Y-125.34
X201.6Y-127.053
X201.65Y-51.79
X201.65Y-120.78
X201.66Y-70.6
X201.66Y-78.22
X201.66Y-85.84
X201.66Y-139.59
X201.66Y-147.21
X201.66Y-154.83
X201.7Y-68.7
X201.71Y-137.6
X202.21Y-60.12
X202.21Y-129.11
X202.27Y-43.28
X202.27Y-112.27
X202.31Y-46.38
X202.31Y-115.37
X203.35Y-49.75
X203.35Y-118.74
X203.46Y-61.37
X203.46Y-130.36
X203.93Y-43.28
X203.93Y-112.27
X204.08Y-73.26
X204.08Y-75.8
X204.08Y-78.34
X204.08Y-80.88
X204.08Y-83.42
X204.08Y-85.96
X204.08Y-143.29
X204.08Y-144.79
X204.08Y-147.33
X204.08Y-149.87
X204.08Y-152.41
X204.08Y-154.95
X204.11Y-51.7
X204.11Y-53.34
X204.11Y-55.01
X204.11Y-56.42
X204.11Y-58.06
X204.11Y-120.69
X204.11Y-122.33
X204.11Y-124.0
X204.11Y-125.41
X204.11Y-127.05
X204.2Y-70.44
X204.2Y-139.43
X204.24Y-62.87
X204.24Y-64.4
X204.24Y-65.96
X204.24Y-131.86
X204.24Y-133.39
X204.24Y-134.95
X204.28Y-68.58
X204.29Y-137.48
X205.02Y-44.37
X205.02Y-113.36
X205.8Y-72.34
X205.8Y-141.33
X205.84Y-42.78
X205.84Y-111.77
X206.16Y-53.34
X206.16Y-55.05
X206.16Y-56.48
X206.16Y-58.22
X206.16Y-60.26
X206.16Y-122.33
X206.16Y-124.04
X206.16Y-125.47
X206.16Y-127.21
X206.16Y-129.25
X206.17Y-51.7
X206.17Y-120.69
X206.28Y-85.97
X206.28Y-154.96
X206.48Y-45.83
X206.48Y-64.6
X206.48Y-66.17
X206.48Y-114.82
X206.48Y-133.59
X206.48Y-135.16
X206.52Y-69.02
X206.53Y-137.92
X206.72Y-47.51
X206.72Y-116.5
X206.875Y-71.15
X206.875Y-140.14
X207.65Y-73.4
X207.65Y-142.39
X207.66Y-61.85
X207.66Y-130.84
X207.68Y-69.58
X207.68Y-138.57
X208.1Y-48.84
X208.1Y-117.83
X208.47Y-42.82
X208.47Y-111.81
X208.56Y-50.35
X208.56Y-51.74
X208.56Y-53.1
X208.56Y-119.34
X208.56Y-120.73
X208.56Y-122.09
X209.99Y-52.55
X209.99Y-121.54
X210.58Y-42.82
X210.58Y-111.81
X210.95Y-69.07
X210.95Y-74.54
X210.95Y-138.06
X210.95Y-143.53
X210.99Y-56.91
X210.99Y-58.98
X210.99Y-61.14
X210.99Y-65.08
X210.99Y-125.9
X210.99Y-127.97
X210.99Y-130.13
X210.99Y-134.07
X211.21Y-51.33
X211.21Y-120.32
X212.25Y-72.775
X212.25Y-141.765
X212.55Y-42.82
X212.55Y-44.48
X212.55Y-46.423
X212.55Y-48.15
X212.55Y-49.99
X212.55Y-111.81
X212.55Y-113.47
X212.55Y-115.413
X212.55Y-117.14
X212.55Y-118.98
X212.67Y-55.23
X212.67Y-124.22
X213.58Y-67.68
X213.58Y-136.67
X213.66Y-74.13
X213.66Y-76.75
X213.66Y-143.12
X213.66Y-145.74
X213.688Y-69.638
X213.688Y-138.627
X214.24Y-72.64
X214.24Y-141.63
X214.73Y-75.35
X214.73Y-144.34
X215.26Y-65.74
X215.26Y-134.73
X215.36Y-69.46
X215.36Y-138.45
X215.64Y-73.83
X215.64Y-142.82
X215.82Y-76.75
X215.82Y-145.74
X216.67Y-69.07
X216.67Y-138.06
X216.71Y-75.11
X216.71Y-144.1
X217.27Y-64.47
X217.27Y-133.46
X217.33Y-67.49
X217.33Y-136.48
X218.08Y-61.78
X218.08Y-130.77
X218.13Y-59.8
X218.13Y-128.79
X218.15Y-58.08
X218.15Y-127.07
X218.4Y-42.76
X218.4Y-44.5
X218.4Y-46.78
X218.4Y-49.15
X218.4Y-50.78
X218.4Y-52.95
X218.4Y-111.75
X218.4Y-113.49
X218.4Y-115.77
X218.4Y-118.14
X218.4Y-119.77
X218.4Y-121.94
X218.72Y-68.88
X218.72Y-137.87
X218.77Y-72.87
X218.77Y-141.86
X219.36Y-65.74
X219.36Y-134.73
X219.71Y-54.26
X219.71Y-123.25
X219.75Y-59.68
X219.75Y-128.67
X219.84Y-70.0
X219.84Y-138.99
X220.24Y-61.78
X220.24Y-130.77
X220.49Y-74.59
X220.49Y-143.58
X220.79Y-67.17
X220.79Y-136.16
X221.22Y-55.77
X221.22Y-124.76
X221.44Y-61.37
X221.44Y-130.36
X221.52Y-63.06
X221.52Y-132.05
X222.21Y-68.49
X222.21Y-137.48
X222.23Y-76.33
X222.23Y-145.32
X222.31Y-72.47
X222.31Y-141.46
X222.86Y-57.41
X222.86Y-126.4
X222.87Y-64.41
X222.87Y-133.4
X223.07Y-62.64
X223.07Y-131.63
X223.73Y-70.01
X223.73Y-139.0
X223.91Y-74.33
X223.91Y-143.32
X224.3Y-65.84
X224.3Y-134.83
X224.4Y-64.0
X224.4Y-132.99
X224.61Y-59.16
X224.61Y-128.15
X224.8Y-72.47
X224.8Y-141.46
X225.22Y-75.64
X225.22Y-144.63
X225.94Y-67.48
X225.94Y-136.47
X226.03Y-65.63
X226.03Y-134.62
X226.45Y-61.0
X226.45Y-129.99
X226.8Y-73.08
X226.8Y-75.04
X226.8Y-77.22
X226.8Y-142.07
X226.8Y-144.03
X226.8Y-146.21
X227.73Y-69.27
X227.73Y-138.26
X227.76Y-67.36
X227.76Y-136.35
X228.93Y-45.38
X228.93Y-114.37
X228.99Y-42.82
X228.99Y-111.81
X229.08Y-48.23
X229.08Y-50.77
X229.08Y-53.31
X229.08Y-55.85
X229.08Y-58.39
X229.08Y-60.93
X229.08Y-63.63
X229.08Y-117.22
X229.08Y-119.76
X229.08Y-122.3
X229.08Y-124.84
X229.08Y-127.38
X229.08Y-129.92
X229.08Y-132.62
X229.34Y-68.94
X229.34Y-70.56
X229.34Y-137.93
X229.34Y-139.55
X230.08Y-74.49
X230.08Y-76.12
X230.08Y-77.9
X230.08Y-143.48
X230.08Y-145.11
X230.08Y-146.89
X230.81Y-70.41
X230.81Y-139.4
X231.18Y-72.16
X231.18Y-82.29
X231.18Y-141.15
X231.18Y-151.28
X231.65Y-67.1
X231.65Y-136.09
X231.71Y-48.23
X231.71Y-50.77
X231.71Y-53.31
X231.71Y-55.85
X231.71Y-58.39
X231.71Y-60.93
X231.71Y-63.75
X231.71Y-117.22
X231.71Y-119.76
X231.71Y-122.3
X231.71Y-124.84
X231.71Y-127.38
X231.71Y-129.92
X231.71Y-132.74
X231.73Y-42.64
X231.73Y-45.38
X231.73Y-111.63
X231.73Y-114.37
T4
X62.1Y-77.89
X68.12Y-70.9
X74.64Y-77.89
X89.707Y-50.073
X89.707Y-52.613
X89.707Y-55.153
X89.707Y-57.693
X89.92Y-94.874
X89.92Y-97.414
X89.92Y-99.954
X89.92Y-102.494
X92.247Y-50.073
X92.247Y-52.613
X92.247Y-55.153
X92.247Y-57.693
X112.675Y-64.18
X115.215Y-64.18
X116.8Y-76.84
X117.755Y-64.18
X120.295Y-64.18
X120.84Y-99.44
X120.84Y-101.98
X120.84Y-104.52
X120.84Y-107.06
X120.84Y-109.6
X120.84Y-112.14
X120.84Y-114.68
X120.84Y-117.22
X120.84Y-119.76
X120.84Y-122.3
X120.84Y-124.84
X120.84Y-127.38
X120.84Y-129.92
X120.84Y-132.46
X120.84Y-135.0
X120.84Y-137.54
X120.84Y-140.08
X120.84Y-142.62
X120.84Y-145.16
X120.84Y-147.7
X120.84Y-150.24
X120.84Y-152.78
X122.835Y-64.18
X125.375Y-64.18
X127.33Y-76.84
X127.915Y-64.18
X130.455Y-64.18
X132.995Y-64.18
X135.535Y-64.18
X135.78Y-80.51
X146.24Y-99.44
X146.24Y-101.98
X146.24Y-104.52
X146.24Y-107.06
X146.24Y-109.6
X146.24Y-112.14
X146.24Y-114.68
X146.24Y-117.22
X146.24Y-119.76
X146.24Y-122.3
X146.24Y-124.84
X146.24Y-127.38
X146.24Y-129.92
X146.24Y-132.46
X146.24Y-135.0
X146.24Y-137.54
X146.24Y-140.08
X146.24Y-142.62
X146.24Y-145.16
X146.24Y-147.7
X146.24Y-150.24
X146.24Y-152.78
X155.37Y-56.57
X155.37Y-59.11
X155.37Y-61.65
X155.37Y-64.19
X155.37Y-66.73
X166.41Y-70.27
X166.57Y-143.26
X167.04Y-80.79
X167.2Y-151.56
X171.97Y-74.76
X173.53Y-110.99
X176.51Y-124.25
X179.285Y-50.994
X179.285Y-53.534
X179.285Y-56.074
X179.285Y-58.614
X179.285Y-61.154
X179.285Y-63.694
X180.46Y-82.535
X180.46Y-85.075
X180.46Y-87.615
X180.46Y-90.155
X180.46Y-92.695
X180.46Y-95.235
X199.56Y-45.14
X199.56Y-47.68
X199.56Y-50.22
X199.56Y-52.76
X199.56Y-55.3
X199.56Y-57.84
X199.56Y-60.38
X199.56Y-62.92
X199.56Y-114.12
X199.56Y-116.66
X199.56Y-119.2
X199.56Y-121.74
X199.56Y-124.28
X199.56Y-126.82
X199.56Y-129.36
X199.56Y-131.9
X214.8Y-45.14
X214.8Y-47.68
X214.8Y-50.22
X214.8Y-52.76
X214.8Y-55.3
X214.8Y-57.84
X214.8Y-60.38
X214.8Y-62.92
X214.8Y-114.12
X214.8Y-116.66
X214.8Y-119.2
X214.8Y-121.74
X214.8Y-124.28
X214.8Y-126.82
X214.8Y-129.36
X214.8Y-131.9
X221.47Y-79.85
X221.47Y-82.39
X221.47Y-148.84
X221.47Y-151.38
X224.01Y-79.85
X224.01Y-82.39
X224.01Y-148.84
X224.01Y-151.38
X226.55Y-79.85
X226.55Y-82.39
X226.55Y-148.84
X226.55Y-151.38
X229.09Y-79.85
X229.09Y-82.39
X229.09Y-148.84
X229.09Y-151.38
T5
X58.48Y-88.359
X58.48Y-108.699
X88.98Y-88.359
X88.98Y-108.699
T2
X180.745Y-148.35G85X181.255Y-148.35
G05
X184.345Y-148.35G85X184.855Y-148.35
G05
T3
X178.475Y-152.16G85X178.475Y-152.7
G05
X187.125Y-152.16G85X187.125Y-152.7
G05
M30
