%TF.GenerationSoftware,KiCad,Pcbnew,9.0.8-9.0.8~ubuntu24.04.1*%
%TF.CreationDate,2026-04-15T10:55:21+02:00*%
%TF.ProjectId,TFG_v4,5446475f-7634-42e6-9b69-6361645f7063,rev?*%
%TF.SameCoordinates,Original*%
%TF.FileFunction,Paste,Top*%
%TF.FilePolarity,Positive*%
%FSLAX46Y46*%
G04 Gerber Fmt 4.6, Leading zero omitted, Abs format (unit mm)*
G04 Created by KiCad (PCBNEW 9.0.8-9.0.8~ubuntu24.04.1) date 2026-04-15 10:55:21*
%MOMM*%
%LPD*%
G01*
G04 APERTURE LIST*
G04 Aperture macros list*
%AMRoundRect*
0 Rectangle with rounded corners*
0 $1 Rounding radius*
0 $2 $3 $4 $5 $6 $7 $8 $9 X,Y pos of 4 corners*
0 Add a 4 corners polygon primitive as box body*
4,1,4,$2,$3,$4,$5,$6,$7,$8,$9,$2,$3,0*
0 Add four circle primitives for the rounded corners*
1,1,$1+$1,$2,$3*
1,1,$1+$1,$4,$5*
1,1,$1+$1,$6,$7*
1,1,$1+$1,$8,$9*
0 Add four rect primitives between the rounded corners*
20,1,$1+$1,$2,$3,$4,$5,0*
20,1,$1+$1,$4,$5,$6,$7,0*
20,1,$1+$1,$6,$7,$8,$9,0*
20,1,$1+$1,$8,$9,$2,$3,0*%
G04 Aperture macros list end*
%ADD10R,1.524000X0.660400*%
%ADD11R,6.426200X5.562600*%
%ADD12RoundRect,0.250000X-0.412500X-0.650000X0.412500X-0.650000X0.412500X0.650000X-0.412500X0.650000X0*%
%ADD13RoundRect,0.250000X-0.537500X-1.450000X0.537500X-1.450000X0.537500X1.450000X-0.537500X1.450000X0*%
%ADD14RoundRect,0.250001X-1.044999X0.872499X-1.044999X-0.872499X1.044999X-0.872499X1.044999X0.872499X0*%
%ADD15RoundRect,0.250001X0.872499X1.044999X-0.872499X1.044999X-0.872499X-1.044999X0.872499X-1.044999X0*%
%ADD16RoundRect,0.250000X-0.650000X0.412500X-0.650000X-0.412500X0.650000X-0.412500X0.650000X0.412500X0*%
%ADD17RoundRect,0.250000X0.650000X-0.412500X0.650000X0.412500X-0.650000X0.412500X-0.650000X-0.412500X0*%
%ADD18RoundRect,0.250001X-0.944999X0.872499X-0.944999X-0.872499X0.944999X-0.872499X0.944999X0.872499X0*%
%ADD19RoundRect,0.250001X-0.872499X-0.944999X0.872499X-0.944999X0.872499X0.944999X-0.872499X0.944999X0*%
G04 APERTURE END LIST*
D10*
%TO.C,N1*%
X181000000Y-139270000D03*
X181000000Y-138000000D03*
X181000000Y-136730000D03*
X181000000Y-135460000D03*
X181000000Y-134190000D03*
D11*
X173392700Y-136730000D03*
%TD*%
D12*
%TO.C,C1*%
X181025000Y-141875000D03*
X184150000Y-141875000D03*
%TD*%
D13*
%TO.C,C3*%
X183962500Y-135500000D03*
X188237500Y-135500000D03*
%TD*%
D12*
%TO.C,C13*%
X89737500Y-60700000D03*
X92862500Y-60700000D03*
%TD*%
D14*
%TO.C,C21*%
X104090000Y-102630000D03*
X104090000Y-109045000D03*
%TD*%
D15*
%TO.C,C15*%
X89732500Y-69075000D03*
X83317500Y-69075000D03*
%TD*%
D14*
%TO.C,C6*%
X209470000Y-147450000D03*
X209470000Y-153865000D03*
%TD*%
D16*
%TO.C,C10*%
X149600000Y-150237500D03*
X149600000Y-153362500D03*
%TD*%
D17*
%TO.C,C4*%
X218480000Y-149652500D03*
X218480000Y-146527500D03*
%TD*%
D18*
%TO.C,C20*%
X98250000Y-102742500D03*
X98250000Y-107857500D03*
%TD*%
D16*
%TO.C,C19*%
X93820000Y-102507500D03*
X93820000Y-105632500D03*
%TD*%
D14*
%TO.C,C8*%
X214740000Y-79565000D03*
X214740000Y-85980000D03*
%TD*%
D19*
%TO.C,C14*%
X89842500Y-64500000D03*
X94957500Y-64500000D03*
%TD*%
D16*
%TO.C,C2*%
X180950000Y-129117500D03*
X180950000Y-132242500D03*
%TD*%
D14*
%TO.C,C5*%
X214740000Y-148577500D03*
X214740000Y-154992500D03*
%TD*%
%TO.C,C9*%
X209470000Y-78460000D03*
X209470000Y-84875000D03*
%TD*%
D17*
%TO.C,C7*%
X218480000Y-80662500D03*
X218480000Y-77537500D03*
%TD*%
D18*
%TO.C,C11*%
X153250000Y-147650000D03*
X153250000Y-152765000D03*
%TD*%
D14*
%TO.C,C12*%
X157850000Y-147592500D03*
X157850000Y-154007500D03*
%TD*%
M02*
