%TF.GenerationSoftware,KiCad,Pcbnew,9.0.8-9.0.8~ubuntu24.04.1*%
%TF.CreationDate,2026-04-15T10:55:21+02:00*%
%TF.ProjectId,TFG_v4,5446475f-7634-42e6-9b69-6361645f7063,rev?*%
%TF.SameCoordinates,Original*%
%TF.FileFunction,Legend,Top*%
%TF.FilePolarity,Positive*%
%FSLAX46Y46*%
G04 Gerber Fmt 4.6, Leading zero omitted, Abs format (unit mm)*
G04 Created by KiCad (PCBNEW 9.0.8-9.0.8~ubuntu24.04.1) date 2026-04-15 10:55:21*
%MOMM*%
%LPD*%
G01*
G04 APERTURE LIST*
%ADD10C,0.120000*%
%ADD11C,0.150000*%
%ADD12C,0.100000*%
%ADD13C,0.152400*%
%ADD14C,0.127000*%
%ADD15C,0.250000*%
G04 APERTURE END LIST*
D10*
X139801379Y-59132957D02*
X138801379Y-59132957D01*
X139801379Y-58656767D02*
X138801379Y-58656767D01*
X138801379Y-58656767D02*
X139515664Y-58323434D01*
X139515664Y-58323434D02*
X138801379Y-57990101D01*
X138801379Y-57990101D02*
X139801379Y-57990101D01*
X138801379Y-57513910D02*
X139610902Y-57513910D01*
X139610902Y-57513910D02*
X139706140Y-57466291D01*
X139706140Y-57466291D02*
X139753760Y-57418672D01*
X139753760Y-57418672D02*
X139801379Y-57323434D01*
X139801379Y-57323434D02*
X139801379Y-57132958D01*
X139801379Y-57132958D02*
X139753760Y-57037720D01*
X139753760Y-57037720D02*
X139706140Y-56990101D01*
X139706140Y-56990101D02*
X139610902Y-56942482D01*
X139610902Y-56942482D02*
X138801379Y-56942482D01*
D11*
X198878207Y-67904580D02*
X198830588Y-67952200D01*
X198830588Y-67952200D02*
X198687731Y-67999819D01*
X198687731Y-67999819D02*
X198592493Y-67999819D01*
X198592493Y-67999819D02*
X198449636Y-67952200D01*
X198449636Y-67952200D02*
X198354398Y-67856961D01*
X198354398Y-67856961D02*
X198306779Y-67761723D01*
X198306779Y-67761723D02*
X198259160Y-67571247D01*
X198259160Y-67571247D02*
X198259160Y-67428390D01*
X198259160Y-67428390D02*
X198306779Y-67237914D01*
X198306779Y-67237914D02*
X198354398Y-67142676D01*
X198354398Y-67142676D02*
X198449636Y-67047438D01*
X198449636Y-67047438D02*
X198592493Y-66999819D01*
X198592493Y-66999819D02*
X198687731Y-66999819D01*
X198687731Y-66999819D02*
X198830588Y-67047438D01*
X198830588Y-67047438D02*
X198878207Y-67095057D01*
X199497255Y-66999819D02*
X199687731Y-66999819D01*
X199687731Y-66999819D02*
X199782969Y-67047438D01*
X199782969Y-67047438D02*
X199878207Y-67142676D01*
X199878207Y-67142676D02*
X199925826Y-67333152D01*
X199925826Y-67333152D02*
X199925826Y-67666485D01*
X199925826Y-67666485D02*
X199878207Y-67856961D01*
X199878207Y-67856961D02*
X199782969Y-67952200D01*
X199782969Y-67952200D02*
X199687731Y-67999819D01*
X199687731Y-67999819D02*
X199497255Y-67999819D01*
X199497255Y-67999819D02*
X199402017Y-67952200D01*
X199402017Y-67952200D02*
X199306779Y-67856961D01*
X199306779Y-67856961D02*
X199259160Y-67666485D01*
X199259160Y-67666485D02*
X199259160Y-67333152D01*
X199259160Y-67333152D02*
X199306779Y-67142676D01*
X199306779Y-67142676D02*
X199402017Y-67047438D01*
X199402017Y-67047438D02*
X199497255Y-66999819D01*
X200354398Y-67999819D02*
X200354398Y-66999819D01*
X200354398Y-66999819D02*
X200925826Y-67999819D01*
X200925826Y-67999819D02*
X200925826Y-66999819D01*
X201259160Y-66999819D02*
X201830588Y-66999819D01*
X201544874Y-67999819D02*
X201544874Y-66999819D01*
X202735350Y-67999819D02*
X202402017Y-67523628D01*
X202163922Y-67999819D02*
X202163922Y-66999819D01*
X202163922Y-66999819D02*
X202544874Y-66999819D01*
X202544874Y-66999819D02*
X202640112Y-67047438D01*
X202640112Y-67047438D02*
X202687731Y-67095057D01*
X202687731Y-67095057D02*
X202735350Y-67190295D01*
X202735350Y-67190295D02*
X202735350Y-67333152D01*
X202735350Y-67333152D02*
X202687731Y-67428390D01*
X202687731Y-67428390D02*
X202640112Y-67476009D01*
X202640112Y-67476009D02*
X202544874Y-67523628D01*
X202544874Y-67523628D02*
X202163922Y-67523628D01*
X203354398Y-66999819D02*
X203544874Y-66999819D01*
X203544874Y-66999819D02*
X203640112Y-67047438D01*
X203640112Y-67047438D02*
X203735350Y-67142676D01*
X203735350Y-67142676D02*
X203782969Y-67333152D01*
X203782969Y-67333152D02*
X203782969Y-67666485D01*
X203782969Y-67666485D02*
X203735350Y-67856961D01*
X203735350Y-67856961D02*
X203640112Y-67952200D01*
X203640112Y-67952200D02*
X203544874Y-67999819D01*
X203544874Y-67999819D02*
X203354398Y-67999819D01*
X203354398Y-67999819D02*
X203259160Y-67952200D01*
X203259160Y-67952200D02*
X203163922Y-67856961D01*
X203163922Y-67856961D02*
X203116303Y-67666485D01*
X203116303Y-67666485D02*
X203116303Y-67333152D01*
X203116303Y-67333152D02*
X203163922Y-67142676D01*
X203163922Y-67142676D02*
X203259160Y-67047438D01*
X203259160Y-67047438D02*
X203354398Y-66999819D01*
X204687731Y-67999819D02*
X204211541Y-67999819D01*
X204211541Y-67999819D02*
X204211541Y-66999819D01*
X204973446Y-67714104D02*
X205449636Y-67714104D01*
X204878208Y-67999819D02*
X205211541Y-66999819D01*
X205211541Y-66999819D02*
X205544874Y-67999819D01*
X205878208Y-67999819D02*
X205878208Y-66999819D01*
X205878208Y-66999819D02*
X206116303Y-66999819D01*
X206116303Y-66999819D02*
X206259160Y-67047438D01*
X206259160Y-67047438D02*
X206354398Y-67142676D01*
X206354398Y-67142676D02*
X206402017Y-67237914D01*
X206402017Y-67237914D02*
X206449636Y-67428390D01*
X206449636Y-67428390D02*
X206449636Y-67571247D01*
X206449636Y-67571247D02*
X206402017Y-67761723D01*
X206402017Y-67761723D02*
X206354398Y-67856961D01*
X206354398Y-67856961D02*
X206259160Y-67952200D01*
X206259160Y-67952200D02*
X206116303Y-67999819D01*
X206116303Y-67999819D02*
X205878208Y-67999819D01*
X207068684Y-66999819D02*
X207259160Y-66999819D01*
X207259160Y-66999819D02*
X207354398Y-67047438D01*
X207354398Y-67047438D02*
X207449636Y-67142676D01*
X207449636Y-67142676D02*
X207497255Y-67333152D01*
X207497255Y-67333152D02*
X207497255Y-67666485D01*
X207497255Y-67666485D02*
X207449636Y-67856961D01*
X207449636Y-67856961D02*
X207354398Y-67952200D01*
X207354398Y-67952200D02*
X207259160Y-67999819D01*
X207259160Y-67999819D02*
X207068684Y-67999819D01*
X207068684Y-67999819D02*
X206973446Y-67952200D01*
X206973446Y-67952200D02*
X206878208Y-67856961D01*
X206878208Y-67856961D02*
X206830589Y-67666485D01*
X206830589Y-67666485D02*
X206830589Y-67333152D01*
X206830589Y-67333152D02*
X206878208Y-67142676D01*
X206878208Y-67142676D02*
X206973446Y-67047438D01*
X206973446Y-67047438D02*
X207068684Y-66999819D01*
X208497255Y-67999819D02*
X208163922Y-67523628D01*
X207925827Y-67999819D02*
X207925827Y-66999819D01*
X207925827Y-66999819D02*
X208306779Y-66999819D01*
X208306779Y-66999819D02*
X208402017Y-67047438D01*
X208402017Y-67047438D02*
X208449636Y-67095057D01*
X208449636Y-67095057D02*
X208497255Y-67190295D01*
X208497255Y-67190295D02*
X208497255Y-67333152D01*
X208497255Y-67333152D02*
X208449636Y-67428390D01*
X208449636Y-67428390D02*
X208402017Y-67476009D01*
X208402017Y-67476009D02*
X208306779Y-67523628D01*
X208306779Y-67523628D02*
X207925827Y-67523628D01*
X198908207Y-137474580D02*
X198860588Y-137522200D01*
X198860588Y-137522200D02*
X198717731Y-137569819D01*
X198717731Y-137569819D02*
X198622493Y-137569819D01*
X198622493Y-137569819D02*
X198479636Y-137522200D01*
X198479636Y-137522200D02*
X198384398Y-137426961D01*
X198384398Y-137426961D02*
X198336779Y-137331723D01*
X198336779Y-137331723D02*
X198289160Y-137141247D01*
X198289160Y-137141247D02*
X198289160Y-136998390D01*
X198289160Y-136998390D02*
X198336779Y-136807914D01*
X198336779Y-136807914D02*
X198384398Y-136712676D01*
X198384398Y-136712676D02*
X198479636Y-136617438D01*
X198479636Y-136617438D02*
X198622493Y-136569819D01*
X198622493Y-136569819D02*
X198717731Y-136569819D01*
X198717731Y-136569819D02*
X198860588Y-136617438D01*
X198860588Y-136617438D02*
X198908207Y-136665057D01*
X199527255Y-136569819D02*
X199717731Y-136569819D01*
X199717731Y-136569819D02*
X199812969Y-136617438D01*
X199812969Y-136617438D02*
X199908207Y-136712676D01*
X199908207Y-136712676D02*
X199955826Y-136903152D01*
X199955826Y-136903152D02*
X199955826Y-137236485D01*
X199955826Y-137236485D02*
X199908207Y-137426961D01*
X199908207Y-137426961D02*
X199812969Y-137522200D01*
X199812969Y-137522200D02*
X199717731Y-137569819D01*
X199717731Y-137569819D02*
X199527255Y-137569819D01*
X199527255Y-137569819D02*
X199432017Y-137522200D01*
X199432017Y-137522200D02*
X199336779Y-137426961D01*
X199336779Y-137426961D02*
X199289160Y-137236485D01*
X199289160Y-137236485D02*
X199289160Y-136903152D01*
X199289160Y-136903152D02*
X199336779Y-136712676D01*
X199336779Y-136712676D02*
X199432017Y-136617438D01*
X199432017Y-136617438D02*
X199527255Y-136569819D01*
X200384398Y-137569819D02*
X200384398Y-136569819D01*
X200384398Y-136569819D02*
X200955826Y-137569819D01*
X200955826Y-137569819D02*
X200955826Y-136569819D01*
X201289160Y-136569819D02*
X201860588Y-136569819D01*
X201574874Y-137569819D02*
X201574874Y-136569819D01*
X202765350Y-137569819D02*
X202432017Y-137093628D01*
X202193922Y-137569819D02*
X202193922Y-136569819D01*
X202193922Y-136569819D02*
X202574874Y-136569819D01*
X202574874Y-136569819D02*
X202670112Y-136617438D01*
X202670112Y-136617438D02*
X202717731Y-136665057D01*
X202717731Y-136665057D02*
X202765350Y-136760295D01*
X202765350Y-136760295D02*
X202765350Y-136903152D01*
X202765350Y-136903152D02*
X202717731Y-136998390D01*
X202717731Y-136998390D02*
X202670112Y-137046009D01*
X202670112Y-137046009D02*
X202574874Y-137093628D01*
X202574874Y-137093628D02*
X202193922Y-137093628D01*
X203384398Y-136569819D02*
X203574874Y-136569819D01*
X203574874Y-136569819D02*
X203670112Y-136617438D01*
X203670112Y-136617438D02*
X203765350Y-136712676D01*
X203765350Y-136712676D02*
X203812969Y-136903152D01*
X203812969Y-136903152D02*
X203812969Y-137236485D01*
X203812969Y-137236485D02*
X203765350Y-137426961D01*
X203765350Y-137426961D02*
X203670112Y-137522200D01*
X203670112Y-137522200D02*
X203574874Y-137569819D01*
X203574874Y-137569819D02*
X203384398Y-137569819D01*
X203384398Y-137569819D02*
X203289160Y-137522200D01*
X203289160Y-137522200D02*
X203193922Y-137426961D01*
X203193922Y-137426961D02*
X203146303Y-137236485D01*
X203146303Y-137236485D02*
X203146303Y-136903152D01*
X203146303Y-136903152D02*
X203193922Y-136712676D01*
X203193922Y-136712676D02*
X203289160Y-136617438D01*
X203289160Y-136617438D02*
X203384398Y-136569819D01*
X204717731Y-137569819D02*
X204241541Y-137569819D01*
X204241541Y-137569819D02*
X204241541Y-136569819D01*
X205003446Y-137284104D02*
X205479636Y-137284104D01*
X204908208Y-137569819D02*
X205241541Y-136569819D01*
X205241541Y-136569819D02*
X205574874Y-137569819D01*
X205908208Y-137569819D02*
X205908208Y-136569819D01*
X205908208Y-136569819D02*
X206146303Y-136569819D01*
X206146303Y-136569819D02*
X206289160Y-136617438D01*
X206289160Y-136617438D02*
X206384398Y-136712676D01*
X206384398Y-136712676D02*
X206432017Y-136807914D01*
X206432017Y-136807914D02*
X206479636Y-136998390D01*
X206479636Y-136998390D02*
X206479636Y-137141247D01*
X206479636Y-137141247D02*
X206432017Y-137331723D01*
X206432017Y-137331723D02*
X206384398Y-137426961D01*
X206384398Y-137426961D02*
X206289160Y-137522200D01*
X206289160Y-137522200D02*
X206146303Y-137569819D01*
X206146303Y-137569819D02*
X205908208Y-137569819D01*
X207098684Y-136569819D02*
X207289160Y-136569819D01*
X207289160Y-136569819D02*
X207384398Y-136617438D01*
X207384398Y-136617438D02*
X207479636Y-136712676D01*
X207479636Y-136712676D02*
X207527255Y-136903152D01*
X207527255Y-136903152D02*
X207527255Y-137236485D01*
X207527255Y-137236485D02*
X207479636Y-137426961D01*
X207479636Y-137426961D02*
X207384398Y-137522200D01*
X207384398Y-137522200D02*
X207289160Y-137569819D01*
X207289160Y-137569819D02*
X207098684Y-137569819D01*
X207098684Y-137569819D02*
X207003446Y-137522200D01*
X207003446Y-137522200D02*
X206908208Y-137426961D01*
X206908208Y-137426961D02*
X206860589Y-137236485D01*
X206860589Y-137236485D02*
X206860589Y-136903152D01*
X206860589Y-136903152D02*
X206908208Y-136712676D01*
X206908208Y-136712676D02*
X207003446Y-136617438D01*
X207003446Y-136617438D02*
X207098684Y-136569819D01*
X208527255Y-137569819D02*
X208193922Y-137093628D01*
X207955827Y-137569819D02*
X207955827Y-136569819D01*
X207955827Y-136569819D02*
X208336779Y-136569819D01*
X208336779Y-136569819D02*
X208432017Y-136617438D01*
X208432017Y-136617438D02*
X208479636Y-136665057D01*
X208479636Y-136665057D02*
X208527255Y-136760295D01*
X208527255Y-136760295D02*
X208527255Y-136903152D01*
X208527255Y-136903152D02*
X208479636Y-136998390D01*
X208479636Y-136998390D02*
X208432017Y-137046009D01*
X208432017Y-137046009D02*
X208336779Y-137093628D01*
X208336779Y-137093628D02*
X207955827Y-137093628D01*
X225253922Y-86269819D02*
X225825350Y-86269819D01*
X225539636Y-87269819D02*
X225539636Y-86269819D01*
X226158684Y-86746009D02*
X226492017Y-86746009D01*
X226634874Y-87269819D02*
X226158684Y-87269819D01*
X226158684Y-87269819D02*
X226158684Y-86269819D01*
X226158684Y-86269819D02*
X226634874Y-86269819D01*
X227539636Y-87269819D02*
X227063446Y-87269819D01*
X227063446Y-87269819D02*
X227063446Y-86269819D01*
X227872970Y-86746009D02*
X228206303Y-86746009D01*
X228349160Y-87269819D02*
X227872970Y-87269819D01*
X227872970Y-87269819D02*
X227872970Y-86269819D01*
X227872970Y-86269819D02*
X228349160Y-86269819D01*
X228777732Y-87269819D02*
X228777732Y-86269819D01*
X228777732Y-86269819D02*
X229111065Y-86984104D01*
X229111065Y-86984104D02*
X229444398Y-86269819D01*
X229444398Y-86269819D02*
X229444398Y-87269819D01*
X229920589Y-86746009D02*
X230253922Y-86746009D01*
X230396779Y-87269819D02*
X229920589Y-87269819D01*
X229920589Y-87269819D02*
X229920589Y-86269819D01*
X229920589Y-86269819D02*
X230396779Y-86269819D01*
X230682494Y-86269819D02*
X231253922Y-86269819D01*
X230968208Y-87269819D02*
X230968208Y-86269819D01*
X232158684Y-87269819D02*
X231825351Y-86793628D01*
X231587256Y-87269819D02*
X231587256Y-86269819D01*
X231587256Y-86269819D02*
X231968208Y-86269819D01*
X231968208Y-86269819D02*
X232063446Y-86317438D01*
X232063446Y-86317438D02*
X232111065Y-86365057D01*
X232111065Y-86365057D02*
X232158684Y-86460295D01*
X232158684Y-86460295D02*
X232158684Y-86603152D01*
X232158684Y-86603152D02*
X232111065Y-86698390D01*
X232111065Y-86698390D02*
X232063446Y-86746009D01*
X232063446Y-86746009D02*
X231968208Y-86793628D01*
X231968208Y-86793628D02*
X231587256Y-86793628D01*
X232587256Y-87269819D02*
X232587256Y-86269819D01*
X232682494Y-85888866D02*
X232539637Y-86031723D01*
X233015827Y-86984104D02*
X233492017Y-86984104D01*
X232920589Y-87269819D02*
X233253922Y-86269819D01*
X233253922Y-86269819D02*
X233587255Y-87269819D01*
X173766667Y-49979819D02*
X174100000Y-50979819D01*
X174100000Y-50979819D02*
X174433333Y-49979819D01*
X175338095Y-50884580D02*
X175290476Y-50932200D01*
X175290476Y-50932200D02*
X175147619Y-50979819D01*
X175147619Y-50979819D02*
X175052381Y-50979819D01*
X175052381Y-50979819D02*
X174909524Y-50932200D01*
X174909524Y-50932200D02*
X174814286Y-50836961D01*
X174814286Y-50836961D02*
X174766667Y-50741723D01*
X174766667Y-50741723D02*
X174719048Y-50551247D01*
X174719048Y-50551247D02*
X174719048Y-50408390D01*
X174719048Y-50408390D02*
X174766667Y-50217914D01*
X174766667Y-50217914D02*
X174814286Y-50122676D01*
X174814286Y-50122676D02*
X174909524Y-50027438D01*
X174909524Y-50027438D02*
X175052381Y-49979819D01*
X175052381Y-49979819D02*
X175147619Y-49979819D01*
X175147619Y-49979819D02*
X175290476Y-50027438D01*
X175290476Y-50027438D02*
X175338095Y-50075057D01*
X176338095Y-50884580D02*
X176290476Y-50932200D01*
X176290476Y-50932200D02*
X176147619Y-50979819D01*
X176147619Y-50979819D02*
X176052381Y-50979819D01*
X176052381Y-50979819D02*
X175909524Y-50932200D01*
X175909524Y-50932200D02*
X175814286Y-50836961D01*
X175814286Y-50836961D02*
X175766667Y-50741723D01*
X175766667Y-50741723D02*
X175719048Y-50551247D01*
X175719048Y-50551247D02*
X175719048Y-50408390D01*
X175719048Y-50408390D02*
X175766667Y-50217914D01*
X175766667Y-50217914D02*
X175814286Y-50122676D01*
X175814286Y-50122676D02*
X175909524Y-50027438D01*
X175909524Y-50027438D02*
X176052381Y-49979819D01*
X176052381Y-49979819D02*
X176147619Y-49979819D01*
X176147619Y-49979819D02*
X176290476Y-50027438D01*
X176290476Y-50027438D02*
X176338095Y-50075057D01*
X174538095Y-52952438D02*
X174442857Y-52904819D01*
X174442857Y-52904819D02*
X174300000Y-52904819D01*
X174300000Y-52904819D02*
X174157143Y-52952438D01*
X174157143Y-52952438D02*
X174061905Y-53047676D01*
X174061905Y-53047676D02*
X174014286Y-53142914D01*
X174014286Y-53142914D02*
X173966667Y-53333390D01*
X173966667Y-53333390D02*
X173966667Y-53476247D01*
X173966667Y-53476247D02*
X174014286Y-53666723D01*
X174014286Y-53666723D02*
X174061905Y-53761961D01*
X174061905Y-53761961D02*
X174157143Y-53857200D01*
X174157143Y-53857200D02*
X174300000Y-53904819D01*
X174300000Y-53904819D02*
X174395238Y-53904819D01*
X174395238Y-53904819D02*
X174538095Y-53857200D01*
X174538095Y-53857200D02*
X174585714Y-53809580D01*
X174585714Y-53809580D02*
X174585714Y-53476247D01*
X174585714Y-53476247D02*
X174395238Y-53476247D01*
X175014286Y-53904819D02*
X175014286Y-52904819D01*
X175014286Y-52904819D02*
X175585714Y-53904819D01*
X175585714Y-53904819D02*
X175585714Y-52904819D01*
X176061905Y-53904819D02*
X176061905Y-52904819D01*
X176061905Y-52904819D02*
X176300000Y-52904819D01*
X176300000Y-52904819D02*
X176442857Y-52952438D01*
X176442857Y-52952438D02*
X176538095Y-53047676D01*
X176538095Y-53047676D02*
X176585714Y-53142914D01*
X176585714Y-53142914D02*
X176633333Y-53333390D01*
X176633333Y-53333390D02*
X176633333Y-53476247D01*
X176633333Y-53476247D02*
X176585714Y-53666723D01*
X176585714Y-53666723D02*
X176538095Y-53761961D01*
X176538095Y-53761961D02*
X176442857Y-53857200D01*
X176442857Y-53857200D02*
X176300000Y-53904819D01*
X176300000Y-53904819D02*
X176061905Y-53904819D01*
X171205647Y-132677535D02*
X170205647Y-132677535D01*
X170205647Y-132677535D02*
X171205647Y-132106107D01*
X171205647Y-132106107D02*
X170205647Y-132106107D01*
X171205647Y-131106107D02*
X171205647Y-131677535D01*
X171205647Y-131391821D02*
X170205647Y-131391821D01*
X170205647Y-131391821D02*
X170348504Y-131487059D01*
X170348504Y-131487059D02*
X170443742Y-131582297D01*
X170443742Y-131582297D02*
X170491361Y-131677535D01*
X186563333Y-141539580D02*
X186515714Y-141587200D01*
X186515714Y-141587200D02*
X186372857Y-141634819D01*
X186372857Y-141634819D02*
X186277619Y-141634819D01*
X186277619Y-141634819D02*
X186134762Y-141587200D01*
X186134762Y-141587200D02*
X186039524Y-141491961D01*
X186039524Y-141491961D02*
X185991905Y-141396723D01*
X185991905Y-141396723D02*
X185944286Y-141206247D01*
X185944286Y-141206247D02*
X185944286Y-141063390D01*
X185944286Y-141063390D02*
X185991905Y-140872914D01*
X185991905Y-140872914D02*
X186039524Y-140777676D01*
X186039524Y-140777676D02*
X186134762Y-140682438D01*
X186134762Y-140682438D02*
X186277619Y-140634819D01*
X186277619Y-140634819D02*
X186372857Y-140634819D01*
X186372857Y-140634819D02*
X186515714Y-140682438D01*
X186515714Y-140682438D02*
X186563333Y-140730057D01*
X187515714Y-141634819D02*
X186944286Y-141634819D01*
X187230000Y-141634819D02*
X187230000Y-140634819D01*
X187230000Y-140634819D02*
X187134762Y-140777676D01*
X187134762Y-140777676D02*
X187039524Y-140872914D01*
X187039524Y-140872914D02*
X186944286Y-140920533D01*
D12*
X185456666Y-142044895D02*
X185951904Y-142044895D01*
X185951904Y-142044895D02*
X185685238Y-142349657D01*
X185685238Y-142349657D02*
X185799523Y-142349657D01*
X185799523Y-142349657D02*
X185875714Y-142387752D01*
X185875714Y-142387752D02*
X185913809Y-142425847D01*
X185913809Y-142425847D02*
X185951904Y-142502038D01*
X185951904Y-142502038D02*
X185951904Y-142692514D01*
X185951904Y-142692514D02*
X185913809Y-142768704D01*
X185913809Y-142768704D02*
X185875714Y-142806800D01*
X185875714Y-142806800D02*
X185799523Y-142844895D01*
X185799523Y-142844895D02*
X185570952Y-142844895D01*
X185570952Y-142844895D02*
X185494761Y-142806800D01*
X185494761Y-142806800D02*
X185456666Y-142768704D01*
X186218571Y-142044895D02*
X186713809Y-142044895D01*
X186713809Y-142044895D02*
X186447143Y-142349657D01*
X186447143Y-142349657D02*
X186561428Y-142349657D01*
X186561428Y-142349657D02*
X186637619Y-142387752D01*
X186637619Y-142387752D02*
X186675714Y-142425847D01*
X186675714Y-142425847D02*
X186713809Y-142502038D01*
X186713809Y-142502038D02*
X186713809Y-142692514D01*
X186713809Y-142692514D02*
X186675714Y-142768704D01*
X186675714Y-142768704D02*
X186637619Y-142806800D01*
X186637619Y-142806800D02*
X186561428Y-142844895D01*
X186561428Y-142844895D02*
X186332857Y-142844895D01*
X186332857Y-142844895D02*
X186256666Y-142806800D01*
X186256666Y-142806800D02*
X186218571Y-142768704D01*
X187209048Y-142044895D02*
X187285238Y-142044895D01*
X187285238Y-142044895D02*
X187361429Y-142082990D01*
X187361429Y-142082990D02*
X187399524Y-142121085D01*
X187399524Y-142121085D02*
X187437619Y-142197276D01*
X187437619Y-142197276D02*
X187475714Y-142349657D01*
X187475714Y-142349657D02*
X187475714Y-142540133D01*
X187475714Y-142540133D02*
X187437619Y-142692514D01*
X187437619Y-142692514D02*
X187399524Y-142768704D01*
X187399524Y-142768704D02*
X187361429Y-142806800D01*
X187361429Y-142806800D02*
X187285238Y-142844895D01*
X187285238Y-142844895D02*
X187209048Y-142844895D01*
X187209048Y-142844895D02*
X187132857Y-142806800D01*
X187132857Y-142806800D02*
X187094762Y-142768704D01*
X187094762Y-142768704D02*
X187056667Y-142692514D01*
X187056667Y-142692514D02*
X187018571Y-142540133D01*
X187018571Y-142540133D02*
X187018571Y-142349657D01*
X187018571Y-142349657D02*
X187056667Y-142197276D01*
X187056667Y-142197276D02*
X187094762Y-142121085D01*
X187094762Y-142121085D02*
X187132857Y-142082990D01*
X187132857Y-142082990D02*
X187209048Y-142044895D01*
X187818572Y-142311561D02*
X187818572Y-142844895D01*
X187818572Y-142387752D02*
X187856667Y-142349657D01*
X187856667Y-142349657D02*
X187932857Y-142311561D01*
X187932857Y-142311561D02*
X188047143Y-142311561D01*
X188047143Y-142311561D02*
X188123334Y-142349657D01*
X188123334Y-142349657D02*
X188161429Y-142425847D01*
X188161429Y-142425847D02*
X188161429Y-142844895D01*
X188809048Y-142425847D02*
X188542382Y-142425847D01*
X188542382Y-142844895D02*
X188542382Y-142044895D01*
X188542382Y-142044895D02*
X188923334Y-142044895D01*
D11*
X132939524Y-77524819D02*
X133510952Y-77524819D01*
X133225238Y-78524819D02*
X133225238Y-77524819D01*
X133844286Y-78524819D02*
X133844286Y-77524819D01*
X133844286Y-77524819D02*
X134225238Y-77524819D01*
X134225238Y-77524819D02*
X134320476Y-77572438D01*
X134320476Y-77572438D02*
X134368095Y-77620057D01*
X134368095Y-77620057D02*
X134415714Y-77715295D01*
X134415714Y-77715295D02*
X134415714Y-77858152D01*
X134415714Y-77858152D02*
X134368095Y-77953390D01*
X134368095Y-77953390D02*
X134320476Y-78001009D01*
X134320476Y-78001009D02*
X134225238Y-78048628D01*
X134225238Y-78048628D02*
X133844286Y-78048628D01*
X134606191Y-78620057D02*
X135368095Y-78620057D01*
X136130000Y-77572438D02*
X136034762Y-77524819D01*
X136034762Y-77524819D02*
X135891905Y-77524819D01*
X135891905Y-77524819D02*
X135749048Y-77572438D01*
X135749048Y-77572438D02*
X135653810Y-77667676D01*
X135653810Y-77667676D02*
X135606191Y-77762914D01*
X135606191Y-77762914D02*
X135558572Y-77953390D01*
X135558572Y-77953390D02*
X135558572Y-78096247D01*
X135558572Y-78096247D02*
X135606191Y-78286723D01*
X135606191Y-78286723D02*
X135653810Y-78381961D01*
X135653810Y-78381961D02*
X135749048Y-78477200D01*
X135749048Y-78477200D02*
X135891905Y-78524819D01*
X135891905Y-78524819D02*
X135987143Y-78524819D01*
X135987143Y-78524819D02*
X136130000Y-78477200D01*
X136130000Y-78477200D02*
X136177619Y-78429580D01*
X136177619Y-78429580D02*
X136177619Y-78096247D01*
X136177619Y-78096247D02*
X135987143Y-78096247D01*
X136606191Y-78524819D02*
X136606191Y-77524819D01*
X136606191Y-77524819D02*
X137177619Y-78524819D01*
X137177619Y-78524819D02*
X137177619Y-77524819D01*
X137653810Y-78524819D02*
X137653810Y-77524819D01*
X137653810Y-77524819D02*
X137891905Y-77524819D01*
X137891905Y-77524819D02*
X138034762Y-77572438D01*
X138034762Y-77572438D02*
X138130000Y-77667676D01*
X138130000Y-77667676D02*
X138177619Y-77762914D01*
X138177619Y-77762914D02*
X138225238Y-77953390D01*
X138225238Y-77953390D02*
X138225238Y-78096247D01*
X138225238Y-78096247D02*
X138177619Y-78286723D01*
X138177619Y-78286723D02*
X138130000Y-78381961D01*
X138130000Y-78381961D02*
X138034762Y-78477200D01*
X138034762Y-78477200D02*
X137891905Y-78524819D01*
X137891905Y-78524819D02*
X137653810Y-78524819D01*
X191113333Y-134449580D02*
X191065714Y-134497200D01*
X191065714Y-134497200D02*
X190922857Y-134544819D01*
X190922857Y-134544819D02*
X190827619Y-134544819D01*
X190827619Y-134544819D02*
X190684762Y-134497200D01*
X190684762Y-134497200D02*
X190589524Y-134401961D01*
X190589524Y-134401961D02*
X190541905Y-134306723D01*
X190541905Y-134306723D02*
X190494286Y-134116247D01*
X190494286Y-134116247D02*
X190494286Y-133973390D01*
X190494286Y-133973390D02*
X190541905Y-133782914D01*
X190541905Y-133782914D02*
X190589524Y-133687676D01*
X190589524Y-133687676D02*
X190684762Y-133592438D01*
X190684762Y-133592438D02*
X190827619Y-133544819D01*
X190827619Y-133544819D02*
X190922857Y-133544819D01*
X190922857Y-133544819D02*
X191065714Y-133592438D01*
X191065714Y-133592438D02*
X191113333Y-133640057D01*
X191446667Y-133544819D02*
X192065714Y-133544819D01*
X192065714Y-133544819D02*
X191732381Y-133925771D01*
X191732381Y-133925771D02*
X191875238Y-133925771D01*
X191875238Y-133925771D02*
X191970476Y-133973390D01*
X191970476Y-133973390D02*
X192018095Y-134021009D01*
X192018095Y-134021009D02*
X192065714Y-134116247D01*
X192065714Y-134116247D02*
X192065714Y-134354342D01*
X192065714Y-134354342D02*
X192018095Y-134449580D01*
X192018095Y-134449580D02*
X191970476Y-134497200D01*
X191970476Y-134497200D02*
X191875238Y-134544819D01*
X191875238Y-134544819D02*
X191589524Y-134544819D01*
X191589524Y-134544819D02*
X191494286Y-134497200D01*
X191494286Y-134497200D02*
X191446667Y-134449580D01*
D12*
X190345714Y-135331561D02*
X190345714Y-135864895D01*
X190155238Y-135026800D02*
X189964761Y-135598228D01*
X189964761Y-135598228D02*
X190460000Y-135598228D01*
X190688571Y-135064895D02*
X191221905Y-135064895D01*
X191221905Y-135064895D02*
X190879047Y-135864895D01*
X191679048Y-135064895D02*
X191755238Y-135064895D01*
X191755238Y-135064895D02*
X191831429Y-135102990D01*
X191831429Y-135102990D02*
X191869524Y-135141085D01*
X191869524Y-135141085D02*
X191907619Y-135217276D01*
X191907619Y-135217276D02*
X191945714Y-135369657D01*
X191945714Y-135369657D02*
X191945714Y-135560133D01*
X191945714Y-135560133D02*
X191907619Y-135712514D01*
X191907619Y-135712514D02*
X191869524Y-135788704D01*
X191869524Y-135788704D02*
X191831429Y-135826800D01*
X191831429Y-135826800D02*
X191755238Y-135864895D01*
X191755238Y-135864895D02*
X191679048Y-135864895D01*
X191679048Y-135864895D02*
X191602857Y-135826800D01*
X191602857Y-135826800D02*
X191564762Y-135788704D01*
X191564762Y-135788704D02*
X191526667Y-135712514D01*
X191526667Y-135712514D02*
X191488571Y-135560133D01*
X191488571Y-135560133D02*
X191488571Y-135369657D01*
X191488571Y-135369657D02*
X191526667Y-135217276D01*
X191526667Y-135217276D02*
X191564762Y-135141085D01*
X191564762Y-135141085D02*
X191602857Y-135102990D01*
X191602857Y-135102990D02*
X191679048Y-135064895D01*
X192288572Y-135331561D02*
X192288572Y-135864895D01*
X192288572Y-135407752D02*
X192326667Y-135369657D01*
X192326667Y-135369657D02*
X192402857Y-135331561D01*
X192402857Y-135331561D02*
X192517143Y-135331561D01*
X192517143Y-135331561D02*
X192593334Y-135369657D01*
X192593334Y-135369657D02*
X192631429Y-135445847D01*
X192631429Y-135445847D02*
X192631429Y-135864895D01*
X193279048Y-135445847D02*
X193012382Y-135445847D01*
X193012382Y-135864895D02*
X193012382Y-135064895D01*
X193012382Y-135064895D02*
X193393334Y-135064895D01*
D11*
X199312381Y-141444819D02*
X199883809Y-141444819D01*
X199598095Y-142444819D02*
X199598095Y-141444819D01*
X200217143Y-142444819D02*
X200217143Y-141444819D01*
X200217143Y-141444819D02*
X200598095Y-141444819D01*
X200598095Y-141444819D02*
X200693333Y-141492438D01*
X200693333Y-141492438D02*
X200740952Y-141540057D01*
X200740952Y-141540057D02*
X200788571Y-141635295D01*
X200788571Y-141635295D02*
X200788571Y-141778152D01*
X200788571Y-141778152D02*
X200740952Y-141873390D01*
X200740952Y-141873390D02*
X200693333Y-141921009D01*
X200693333Y-141921009D02*
X200598095Y-141968628D01*
X200598095Y-141968628D02*
X200217143Y-141968628D01*
X200979048Y-142540057D02*
X201740952Y-142540057D01*
X201883810Y-141444819D02*
X202502857Y-141444819D01*
X202502857Y-141444819D02*
X202169524Y-141825771D01*
X202169524Y-141825771D02*
X202312381Y-141825771D01*
X202312381Y-141825771D02*
X202407619Y-141873390D01*
X202407619Y-141873390D02*
X202455238Y-141921009D01*
X202455238Y-141921009D02*
X202502857Y-142016247D01*
X202502857Y-142016247D02*
X202502857Y-142254342D01*
X202502857Y-142254342D02*
X202455238Y-142349580D01*
X202455238Y-142349580D02*
X202407619Y-142397200D01*
X202407619Y-142397200D02*
X202312381Y-142444819D01*
X202312381Y-142444819D02*
X202026667Y-142444819D01*
X202026667Y-142444819D02*
X201931429Y-142397200D01*
X201931429Y-142397200D02*
X201883810Y-142349580D01*
X202788572Y-141444819D02*
X203121905Y-142444819D01*
X203121905Y-142444819D02*
X203455238Y-141444819D01*
X203693334Y-141444819D02*
X204312381Y-141444819D01*
X204312381Y-141444819D02*
X203979048Y-141825771D01*
X203979048Y-141825771D02*
X204121905Y-141825771D01*
X204121905Y-141825771D02*
X204217143Y-141873390D01*
X204217143Y-141873390D02*
X204264762Y-141921009D01*
X204264762Y-141921009D02*
X204312381Y-142016247D01*
X204312381Y-142016247D02*
X204312381Y-142254342D01*
X204312381Y-142254342D02*
X204264762Y-142349580D01*
X204264762Y-142349580D02*
X204217143Y-142397200D01*
X204217143Y-142397200D02*
X204121905Y-142444819D01*
X204121905Y-142444819D02*
X203836191Y-142444819D01*
X203836191Y-142444819D02*
X203740953Y-142397200D01*
X203740953Y-142397200D02*
X203693334Y-142349580D01*
X85407142Y-61049580D02*
X85359523Y-61097200D01*
X85359523Y-61097200D02*
X85216666Y-61144819D01*
X85216666Y-61144819D02*
X85121428Y-61144819D01*
X85121428Y-61144819D02*
X84978571Y-61097200D01*
X84978571Y-61097200D02*
X84883333Y-61001961D01*
X84883333Y-61001961D02*
X84835714Y-60906723D01*
X84835714Y-60906723D02*
X84788095Y-60716247D01*
X84788095Y-60716247D02*
X84788095Y-60573390D01*
X84788095Y-60573390D02*
X84835714Y-60382914D01*
X84835714Y-60382914D02*
X84883333Y-60287676D01*
X84883333Y-60287676D02*
X84978571Y-60192438D01*
X84978571Y-60192438D02*
X85121428Y-60144819D01*
X85121428Y-60144819D02*
X85216666Y-60144819D01*
X85216666Y-60144819D02*
X85359523Y-60192438D01*
X85359523Y-60192438D02*
X85407142Y-60240057D01*
X86359523Y-61144819D02*
X85788095Y-61144819D01*
X86073809Y-61144819D02*
X86073809Y-60144819D01*
X86073809Y-60144819D02*
X85978571Y-60287676D01*
X85978571Y-60287676D02*
X85883333Y-60382914D01*
X85883333Y-60382914D02*
X85788095Y-60430533D01*
X86692857Y-60144819D02*
X87311904Y-60144819D01*
X87311904Y-60144819D02*
X86978571Y-60525771D01*
X86978571Y-60525771D02*
X87121428Y-60525771D01*
X87121428Y-60525771D02*
X87216666Y-60573390D01*
X87216666Y-60573390D02*
X87264285Y-60621009D01*
X87264285Y-60621009D02*
X87311904Y-60716247D01*
X87311904Y-60716247D02*
X87311904Y-60954342D01*
X87311904Y-60954342D02*
X87264285Y-61049580D01*
X87264285Y-61049580D02*
X87216666Y-61097200D01*
X87216666Y-61097200D02*
X87121428Y-61144819D01*
X87121428Y-61144819D02*
X86835714Y-61144819D01*
X86835714Y-61144819D02*
X86740476Y-61097200D01*
X86740476Y-61097200D02*
X86692857Y-61049580D01*
D12*
X81071904Y-60994895D02*
X80614761Y-60994895D01*
X80843333Y-60994895D02*
X80843333Y-60194895D01*
X80843333Y-60194895D02*
X80767142Y-60309180D01*
X80767142Y-60309180D02*
X80690952Y-60385371D01*
X80690952Y-60385371D02*
X80614761Y-60423466D01*
X81567143Y-60194895D02*
X81643333Y-60194895D01*
X81643333Y-60194895D02*
X81719524Y-60232990D01*
X81719524Y-60232990D02*
X81757619Y-60271085D01*
X81757619Y-60271085D02*
X81795714Y-60347276D01*
X81795714Y-60347276D02*
X81833809Y-60499657D01*
X81833809Y-60499657D02*
X81833809Y-60690133D01*
X81833809Y-60690133D02*
X81795714Y-60842514D01*
X81795714Y-60842514D02*
X81757619Y-60918704D01*
X81757619Y-60918704D02*
X81719524Y-60956800D01*
X81719524Y-60956800D02*
X81643333Y-60994895D01*
X81643333Y-60994895D02*
X81567143Y-60994895D01*
X81567143Y-60994895D02*
X81490952Y-60956800D01*
X81490952Y-60956800D02*
X81452857Y-60918704D01*
X81452857Y-60918704D02*
X81414762Y-60842514D01*
X81414762Y-60842514D02*
X81376666Y-60690133D01*
X81376666Y-60690133D02*
X81376666Y-60499657D01*
X81376666Y-60499657D02*
X81414762Y-60347276D01*
X81414762Y-60347276D02*
X81452857Y-60271085D01*
X81452857Y-60271085D02*
X81490952Y-60232990D01*
X81490952Y-60232990D02*
X81567143Y-60194895D01*
X82329048Y-60194895D02*
X82405238Y-60194895D01*
X82405238Y-60194895D02*
X82481429Y-60232990D01*
X82481429Y-60232990D02*
X82519524Y-60271085D01*
X82519524Y-60271085D02*
X82557619Y-60347276D01*
X82557619Y-60347276D02*
X82595714Y-60499657D01*
X82595714Y-60499657D02*
X82595714Y-60690133D01*
X82595714Y-60690133D02*
X82557619Y-60842514D01*
X82557619Y-60842514D02*
X82519524Y-60918704D01*
X82519524Y-60918704D02*
X82481429Y-60956800D01*
X82481429Y-60956800D02*
X82405238Y-60994895D01*
X82405238Y-60994895D02*
X82329048Y-60994895D01*
X82329048Y-60994895D02*
X82252857Y-60956800D01*
X82252857Y-60956800D02*
X82214762Y-60918704D01*
X82214762Y-60918704D02*
X82176667Y-60842514D01*
X82176667Y-60842514D02*
X82138571Y-60690133D01*
X82138571Y-60690133D02*
X82138571Y-60499657D01*
X82138571Y-60499657D02*
X82176667Y-60347276D01*
X82176667Y-60347276D02*
X82214762Y-60271085D01*
X82214762Y-60271085D02*
X82252857Y-60232990D01*
X82252857Y-60232990D02*
X82329048Y-60194895D01*
X82938572Y-60461561D02*
X82938572Y-60994895D01*
X82938572Y-60537752D02*
X82976667Y-60499657D01*
X82976667Y-60499657D02*
X83052857Y-60461561D01*
X83052857Y-60461561D02*
X83167143Y-60461561D01*
X83167143Y-60461561D02*
X83243334Y-60499657D01*
X83243334Y-60499657D02*
X83281429Y-60575847D01*
X83281429Y-60575847D02*
X83281429Y-60994895D01*
X83929048Y-60575847D02*
X83662382Y-60575847D01*
X83662382Y-60994895D02*
X83662382Y-60194895D01*
X83662382Y-60194895D02*
X84043334Y-60194895D01*
D11*
X103347142Y-99449580D02*
X103299523Y-99497200D01*
X103299523Y-99497200D02*
X103156666Y-99544819D01*
X103156666Y-99544819D02*
X103061428Y-99544819D01*
X103061428Y-99544819D02*
X102918571Y-99497200D01*
X102918571Y-99497200D02*
X102823333Y-99401961D01*
X102823333Y-99401961D02*
X102775714Y-99306723D01*
X102775714Y-99306723D02*
X102728095Y-99116247D01*
X102728095Y-99116247D02*
X102728095Y-98973390D01*
X102728095Y-98973390D02*
X102775714Y-98782914D01*
X102775714Y-98782914D02*
X102823333Y-98687676D01*
X102823333Y-98687676D02*
X102918571Y-98592438D01*
X102918571Y-98592438D02*
X103061428Y-98544819D01*
X103061428Y-98544819D02*
X103156666Y-98544819D01*
X103156666Y-98544819D02*
X103299523Y-98592438D01*
X103299523Y-98592438D02*
X103347142Y-98640057D01*
X103728095Y-98640057D02*
X103775714Y-98592438D01*
X103775714Y-98592438D02*
X103870952Y-98544819D01*
X103870952Y-98544819D02*
X104109047Y-98544819D01*
X104109047Y-98544819D02*
X104204285Y-98592438D01*
X104204285Y-98592438D02*
X104251904Y-98640057D01*
X104251904Y-98640057D02*
X104299523Y-98735295D01*
X104299523Y-98735295D02*
X104299523Y-98830533D01*
X104299523Y-98830533D02*
X104251904Y-98973390D01*
X104251904Y-98973390D02*
X103680476Y-99544819D01*
X103680476Y-99544819D02*
X104299523Y-99544819D01*
X105251904Y-99544819D02*
X104680476Y-99544819D01*
X104966190Y-99544819D02*
X104966190Y-98544819D01*
X104966190Y-98544819D02*
X104870952Y-98687676D01*
X104870952Y-98687676D02*
X104775714Y-98782914D01*
X104775714Y-98782914D02*
X104680476Y-98830533D01*
D12*
X102801904Y-100944895D02*
X102344761Y-100944895D01*
X102573333Y-100944895D02*
X102573333Y-100144895D01*
X102573333Y-100144895D02*
X102497142Y-100259180D01*
X102497142Y-100259180D02*
X102420952Y-100335371D01*
X102420952Y-100335371D02*
X102344761Y-100373466D01*
X103297143Y-100144895D02*
X103373333Y-100144895D01*
X103373333Y-100144895D02*
X103449524Y-100182990D01*
X103449524Y-100182990D02*
X103487619Y-100221085D01*
X103487619Y-100221085D02*
X103525714Y-100297276D01*
X103525714Y-100297276D02*
X103563809Y-100449657D01*
X103563809Y-100449657D02*
X103563809Y-100640133D01*
X103563809Y-100640133D02*
X103525714Y-100792514D01*
X103525714Y-100792514D02*
X103487619Y-100868704D01*
X103487619Y-100868704D02*
X103449524Y-100906800D01*
X103449524Y-100906800D02*
X103373333Y-100944895D01*
X103373333Y-100944895D02*
X103297143Y-100944895D01*
X103297143Y-100944895D02*
X103220952Y-100906800D01*
X103220952Y-100906800D02*
X103182857Y-100868704D01*
X103182857Y-100868704D02*
X103144762Y-100792514D01*
X103144762Y-100792514D02*
X103106666Y-100640133D01*
X103106666Y-100640133D02*
X103106666Y-100449657D01*
X103106666Y-100449657D02*
X103144762Y-100297276D01*
X103144762Y-100297276D02*
X103182857Y-100221085D01*
X103182857Y-100221085D02*
X103220952Y-100182990D01*
X103220952Y-100182990D02*
X103297143Y-100144895D01*
X104059048Y-100144895D02*
X104135238Y-100144895D01*
X104135238Y-100144895D02*
X104211429Y-100182990D01*
X104211429Y-100182990D02*
X104249524Y-100221085D01*
X104249524Y-100221085D02*
X104287619Y-100297276D01*
X104287619Y-100297276D02*
X104325714Y-100449657D01*
X104325714Y-100449657D02*
X104325714Y-100640133D01*
X104325714Y-100640133D02*
X104287619Y-100792514D01*
X104287619Y-100792514D02*
X104249524Y-100868704D01*
X104249524Y-100868704D02*
X104211429Y-100906800D01*
X104211429Y-100906800D02*
X104135238Y-100944895D01*
X104135238Y-100944895D02*
X104059048Y-100944895D01*
X104059048Y-100944895D02*
X103982857Y-100906800D01*
X103982857Y-100906800D02*
X103944762Y-100868704D01*
X103944762Y-100868704D02*
X103906667Y-100792514D01*
X103906667Y-100792514D02*
X103868571Y-100640133D01*
X103868571Y-100640133D02*
X103868571Y-100449657D01*
X103868571Y-100449657D02*
X103906667Y-100297276D01*
X103906667Y-100297276D02*
X103944762Y-100221085D01*
X103944762Y-100221085D02*
X103982857Y-100182990D01*
X103982857Y-100182990D02*
X104059048Y-100144895D01*
X105011429Y-100411561D02*
X105011429Y-100944895D01*
X104668572Y-100411561D02*
X104668572Y-100830609D01*
X104668572Y-100830609D02*
X104706667Y-100906800D01*
X104706667Y-100906800D02*
X104782857Y-100944895D01*
X104782857Y-100944895D02*
X104897143Y-100944895D01*
X104897143Y-100944895D02*
X104973334Y-100906800D01*
X104973334Y-100906800D02*
X105011429Y-100868704D01*
X105659048Y-100525847D02*
X105392382Y-100525847D01*
X105392382Y-100944895D02*
X105392382Y-100144895D01*
X105392382Y-100144895D02*
X105773334Y-100144895D01*
D11*
X86007142Y-72609580D02*
X85959523Y-72657200D01*
X85959523Y-72657200D02*
X85816666Y-72704819D01*
X85816666Y-72704819D02*
X85721428Y-72704819D01*
X85721428Y-72704819D02*
X85578571Y-72657200D01*
X85578571Y-72657200D02*
X85483333Y-72561961D01*
X85483333Y-72561961D02*
X85435714Y-72466723D01*
X85435714Y-72466723D02*
X85388095Y-72276247D01*
X85388095Y-72276247D02*
X85388095Y-72133390D01*
X85388095Y-72133390D02*
X85435714Y-71942914D01*
X85435714Y-71942914D02*
X85483333Y-71847676D01*
X85483333Y-71847676D02*
X85578571Y-71752438D01*
X85578571Y-71752438D02*
X85721428Y-71704819D01*
X85721428Y-71704819D02*
X85816666Y-71704819D01*
X85816666Y-71704819D02*
X85959523Y-71752438D01*
X85959523Y-71752438D02*
X86007142Y-71800057D01*
X86959523Y-72704819D02*
X86388095Y-72704819D01*
X86673809Y-72704819D02*
X86673809Y-71704819D01*
X86673809Y-71704819D02*
X86578571Y-71847676D01*
X86578571Y-71847676D02*
X86483333Y-71942914D01*
X86483333Y-71942914D02*
X86388095Y-71990533D01*
X87864285Y-71704819D02*
X87388095Y-71704819D01*
X87388095Y-71704819D02*
X87340476Y-72181009D01*
X87340476Y-72181009D02*
X87388095Y-72133390D01*
X87388095Y-72133390D02*
X87483333Y-72085771D01*
X87483333Y-72085771D02*
X87721428Y-72085771D01*
X87721428Y-72085771D02*
X87816666Y-72133390D01*
X87816666Y-72133390D02*
X87864285Y-72181009D01*
X87864285Y-72181009D02*
X87911904Y-72276247D01*
X87911904Y-72276247D02*
X87911904Y-72514342D01*
X87911904Y-72514342D02*
X87864285Y-72609580D01*
X87864285Y-72609580D02*
X87816666Y-72657200D01*
X87816666Y-72657200D02*
X87721428Y-72704819D01*
X87721428Y-72704819D02*
X87483333Y-72704819D01*
X87483333Y-72704819D02*
X87388095Y-72657200D01*
X87388095Y-72657200D02*
X87340476Y-72609580D01*
D12*
X85601904Y-73804895D02*
X85144761Y-73804895D01*
X85373333Y-73804895D02*
X85373333Y-73004895D01*
X85373333Y-73004895D02*
X85297142Y-73119180D01*
X85297142Y-73119180D02*
X85220952Y-73195371D01*
X85220952Y-73195371D02*
X85144761Y-73233466D01*
X86097143Y-73004895D02*
X86173333Y-73004895D01*
X86173333Y-73004895D02*
X86249524Y-73042990D01*
X86249524Y-73042990D02*
X86287619Y-73081085D01*
X86287619Y-73081085D02*
X86325714Y-73157276D01*
X86325714Y-73157276D02*
X86363809Y-73309657D01*
X86363809Y-73309657D02*
X86363809Y-73500133D01*
X86363809Y-73500133D02*
X86325714Y-73652514D01*
X86325714Y-73652514D02*
X86287619Y-73728704D01*
X86287619Y-73728704D02*
X86249524Y-73766800D01*
X86249524Y-73766800D02*
X86173333Y-73804895D01*
X86173333Y-73804895D02*
X86097143Y-73804895D01*
X86097143Y-73804895D02*
X86020952Y-73766800D01*
X86020952Y-73766800D02*
X85982857Y-73728704D01*
X85982857Y-73728704D02*
X85944762Y-73652514D01*
X85944762Y-73652514D02*
X85906666Y-73500133D01*
X85906666Y-73500133D02*
X85906666Y-73309657D01*
X85906666Y-73309657D02*
X85944762Y-73157276D01*
X85944762Y-73157276D02*
X85982857Y-73081085D01*
X85982857Y-73081085D02*
X86020952Y-73042990D01*
X86020952Y-73042990D02*
X86097143Y-73004895D01*
X86859048Y-73004895D02*
X86935238Y-73004895D01*
X86935238Y-73004895D02*
X87011429Y-73042990D01*
X87011429Y-73042990D02*
X87049524Y-73081085D01*
X87049524Y-73081085D02*
X87087619Y-73157276D01*
X87087619Y-73157276D02*
X87125714Y-73309657D01*
X87125714Y-73309657D02*
X87125714Y-73500133D01*
X87125714Y-73500133D02*
X87087619Y-73652514D01*
X87087619Y-73652514D02*
X87049524Y-73728704D01*
X87049524Y-73728704D02*
X87011429Y-73766800D01*
X87011429Y-73766800D02*
X86935238Y-73804895D01*
X86935238Y-73804895D02*
X86859048Y-73804895D01*
X86859048Y-73804895D02*
X86782857Y-73766800D01*
X86782857Y-73766800D02*
X86744762Y-73728704D01*
X86744762Y-73728704D02*
X86706667Y-73652514D01*
X86706667Y-73652514D02*
X86668571Y-73500133D01*
X86668571Y-73500133D02*
X86668571Y-73309657D01*
X86668571Y-73309657D02*
X86706667Y-73157276D01*
X86706667Y-73157276D02*
X86744762Y-73081085D01*
X86744762Y-73081085D02*
X86782857Y-73042990D01*
X86782857Y-73042990D02*
X86859048Y-73004895D01*
X87811429Y-73271561D02*
X87811429Y-73804895D01*
X87468572Y-73271561D02*
X87468572Y-73690609D01*
X87468572Y-73690609D02*
X87506667Y-73766800D01*
X87506667Y-73766800D02*
X87582857Y-73804895D01*
X87582857Y-73804895D02*
X87697143Y-73804895D01*
X87697143Y-73804895D02*
X87773334Y-73766800D01*
X87773334Y-73766800D02*
X87811429Y-73728704D01*
X88459048Y-73385847D02*
X88192382Y-73385847D01*
X88192382Y-73804895D02*
X88192382Y-73004895D01*
X88192382Y-73004895D02*
X88573334Y-73004895D01*
D11*
X98495687Y-55527377D02*
X98448068Y-55574997D01*
X98448068Y-55574997D02*
X98305211Y-55622616D01*
X98305211Y-55622616D02*
X98209973Y-55622616D01*
X98209973Y-55622616D02*
X98067116Y-55574997D01*
X98067116Y-55574997D02*
X97971878Y-55479758D01*
X97971878Y-55479758D02*
X97924259Y-55384520D01*
X97924259Y-55384520D02*
X97876640Y-55194044D01*
X97876640Y-55194044D02*
X97876640Y-55051187D01*
X97876640Y-55051187D02*
X97924259Y-54860711D01*
X97924259Y-54860711D02*
X97971878Y-54765473D01*
X97971878Y-54765473D02*
X98067116Y-54670235D01*
X98067116Y-54670235D02*
X98209973Y-54622616D01*
X98209973Y-54622616D02*
X98305211Y-54622616D01*
X98305211Y-54622616D02*
X98448068Y-54670235D01*
X98448068Y-54670235D02*
X98495687Y-54717854D01*
X98924259Y-55098806D02*
X99257592Y-55098806D01*
X99400449Y-55622616D02*
X98924259Y-55622616D01*
X98924259Y-55622616D02*
X98924259Y-54622616D01*
X98924259Y-54622616D02*
X99400449Y-54622616D01*
X96826640Y-53024997D02*
X96969497Y-53072616D01*
X96969497Y-53072616D02*
X97207592Y-53072616D01*
X97207592Y-53072616D02*
X97302830Y-53024997D01*
X97302830Y-53024997D02*
X97350449Y-52977377D01*
X97350449Y-52977377D02*
X97398068Y-52882139D01*
X97398068Y-52882139D02*
X97398068Y-52786901D01*
X97398068Y-52786901D02*
X97350449Y-52691663D01*
X97350449Y-52691663D02*
X97302830Y-52644044D01*
X97302830Y-52644044D02*
X97207592Y-52596425D01*
X97207592Y-52596425D02*
X97017116Y-52548806D01*
X97017116Y-52548806D02*
X96921878Y-52501187D01*
X96921878Y-52501187D02*
X96874259Y-52453568D01*
X96874259Y-52453568D02*
X96826640Y-52358330D01*
X96826640Y-52358330D02*
X96826640Y-52263092D01*
X96826640Y-52263092D02*
X96874259Y-52167854D01*
X96874259Y-52167854D02*
X96921878Y-52120235D01*
X96921878Y-52120235D02*
X97017116Y-52072616D01*
X97017116Y-52072616D02*
X97255211Y-52072616D01*
X97255211Y-52072616D02*
X97398068Y-52120235D01*
X98398068Y-52977377D02*
X98350449Y-53024997D01*
X98350449Y-53024997D02*
X98207592Y-53072616D01*
X98207592Y-53072616D02*
X98112354Y-53072616D01*
X98112354Y-53072616D02*
X97969497Y-53024997D01*
X97969497Y-53024997D02*
X97874259Y-52929758D01*
X97874259Y-52929758D02*
X97826640Y-52834520D01*
X97826640Y-52834520D02*
X97779021Y-52644044D01*
X97779021Y-52644044D02*
X97779021Y-52501187D01*
X97779021Y-52501187D02*
X97826640Y-52310711D01*
X97826640Y-52310711D02*
X97874259Y-52215473D01*
X97874259Y-52215473D02*
X97969497Y-52120235D01*
X97969497Y-52120235D02*
X98112354Y-52072616D01*
X98112354Y-52072616D02*
X98207592Y-52072616D01*
X98207592Y-52072616D02*
X98350449Y-52120235D01*
X98350449Y-52120235D02*
X98398068Y-52167854D01*
X98826640Y-53072616D02*
X98826640Y-52072616D01*
X99398068Y-53072616D02*
X98969497Y-52501187D01*
X99398068Y-52072616D02*
X98826640Y-52644044D01*
X85014259Y-53012616D02*
X85014259Y-52012616D01*
X85014259Y-52012616D02*
X85347592Y-52726901D01*
X85347592Y-52726901D02*
X85680925Y-52012616D01*
X85680925Y-52012616D02*
X85680925Y-53012616D01*
X86347592Y-52012616D02*
X86538068Y-52012616D01*
X86538068Y-52012616D02*
X86633306Y-52060235D01*
X86633306Y-52060235D02*
X86728544Y-52155473D01*
X86728544Y-52155473D02*
X86776163Y-52345949D01*
X86776163Y-52345949D02*
X86776163Y-52679282D01*
X86776163Y-52679282D02*
X86728544Y-52869758D01*
X86728544Y-52869758D02*
X86633306Y-52964997D01*
X86633306Y-52964997D02*
X86538068Y-53012616D01*
X86538068Y-53012616D02*
X86347592Y-53012616D01*
X86347592Y-53012616D02*
X86252354Y-52964997D01*
X86252354Y-52964997D02*
X86157116Y-52869758D01*
X86157116Y-52869758D02*
X86109497Y-52679282D01*
X86109497Y-52679282D02*
X86109497Y-52345949D01*
X86109497Y-52345949D02*
X86157116Y-52155473D01*
X86157116Y-52155473D02*
X86252354Y-52060235D01*
X86252354Y-52060235D02*
X86347592Y-52012616D01*
X87157116Y-52964997D02*
X87299973Y-53012616D01*
X87299973Y-53012616D02*
X87538068Y-53012616D01*
X87538068Y-53012616D02*
X87633306Y-52964997D01*
X87633306Y-52964997D02*
X87680925Y-52917377D01*
X87680925Y-52917377D02*
X87728544Y-52822139D01*
X87728544Y-52822139D02*
X87728544Y-52726901D01*
X87728544Y-52726901D02*
X87680925Y-52631663D01*
X87680925Y-52631663D02*
X87633306Y-52584044D01*
X87633306Y-52584044D02*
X87538068Y-52536425D01*
X87538068Y-52536425D02*
X87347592Y-52488806D01*
X87347592Y-52488806D02*
X87252354Y-52441187D01*
X87252354Y-52441187D02*
X87204735Y-52393568D01*
X87204735Y-52393568D02*
X87157116Y-52298330D01*
X87157116Y-52298330D02*
X87157116Y-52203092D01*
X87157116Y-52203092D02*
X87204735Y-52107854D01*
X87204735Y-52107854D02*
X87252354Y-52060235D01*
X87252354Y-52060235D02*
X87347592Y-52012616D01*
X87347592Y-52012616D02*
X87585687Y-52012616D01*
X87585687Y-52012616D02*
X87728544Y-52060235D01*
X88157116Y-53012616D02*
X88157116Y-52012616D01*
X55393922Y-62507616D02*
X55965350Y-62507616D01*
X55679636Y-63507616D02*
X55679636Y-62507616D01*
X56298684Y-62983806D02*
X56632017Y-62983806D01*
X56774874Y-63507616D02*
X56298684Y-63507616D01*
X56298684Y-63507616D02*
X56298684Y-62507616D01*
X56298684Y-62507616D02*
X56774874Y-62507616D01*
X57679636Y-63507616D02*
X57203446Y-63507616D01*
X57203446Y-63507616D02*
X57203446Y-62507616D01*
X58012970Y-62983806D02*
X58346303Y-62983806D01*
X58489160Y-63507616D02*
X58012970Y-63507616D01*
X58012970Y-63507616D02*
X58012970Y-62507616D01*
X58012970Y-62507616D02*
X58489160Y-62507616D01*
X58917732Y-63507616D02*
X58917732Y-62507616D01*
X58917732Y-62507616D02*
X59251065Y-63221901D01*
X59251065Y-63221901D02*
X59584398Y-62507616D01*
X59584398Y-62507616D02*
X59584398Y-63507616D01*
X60060589Y-62983806D02*
X60393922Y-62983806D01*
X60536779Y-63507616D02*
X60060589Y-63507616D01*
X60060589Y-63507616D02*
X60060589Y-62507616D01*
X60060589Y-62507616D02*
X60536779Y-62507616D01*
X60822494Y-62507616D02*
X61393922Y-62507616D01*
X61108208Y-63507616D02*
X61108208Y-62507616D01*
X62298684Y-63507616D02*
X61965351Y-63031425D01*
X61727256Y-63507616D02*
X61727256Y-62507616D01*
X61727256Y-62507616D02*
X62108208Y-62507616D01*
X62108208Y-62507616D02*
X62203446Y-62555235D01*
X62203446Y-62555235D02*
X62251065Y-62602854D01*
X62251065Y-62602854D02*
X62298684Y-62698092D01*
X62298684Y-62698092D02*
X62298684Y-62840949D01*
X62298684Y-62840949D02*
X62251065Y-62936187D01*
X62251065Y-62936187D02*
X62203446Y-62983806D01*
X62203446Y-62983806D02*
X62108208Y-63031425D01*
X62108208Y-63031425D02*
X61727256Y-63031425D01*
X62727256Y-63507616D02*
X62727256Y-62507616D01*
X62822494Y-62126663D02*
X62679637Y-62269520D01*
X63155827Y-63221901D02*
X63632017Y-63221901D01*
X63060589Y-63507616D02*
X63393922Y-62507616D01*
X63393922Y-62507616D02*
X63727255Y-63507616D01*
X85585687Y-55467377D02*
X85538068Y-55514997D01*
X85538068Y-55514997D02*
X85395211Y-55562616D01*
X85395211Y-55562616D02*
X85299973Y-55562616D01*
X85299973Y-55562616D02*
X85157116Y-55514997D01*
X85157116Y-55514997D02*
X85061878Y-55419758D01*
X85061878Y-55419758D02*
X85014259Y-55324520D01*
X85014259Y-55324520D02*
X84966640Y-55134044D01*
X84966640Y-55134044D02*
X84966640Y-54991187D01*
X84966640Y-54991187D02*
X85014259Y-54800711D01*
X85014259Y-54800711D02*
X85061878Y-54705473D01*
X85061878Y-54705473D02*
X85157116Y-54610235D01*
X85157116Y-54610235D02*
X85299973Y-54562616D01*
X85299973Y-54562616D02*
X85395211Y-54562616D01*
X85395211Y-54562616D02*
X85538068Y-54610235D01*
X85538068Y-54610235D02*
X85585687Y-54657854D01*
X85966640Y-55514997D02*
X86109497Y-55562616D01*
X86109497Y-55562616D02*
X86347592Y-55562616D01*
X86347592Y-55562616D02*
X86442830Y-55514997D01*
X86442830Y-55514997D02*
X86490449Y-55467377D01*
X86490449Y-55467377D02*
X86538068Y-55372139D01*
X86538068Y-55372139D02*
X86538068Y-55276901D01*
X86538068Y-55276901D02*
X86490449Y-55181663D01*
X86490449Y-55181663D02*
X86442830Y-55134044D01*
X86442830Y-55134044D02*
X86347592Y-55086425D01*
X86347592Y-55086425D02*
X86157116Y-55038806D01*
X86157116Y-55038806D02*
X86061878Y-54991187D01*
X86061878Y-54991187D02*
X86014259Y-54943568D01*
X86014259Y-54943568D02*
X85966640Y-54848330D01*
X85966640Y-54848330D02*
X85966640Y-54753092D01*
X85966640Y-54753092D02*
X86014259Y-54657854D01*
X86014259Y-54657854D02*
X86061878Y-54610235D01*
X86061878Y-54610235D02*
X86157116Y-54562616D01*
X86157116Y-54562616D02*
X86395211Y-54562616D01*
X86395211Y-54562616D02*
X86538068Y-54610235D01*
X86966640Y-55562616D02*
X86966640Y-54562616D01*
X86966640Y-54562616D02*
X87538068Y-55562616D01*
X87538068Y-55562616D02*
X87538068Y-54562616D01*
X96660588Y-57792438D02*
X96565350Y-57744819D01*
X96565350Y-57744819D02*
X96422493Y-57744819D01*
X96422493Y-57744819D02*
X96279636Y-57792438D01*
X96279636Y-57792438D02*
X96184398Y-57887676D01*
X96184398Y-57887676D02*
X96136779Y-57982914D01*
X96136779Y-57982914D02*
X96089160Y-58173390D01*
X96089160Y-58173390D02*
X96089160Y-58316247D01*
X96089160Y-58316247D02*
X96136779Y-58506723D01*
X96136779Y-58506723D02*
X96184398Y-58601961D01*
X96184398Y-58601961D02*
X96279636Y-58697200D01*
X96279636Y-58697200D02*
X96422493Y-58744819D01*
X96422493Y-58744819D02*
X96517731Y-58744819D01*
X96517731Y-58744819D02*
X96660588Y-58697200D01*
X96660588Y-58697200D02*
X96708207Y-58649580D01*
X96708207Y-58649580D02*
X96708207Y-58316247D01*
X96708207Y-58316247D02*
X96517731Y-58316247D01*
X97136779Y-58744819D02*
X97136779Y-57744819D01*
X97136779Y-57744819D02*
X97708207Y-58744819D01*
X97708207Y-58744819D02*
X97708207Y-57744819D01*
X98184398Y-58744819D02*
X98184398Y-57744819D01*
X98184398Y-57744819D02*
X98422493Y-57744819D01*
X98422493Y-57744819D02*
X98565350Y-57792438D01*
X98565350Y-57792438D02*
X98660588Y-57887676D01*
X98660588Y-57887676D02*
X98708207Y-57982914D01*
X98708207Y-57982914D02*
X98755826Y-58173390D01*
X98755826Y-58173390D02*
X98755826Y-58316247D01*
X98755826Y-58316247D02*
X98708207Y-58506723D01*
X98708207Y-58506723D02*
X98660588Y-58601961D01*
X98660588Y-58601961D02*
X98565350Y-58697200D01*
X98565350Y-58697200D02*
X98422493Y-58744819D01*
X98422493Y-58744819D02*
X98184398Y-58744819D01*
X96174259Y-50472616D02*
X96174259Y-49472616D01*
X96174259Y-49472616D02*
X96507592Y-50186901D01*
X96507592Y-50186901D02*
X96840925Y-49472616D01*
X96840925Y-49472616D02*
X96840925Y-50472616D01*
X97317116Y-50472616D02*
X97317116Y-49472616D01*
X97745687Y-50424997D02*
X97888544Y-50472616D01*
X97888544Y-50472616D02*
X98126639Y-50472616D01*
X98126639Y-50472616D02*
X98221877Y-50424997D01*
X98221877Y-50424997D02*
X98269496Y-50377377D01*
X98269496Y-50377377D02*
X98317115Y-50282139D01*
X98317115Y-50282139D02*
X98317115Y-50186901D01*
X98317115Y-50186901D02*
X98269496Y-50091663D01*
X98269496Y-50091663D02*
X98221877Y-50044044D01*
X98221877Y-50044044D02*
X98126639Y-49996425D01*
X98126639Y-49996425D02*
X97936163Y-49948806D01*
X97936163Y-49948806D02*
X97840925Y-49901187D01*
X97840925Y-49901187D02*
X97793306Y-49853568D01*
X97793306Y-49853568D02*
X97745687Y-49758330D01*
X97745687Y-49758330D02*
X97745687Y-49663092D01*
X97745687Y-49663092D02*
X97793306Y-49567854D01*
X97793306Y-49567854D02*
X97840925Y-49520235D01*
X97840925Y-49520235D02*
X97936163Y-49472616D01*
X97936163Y-49472616D02*
X98174258Y-49472616D01*
X98174258Y-49472616D02*
X98317115Y-49520235D01*
X98936163Y-49472616D02*
X99126639Y-49472616D01*
X99126639Y-49472616D02*
X99221877Y-49520235D01*
X99221877Y-49520235D02*
X99317115Y-49615473D01*
X99317115Y-49615473D02*
X99364734Y-49805949D01*
X99364734Y-49805949D02*
X99364734Y-50139282D01*
X99364734Y-50139282D02*
X99317115Y-50329758D01*
X99317115Y-50329758D02*
X99221877Y-50424997D01*
X99221877Y-50424997D02*
X99126639Y-50472616D01*
X99126639Y-50472616D02*
X98936163Y-50472616D01*
X98936163Y-50472616D02*
X98840925Y-50424997D01*
X98840925Y-50424997D02*
X98745687Y-50329758D01*
X98745687Y-50329758D02*
X98698068Y-50139282D01*
X98698068Y-50139282D02*
X98698068Y-49805949D01*
X98698068Y-49805949D02*
X98745687Y-49615473D01*
X98745687Y-49615473D02*
X98840925Y-49520235D01*
X98840925Y-49520235D02*
X98936163Y-49472616D01*
X84871402Y-57212616D02*
X85204735Y-58212616D01*
X85204735Y-58212616D02*
X85538068Y-57212616D01*
X86442830Y-58117377D02*
X86395211Y-58164997D01*
X86395211Y-58164997D02*
X86252354Y-58212616D01*
X86252354Y-58212616D02*
X86157116Y-58212616D01*
X86157116Y-58212616D02*
X86014259Y-58164997D01*
X86014259Y-58164997D02*
X85919021Y-58069758D01*
X85919021Y-58069758D02*
X85871402Y-57974520D01*
X85871402Y-57974520D02*
X85823783Y-57784044D01*
X85823783Y-57784044D02*
X85823783Y-57641187D01*
X85823783Y-57641187D02*
X85871402Y-57450711D01*
X85871402Y-57450711D02*
X85919021Y-57355473D01*
X85919021Y-57355473D02*
X86014259Y-57260235D01*
X86014259Y-57260235D02*
X86157116Y-57212616D01*
X86157116Y-57212616D02*
X86252354Y-57212616D01*
X86252354Y-57212616D02*
X86395211Y-57260235D01*
X86395211Y-57260235D02*
X86442830Y-57307854D01*
X87442830Y-58117377D02*
X87395211Y-58164997D01*
X87395211Y-58164997D02*
X87252354Y-58212616D01*
X87252354Y-58212616D02*
X87157116Y-58212616D01*
X87157116Y-58212616D02*
X87014259Y-58164997D01*
X87014259Y-58164997D02*
X86919021Y-58069758D01*
X86919021Y-58069758D02*
X86871402Y-57974520D01*
X86871402Y-57974520D02*
X86823783Y-57784044D01*
X86823783Y-57784044D02*
X86823783Y-57641187D01*
X86823783Y-57641187D02*
X86871402Y-57450711D01*
X86871402Y-57450711D02*
X86919021Y-57355473D01*
X86919021Y-57355473D02*
X87014259Y-57260235D01*
X87014259Y-57260235D02*
X87157116Y-57212616D01*
X87157116Y-57212616D02*
X87252354Y-57212616D01*
X87252354Y-57212616D02*
X87395211Y-57260235D01*
X87395211Y-57260235D02*
X87442830Y-57307854D01*
X85014259Y-50512616D02*
X85014259Y-49512616D01*
X86061877Y-50512616D02*
X85728544Y-50036425D01*
X85490449Y-50512616D02*
X85490449Y-49512616D01*
X85490449Y-49512616D02*
X85871401Y-49512616D01*
X85871401Y-49512616D02*
X85966639Y-49560235D01*
X85966639Y-49560235D02*
X86014258Y-49607854D01*
X86014258Y-49607854D02*
X86061877Y-49703092D01*
X86061877Y-49703092D02*
X86061877Y-49845949D01*
X86061877Y-49845949D02*
X86014258Y-49941187D01*
X86014258Y-49941187D02*
X85966639Y-49988806D01*
X85966639Y-49988806D02*
X85871401Y-50036425D01*
X85871401Y-50036425D02*
X85490449Y-50036425D01*
X87157115Y-50607854D02*
X87061877Y-50560235D01*
X87061877Y-50560235D02*
X86966639Y-50464997D01*
X86966639Y-50464997D02*
X86823782Y-50322139D01*
X86823782Y-50322139D02*
X86728544Y-50274520D01*
X86728544Y-50274520D02*
X86633306Y-50274520D01*
X86680925Y-50512616D02*
X86585687Y-50464997D01*
X86585687Y-50464997D02*
X86490449Y-50369758D01*
X86490449Y-50369758D02*
X86442830Y-50179282D01*
X86442830Y-50179282D02*
X86442830Y-49845949D01*
X86442830Y-49845949D02*
X86490449Y-49655473D01*
X86490449Y-49655473D02*
X86585687Y-49560235D01*
X86585687Y-49560235D02*
X86680925Y-49512616D01*
X86680925Y-49512616D02*
X86871401Y-49512616D01*
X86871401Y-49512616D02*
X86966639Y-49560235D01*
X86966639Y-49560235D02*
X87061877Y-49655473D01*
X87061877Y-49655473D02*
X87109496Y-49845949D01*
X87109496Y-49845949D02*
X87109496Y-50179282D01*
X87109496Y-50179282D02*
X87061877Y-50369758D01*
X87061877Y-50369758D02*
X86966639Y-50464997D01*
X86966639Y-50464997D02*
X86871401Y-50512616D01*
X86871401Y-50512616D02*
X86680925Y-50512616D01*
X185691905Y-146444819D02*
X185691905Y-147254342D01*
X185691905Y-147254342D02*
X185739524Y-147349580D01*
X185739524Y-147349580D02*
X185787143Y-147397200D01*
X185787143Y-147397200D02*
X185882381Y-147444819D01*
X185882381Y-147444819D02*
X186072857Y-147444819D01*
X186072857Y-147444819D02*
X186168095Y-147397200D01*
X186168095Y-147397200D02*
X186215714Y-147349580D01*
X186215714Y-147349580D02*
X186263333Y-147254342D01*
X186263333Y-147254342D02*
X186263333Y-146444819D01*
X186691905Y-147397200D02*
X186834762Y-147444819D01*
X186834762Y-147444819D02*
X187072857Y-147444819D01*
X187072857Y-147444819D02*
X187168095Y-147397200D01*
X187168095Y-147397200D02*
X187215714Y-147349580D01*
X187215714Y-147349580D02*
X187263333Y-147254342D01*
X187263333Y-147254342D02*
X187263333Y-147159104D01*
X187263333Y-147159104D02*
X187215714Y-147063866D01*
X187215714Y-147063866D02*
X187168095Y-147016247D01*
X187168095Y-147016247D02*
X187072857Y-146968628D01*
X187072857Y-146968628D02*
X186882381Y-146921009D01*
X186882381Y-146921009D02*
X186787143Y-146873390D01*
X186787143Y-146873390D02*
X186739524Y-146825771D01*
X186739524Y-146825771D02*
X186691905Y-146730533D01*
X186691905Y-146730533D02*
X186691905Y-146635295D01*
X186691905Y-146635295D02*
X186739524Y-146540057D01*
X186739524Y-146540057D02*
X186787143Y-146492438D01*
X186787143Y-146492438D02*
X186882381Y-146444819D01*
X186882381Y-146444819D02*
X187120476Y-146444819D01*
X187120476Y-146444819D02*
X187263333Y-146492438D01*
X188025238Y-146921009D02*
X188168095Y-146968628D01*
X188168095Y-146968628D02*
X188215714Y-147016247D01*
X188215714Y-147016247D02*
X188263333Y-147111485D01*
X188263333Y-147111485D02*
X188263333Y-147254342D01*
X188263333Y-147254342D02*
X188215714Y-147349580D01*
X188215714Y-147349580D02*
X188168095Y-147397200D01*
X188168095Y-147397200D02*
X188072857Y-147444819D01*
X188072857Y-147444819D02*
X187691905Y-147444819D01*
X187691905Y-147444819D02*
X187691905Y-146444819D01*
X187691905Y-146444819D02*
X188025238Y-146444819D01*
X188025238Y-146444819D02*
X188120476Y-146492438D01*
X188120476Y-146492438D02*
X188168095Y-146540057D01*
X188168095Y-146540057D02*
X188215714Y-146635295D01*
X188215714Y-146635295D02*
X188215714Y-146730533D01*
X188215714Y-146730533D02*
X188168095Y-146825771D01*
X188168095Y-146825771D02*
X188120476Y-146873390D01*
X188120476Y-146873390D02*
X188025238Y-146921009D01*
X188025238Y-146921009D02*
X187691905Y-146921009D01*
X189215714Y-147444819D02*
X188644286Y-147444819D01*
X188930000Y-147444819D02*
X188930000Y-146444819D01*
X188930000Y-146444819D02*
X188834762Y-146587676D01*
X188834762Y-146587676D02*
X188739524Y-146682914D01*
X188739524Y-146682914D02*
X188644286Y-146730533D01*
X170969524Y-108194819D02*
X171540952Y-108194819D01*
X171255238Y-109194819D02*
X171255238Y-108194819D01*
X171874286Y-109194819D02*
X171874286Y-108194819D01*
X171874286Y-108194819D02*
X172255238Y-108194819D01*
X172255238Y-108194819D02*
X172350476Y-108242438D01*
X172350476Y-108242438D02*
X172398095Y-108290057D01*
X172398095Y-108290057D02*
X172445714Y-108385295D01*
X172445714Y-108385295D02*
X172445714Y-108528152D01*
X172445714Y-108528152D02*
X172398095Y-108623390D01*
X172398095Y-108623390D02*
X172350476Y-108671009D01*
X172350476Y-108671009D02*
X172255238Y-108718628D01*
X172255238Y-108718628D02*
X171874286Y-108718628D01*
X172636191Y-109290057D02*
X173398095Y-109290057D01*
X174160000Y-108242438D02*
X174064762Y-108194819D01*
X174064762Y-108194819D02*
X173921905Y-108194819D01*
X173921905Y-108194819D02*
X173779048Y-108242438D01*
X173779048Y-108242438D02*
X173683810Y-108337676D01*
X173683810Y-108337676D02*
X173636191Y-108432914D01*
X173636191Y-108432914D02*
X173588572Y-108623390D01*
X173588572Y-108623390D02*
X173588572Y-108766247D01*
X173588572Y-108766247D02*
X173636191Y-108956723D01*
X173636191Y-108956723D02*
X173683810Y-109051961D01*
X173683810Y-109051961D02*
X173779048Y-109147200D01*
X173779048Y-109147200D02*
X173921905Y-109194819D01*
X173921905Y-109194819D02*
X174017143Y-109194819D01*
X174017143Y-109194819D02*
X174160000Y-109147200D01*
X174160000Y-109147200D02*
X174207619Y-109099580D01*
X174207619Y-109099580D02*
X174207619Y-108766247D01*
X174207619Y-108766247D02*
X174017143Y-108766247D01*
X174636191Y-109194819D02*
X174636191Y-108194819D01*
X174636191Y-108194819D02*
X175207619Y-109194819D01*
X175207619Y-109194819D02*
X175207619Y-108194819D01*
X175683810Y-109194819D02*
X175683810Y-108194819D01*
X175683810Y-108194819D02*
X175921905Y-108194819D01*
X175921905Y-108194819D02*
X176064762Y-108242438D01*
X176064762Y-108242438D02*
X176160000Y-108337676D01*
X176160000Y-108337676D02*
X176207619Y-108432914D01*
X176207619Y-108432914D02*
X176255238Y-108623390D01*
X176255238Y-108623390D02*
X176255238Y-108766247D01*
X176255238Y-108766247D02*
X176207619Y-108956723D01*
X176207619Y-108956723D02*
X176160000Y-109051961D01*
X176160000Y-109051961D02*
X176064762Y-109147200D01*
X176064762Y-109147200D02*
X175921905Y-109194819D01*
X175921905Y-109194819D02*
X175683810Y-109194819D01*
X209443333Y-144404580D02*
X209395714Y-144452200D01*
X209395714Y-144452200D02*
X209252857Y-144499819D01*
X209252857Y-144499819D02*
X209157619Y-144499819D01*
X209157619Y-144499819D02*
X209014762Y-144452200D01*
X209014762Y-144452200D02*
X208919524Y-144356961D01*
X208919524Y-144356961D02*
X208871905Y-144261723D01*
X208871905Y-144261723D02*
X208824286Y-144071247D01*
X208824286Y-144071247D02*
X208824286Y-143928390D01*
X208824286Y-143928390D02*
X208871905Y-143737914D01*
X208871905Y-143737914D02*
X208919524Y-143642676D01*
X208919524Y-143642676D02*
X209014762Y-143547438D01*
X209014762Y-143547438D02*
X209157619Y-143499819D01*
X209157619Y-143499819D02*
X209252857Y-143499819D01*
X209252857Y-143499819D02*
X209395714Y-143547438D01*
X209395714Y-143547438D02*
X209443333Y-143595057D01*
X210300476Y-143499819D02*
X210110000Y-143499819D01*
X210110000Y-143499819D02*
X210014762Y-143547438D01*
X210014762Y-143547438D02*
X209967143Y-143595057D01*
X209967143Y-143595057D02*
X209871905Y-143737914D01*
X209871905Y-143737914D02*
X209824286Y-143928390D01*
X209824286Y-143928390D02*
X209824286Y-144309342D01*
X209824286Y-144309342D02*
X209871905Y-144404580D01*
X209871905Y-144404580D02*
X209919524Y-144452200D01*
X209919524Y-144452200D02*
X210014762Y-144499819D01*
X210014762Y-144499819D02*
X210205238Y-144499819D01*
X210205238Y-144499819D02*
X210300476Y-144452200D01*
X210300476Y-144452200D02*
X210348095Y-144404580D01*
X210348095Y-144404580D02*
X210395714Y-144309342D01*
X210395714Y-144309342D02*
X210395714Y-144071247D01*
X210395714Y-144071247D02*
X210348095Y-143976009D01*
X210348095Y-143976009D02*
X210300476Y-143928390D01*
X210300476Y-143928390D02*
X210205238Y-143880771D01*
X210205238Y-143880771D02*
X210014762Y-143880771D01*
X210014762Y-143880771D02*
X209919524Y-143928390D01*
X209919524Y-143928390D02*
X209871905Y-143976009D01*
X209871905Y-143976009D02*
X209824286Y-144071247D01*
D12*
X208321904Y-145719895D02*
X207864761Y-145719895D01*
X208093333Y-145719895D02*
X208093333Y-144919895D01*
X208093333Y-144919895D02*
X208017142Y-145034180D01*
X208017142Y-145034180D02*
X207940952Y-145110371D01*
X207940952Y-145110371D02*
X207864761Y-145148466D01*
X208817143Y-144919895D02*
X208893333Y-144919895D01*
X208893333Y-144919895D02*
X208969524Y-144957990D01*
X208969524Y-144957990D02*
X209007619Y-144996085D01*
X209007619Y-144996085D02*
X209045714Y-145072276D01*
X209045714Y-145072276D02*
X209083809Y-145224657D01*
X209083809Y-145224657D02*
X209083809Y-145415133D01*
X209083809Y-145415133D02*
X209045714Y-145567514D01*
X209045714Y-145567514D02*
X209007619Y-145643704D01*
X209007619Y-145643704D02*
X208969524Y-145681800D01*
X208969524Y-145681800D02*
X208893333Y-145719895D01*
X208893333Y-145719895D02*
X208817143Y-145719895D01*
X208817143Y-145719895D02*
X208740952Y-145681800D01*
X208740952Y-145681800D02*
X208702857Y-145643704D01*
X208702857Y-145643704D02*
X208664762Y-145567514D01*
X208664762Y-145567514D02*
X208626666Y-145415133D01*
X208626666Y-145415133D02*
X208626666Y-145224657D01*
X208626666Y-145224657D02*
X208664762Y-145072276D01*
X208664762Y-145072276D02*
X208702857Y-144996085D01*
X208702857Y-144996085D02*
X208740952Y-144957990D01*
X208740952Y-144957990D02*
X208817143Y-144919895D01*
X209579048Y-144919895D02*
X209655238Y-144919895D01*
X209655238Y-144919895D02*
X209731429Y-144957990D01*
X209731429Y-144957990D02*
X209769524Y-144996085D01*
X209769524Y-144996085D02*
X209807619Y-145072276D01*
X209807619Y-145072276D02*
X209845714Y-145224657D01*
X209845714Y-145224657D02*
X209845714Y-145415133D01*
X209845714Y-145415133D02*
X209807619Y-145567514D01*
X209807619Y-145567514D02*
X209769524Y-145643704D01*
X209769524Y-145643704D02*
X209731429Y-145681800D01*
X209731429Y-145681800D02*
X209655238Y-145719895D01*
X209655238Y-145719895D02*
X209579048Y-145719895D01*
X209579048Y-145719895D02*
X209502857Y-145681800D01*
X209502857Y-145681800D02*
X209464762Y-145643704D01*
X209464762Y-145643704D02*
X209426667Y-145567514D01*
X209426667Y-145567514D02*
X209388571Y-145415133D01*
X209388571Y-145415133D02*
X209388571Y-145224657D01*
X209388571Y-145224657D02*
X209426667Y-145072276D01*
X209426667Y-145072276D02*
X209464762Y-144996085D01*
X209464762Y-144996085D02*
X209502857Y-144957990D01*
X209502857Y-144957990D02*
X209579048Y-144919895D01*
X210531429Y-145186561D02*
X210531429Y-145719895D01*
X210188572Y-145186561D02*
X210188572Y-145605609D01*
X210188572Y-145605609D02*
X210226667Y-145681800D01*
X210226667Y-145681800D02*
X210302857Y-145719895D01*
X210302857Y-145719895D02*
X210417143Y-145719895D01*
X210417143Y-145719895D02*
X210493334Y-145681800D01*
X210493334Y-145681800D02*
X210531429Y-145643704D01*
X211179048Y-145300847D02*
X210912382Y-145300847D01*
X210912382Y-145719895D02*
X210912382Y-144919895D01*
X210912382Y-144919895D02*
X211293334Y-144919895D01*
D11*
X65409524Y-68144819D02*
X65980952Y-68144819D01*
X65695238Y-69144819D02*
X65695238Y-68144819D01*
X66314286Y-69144819D02*
X66314286Y-68144819D01*
X66314286Y-68144819D02*
X66695238Y-68144819D01*
X66695238Y-68144819D02*
X66790476Y-68192438D01*
X66790476Y-68192438D02*
X66838095Y-68240057D01*
X66838095Y-68240057D02*
X66885714Y-68335295D01*
X66885714Y-68335295D02*
X66885714Y-68478152D01*
X66885714Y-68478152D02*
X66838095Y-68573390D01*
X66838095Y-68573390D02*
X66790476Y-68621009D01*
X66790476Y-68621009D02*
X66695238Y-68668628D01*
X66695238Y-68668628D02*
X66314286Y-68668628D01*
X67076191Y-69240057D02*
X67838095Y-69240057D01*
X68600000Y-68192438D02*
X68504762Y-68144819D01*
X68504762Y-68144819D02*
X68361905Y-68144819D01*
X68361905Y-68144819D02*
X68219048Y-68192438D01*
X68219048Y-68192438D02*
X68123810Y-68287676D01*
X68123810Y-68287676D02*
X68076191Y-68382914D01*
X68076191Y-68382914D02*
X68028572Y-68573390D01*
X68028572Y-68573390D02*
X68028572Y-68716247D01*
X68028572Y-68716247D02*
X68076191Y-68906723D01*
X68076191Y-68906723D02*
X68123810Y-69001961D01*
X68123810Y-69001961D02*
X68219048Y-69097200D01*
X68219048Y-69097200D02*
X68361905Y-69144819D01*
X68361905Y-69144819D02*
X68457143Y-69144819D01*
X68457143Y-69144819D02*
X68600000Y-69097200D01*
X68600000Y-69097200D02*
X68647619Y-69049580D01*
X68647619Y-69049580D02*
X68647619Y-68716247D01*
X68647619Y-68716247D02*
X68457143Y-68716247D01*
X69076191Y-69144819D02*
X69076191Y-68144819D01*
X69076191Y-68144819D02*
X69647619Y-69144819D01*
X69647619Y-69144819D02*
X69647619Y-68144819D01*
X70123810Y-69144819D02*
X70123810Y-68144819D01*
X70123810Y-68144819D02*
X70361905Y-68144819D01*
X70361905Y-68144819D02*
X70504762Y-68192438D01*
X70504762Y-68192438D02*
X70600000Y-68287676D01*
X70600000Y-68287676D02*
X70647619Y-68382914D01*
X70647619Y-68382914D02*
X70695238Y-68573390D01*
X70695238Y-68573390D02*
X70695238Y-68716247D01*
X70695238Y-68716247D02*
X70647619Y-68906723D01*
X70647619Y-68906723D02*
X70600000Y-69001961D01*
X70600000Y-69001961D02*
X70504762Y-69097200D01*
X70504762Y-69097200D02*
X70361905Y-69144819D01*
X70361905Y-69144819D02*
X70123810Y-69144819D01*
X148887142Y-155339580D02*
X148839523Y-155387200D01*
X148839523Y-155387200D02*
X148696666Y-155434819D01*
X148696666Y-155434819D02*
X148601428Y-155434819D01*
X148601428Y-155434819D02*
X148458571Y-155387200D01*
X148458571Y-155387200D02*
X148363333Y-155291961D01*
X148363333Y-155291961D02*
X148315714Y-155196723D01*
X148315714Y-155196723D02*
X148268095Y-155006247D01*
X148268095Y-155006247D02*
X148268095Y-154863390D01*
X148268095Y-154863390D02*
X148315714Y-154672914D01*
X148315714Y-154672914D02*
X148363333Y-154577676D01*
X148363333Y-154577676D02*
X148458571Y-154482438D01*
X148458571Y-154482438D02*
X148601428Y-154434819D01*
X148601428Y-154434819D02*
X148696666Y-154434819D01*
X148696666Y-154434819D02*
X148839523Y-154482438D01*
X148839523Y-154482438D02*
X148887142Y-154530057D01*
X149839523Y-155434819D02*
X149268095Y-155434819D01*
X149553809Y-155434819D02*
X149553809Y-154434819D01*
X149553809Y-154434819D02*
X149458571Y-154577676D01*
X149458571Y-154577676D02*
X149363333Y-154672914D01*
X149363333Y-154672914D02*
X149268095Y-154720533D01*
X150458571Y-154434819D02*
X150553809Y-154434819D01*
X150553809Y-154434819D02*
X150649047Y-154482438D01*
X150649047Y-154482438D02*
X150696666Y-154530057D01*
X150696666Y-154530057D02*
X150744285Y-154625295D01*
X150744285Y-154625295D02*
X150791904Y-154815771D01*
X150791904Y-154815771D02*
X150791904Y-155053866D01*
X150791904Y-155053866D02*
X150744285Y-155244342D01*
X150744285Y-155244342D02*
X150696666Y-155339580D01*
X150696666Y-155339580D02*
X150649047Y-155387200D01*
X150649047Y-155387200D02*
X150553809Y-155434819D01*
X150553809Y-155434819D02*
X150458571Y-155434819D01*
X150458571Y-155434819D02*
X150363333Y-155387200D01*
X150363333Y-155387200D02*
X150315714Y-155339580D01*
X150315714Y-155339580D02*
X150268095Y-155244342D01*
X150268095Y-155244342D02*
X150220476Y-155053866D01*
X150220476Y-155053866D02*
X150220476Y-154815771D01*
X150220476Y-154815771D02*
X150268095Y-154625295D01*
X150268095Y-154625295D02*
X150315714Y-154530057D01*
X150315714Y-154530057D02*
X150363333Y-154482438D01*
X150363333Y-154482438D02*
X150458571Y-154434819D01*
D12*
X145051904Y-155954895D02*
X144594761Y-155954895D01*
X144823333Y-155954895D02*
X144823333Y-155154895D01*
X144823333Y-155154895D02*
X144747142Y-155269180D01*
X144747142Y-155269180D02*
X144670952Y-155345371D01*
X144670952Y-155345371D02*
X144594761Y-155383466D01*
X145547143Y-155154895D02*
X145623333Y-155154895D01*
X145623333Y-155154895D02*
X145699524Y-155192990D01*
X145699524Y-155192990D02*
X145737619Y-155231085D01*
X145737619Y-155231085D02*
X145775714Y-155307276D01*
X145775714Y-155307276D02*
X145813809Y-155459657D01*
X145813809Y-155459657D02*
X145813809Y-155650133D01*
X145813809Y-155650133D02*
X145775714Y-155802514D01*
X145775714Y-155802514D02*
X145737619Y-155878704D01*
X145737619Y-155878704D02*
X145699524Y-155916800D01*
X145699524Y-155916800D02*
X145623333Y-155954895D01*
X145623333Y-155954895D02*
X145547143Y-155954895D01*
X145547143Y-155954895D02*
X145470952Y-155916800D01*
X145470952Y-155916800D02*
X145432857Y-155878704D01*
X145432857Y-155878704D02*
X145394762Y-155802514D01*
X145394762Y-155802514D02*
X145356666Y-155650133D01*
X145356666Y-155650133D02*
X145356666Y-155459657D01*
X145356666Y-155459657D02*
X145394762Y-155307276D01*
X145394762Y-155307276D02*
X145432857Y-155231085D01*
X145432857Y-155231085D02*
X145470952Y-155192990D01*
X145470952Y-155192990D02*
X145547143Y-155154895D01*
X146309048Y-155154895D02*
X146385238Y-155154895D01*
X146385238Y-155154895D02*
X146461429Y-155192990D01*
X146461429Y-155192990D02*
X146499524Y-155231085D01*
X146499524Y-155231085D02*
X146537619Y-155307276D01*
X146537619Y-155307276D02*
X146575714Y-155459657D01*
X146575714Y-155459657D02*
X146575714Y-155650133D01*
X146575714Y-155650133D02*
X146537619Y-155802514D01*
X146537619Y-155802514D02*
X146499524Y-155878704D01*
X146499524Y-155878704D02*
X146461429Y-155916800D01*
X146461429Y-155916800D02*
X146385238Y-155954895D01*
X146385238Y-155954895D02*
X146309048Y-155954895D01*
X146309048Y-155954895D02*
X146232857Y-155916800D01*
X146232857Y-155916800D02*
X146194762Y-155878704D01*
X146194762Y-155878704D02*
X146156667Y-155802514D01*
X146156667Y-155802514D02*
X146118571Y-155650133D01*
X146118571Y-155650133D02*
X146118571Y-155459657D01*
X146118571Y-155459657D02*
X146156667Y-155307276D01*
X146156667Y-155307276D02*
X146194762Y-155231085D01*
X146194762Y-155231085D02*
X146232857Y-155192990D01*
X146232857Y-155192990D02*
X146309048Y-155154895D01*
X146918572Y-155421561D02*
X146918572Y-155954895D01*
X146918572Y-155497752D02*
X146956667Y-155459657D01*
X146956667Y-155459657D02*
X147032857Y-155421561D01*
X147032857Y-155421561D02*
X147147143Y-155421561D01*
X147147143Y-155421561D02*
X147223334Y-155459657D01*
X147223334Y-155459657D02*
X147261429Y-155535847D01*
X147261429Y-155535847D02*
X147261429Y-155954895D01*
X147909048Y-155535847D02*
X147642382Y-155535847D01*
X147642382Y-155954895D02*
X147642382Y-155154895D01*
X147642382Y-155154895D02*
X148023334Y-155154895D01*
D11*
X164809524Y-153484819D02*
X165380952Y-153484819D01*
X165095238Y-154484819D02*
X165095238Y-153484819D01*
X165714286Y-154484819D02*
X165714286Y-153484819D01*
X165714286Y-153484819D02*
X166095238Y-153484819D01*
X166095238Y-153484819D02*
X166190476Y-153532438D01*
X166190476Y-153532438D02*
X166238095Y-153580057D01*
X166238095Y-153580057D02*
X166285714Y-153675295D01*
X166285714Y-153675295D02*
X166285714Y-153818152D01*
X166285714Y-153818152D02*
X166238095Y-153913390D01*
X166238095Y-153913390D02*
X166190476Y-153961009D01*
X166190476Y-153961009D02*
X166095238Y-154008628D01*
X166095238Y-154008628D02*
X165714286Y-154008628D01*
X166476191Y-154580057D02*
X167238095Y-154580057D01*
X168000000Y-153532438D02*
X167904762Y-153484819D01*
X167904762Y-153484819D02*
X167761905Y-153484819D01*
X167761905Y-153484819D02*
X167619048Y-153532438D01*
X167619048Y-153532438D02*
X167523810Y-153627676D01*
X167523810Y-153627676D02*
X167476191Y-153722914D01*
X167476191Y-153722914D02*
X167428572Y-153913390D01*
X167428572Y-153913390D02*
X167428572Y-154056247D01*
X167428572Y-154056247D02*
X167476191Y-154246723D01*
X167476191Y-154246723D02*
X167523810Y-154341961D01*
X167523810Y-154341961D02*
X167619048Y-154437200D01*
X167619048Y-154437200D02*
X167761905Y-154484819D01*
X167761905Y-154484819D02*
X167857143Y-154484819D01*
X167857143Y-154484819D02*
X168000000Y-154437200D01*
X168000000Y-154437200D02*
X168047619Y-154389580D01*
X168047619Y-154389580D02*
X168047619Y-154056247D01*
X168047619Y-154056247D02*
X167857143Y-154056247D01*
X168476191Y-154484819D02*
X168476191Y-153484819D01*
X168476191Y-153484819D02*
X169047619Y-154484819D01*
X169047619Y-154484819D02*
X169047619Y-153484819D01*
X169523810Y-154484819D02*
X169523810Y-153484819D01*
X169523810Y-153484819D02*
X169761905Y-153484819D01*
X169761905Y-153484819D02*
X169904762Y-153532438D01*
X169904762Y-153532438D02*
X170000000Y-153627676D01*
X170000000Y-153627676D02*
X170047619Y-153722914D01*
X170047619Y-153722914D02*
X170095238Y-153913390D01*
X170095238Y-153913390D02*
X170095238Y-154056247D01*
X170095238Y-154056247D02*
X170047619Y-154246723D01*
X170047619Y-154246723D02*
X170000000Y-154341961D01*
X170000000Y-154341961D02*
X169904762Y-154437200D01*
X169904762Y-154437200D02*
X169761905Y-154484819D01*
X169761905Y-154484819D02*
X169523810Y-154484819D01*
X218323333Y-144069580D02*
X218275714Y-144117200D01*
X218275714Y-144117200D02*
X218132857Y-144164819D01*
X218132857Y-144164819D02*
X218037619Y-144164819D01*
X218037619Y-144164819D02*
X217894762Y-144117200D01*
X217894762Y-144117200D02*
X217799524Y-144021961D01*
X217799524Y-144021961D02*
X217751905Y-143926723D01*
X217751905Y-143926723D02*
X217704286Y-143736247D01*
X217704286Y-143736247D02*
X217704286Y-143593390D01*
X217704286Y-143593390D02*
X217751905Y-143402914D01*
X217751905Y-143402914D02*
X217799524Y-143307676D01*
X217799524Y-143307676D02*
X217894762Y-143212438D01*
X217894762Y-143212438D02*
X218037619Y-143164819D01*
X218037619Y-143164819D02*
X218132857Y-143164819D01*
X218132857Y-143164819D02*
X218275714Y-143212438D01*
X218275714Y-143212438D02*
X218323333Y-143260057D01*
X219180476Y-143498152D02*
X219180476Y-144164819D01*
X218942381Y-143117200D02*
X218704286Y-143831485D01*
X218704286Y-143831485D02*
X219323333Y-143831485D01*
D12*
X217481904Y-145164895D02*
X217024761Y-145164895D01*
X217253333Y-145164895D02*
X217253333Y-144364895D01*
X217253333Y-144364895D02*
X217177142Y-144479180D01*
X217177142Y-144479180D02*
X217100952Y-144555371D01*
X217100952Y-144555371D02*
X217024761Y-144593466D01*
X217977143Y-144364895D02*
X218053333Y-144364895D01*
X218053333Y-144364895D02*
X218129524Y-144402990D01*
X218129524Y-144402990D02*
X218167619Y-144441085D01*
X218167619Y-144441085D02*
X218205714Y-144517276D01*
X218205714Y-144517276D02*
X218243809Y-144669657D01*
X218243809Y-144669657D02*
X218243809Y-144860133D01*
X218243809Y-144860133D02*
X218205714Y-145012514D01*
X218205714Y-145012514D02*
X218167619Y-145088704D01*
X218167619Y-145088704D02*
X218129524Y-145126800D01*
X218129524Y-145126800D02*
X218053333Y-145164895D01*
X218053333Y-145164895D02*
X217977143Y-145164895D01*
X217977143Y-145164895D02*
X217900952Y-145126800D01*
X217900952Y-145126800D02*
X217862857Y-145088704D01*
X217862857Y-145088704D02*
X217824762Y-145012514D01*
X217824762Y-145012514D02*
X217786666Y-144860133D01*
X217786666Y-144860133D02*
X217786666Y-144669657D01*
X217786666Y-144669657D02*
X217824762Y-144517276D01*
X217824762Y-144517276D02*
X217862857Y-144441085D01*
X217862857Y-144441085D02*
X217900952Y-144402990D01*
X217900952Y-144402990D02*
X217977143Y-144364895D01*
X218739048Y-144364895D02*
X218815238Y-144364895D01*
X218815238Y-144364895D02*
X218891429Y-144402990D01*
X218891429Y-144402990D02*
X218929524Y-144441085D01*
X218929524Y-144441085D02*
X218967619Y-144517276D01*
X218967619Y-144517276D02*
X219005714Y-144669657D01*
X219005714Y-144669657D02*
X219005714Y-144860133D01*
X219005714Y-144860133D02*
X218967619Y-145012514D01*
X218967619Y-145012514D02*
X218929524Y-145088704D01*
X218929524Y-145088704D02*
X218891429Y-145126800D01*
X218891429Y-145126800D02*
X218815238Y-145164895D01*
X218815238Y-145164895D02*
X218739048Y-145164895D01*
X218739048Y-145164895D02*
X218662857Y-145126800D01*
X218662857Y-145126800D02*
X218624762Y-145088704D01*
X218624762Y-145088704D02*
X218586667Y-145012514D01*
X218586667Y-145012514D02*
X218548571Y-144860133D01*
X218548571Y-144860133D02*
X218548571Y-144669657D01*
X218548571Y-144669657D02*
X218586667Y-144517276D01*
X218586667Y-144517276D02*
X218624762Y-144441085D01*
X218624762Y-144441085D02*
X218662857Y-144402990D01*
X218662857Y-144402990D02*
X218739048Y-144364895D01*
X219348572Y-144631561D02*
X219348572Y-145164895D01*
X219348572Y-144707752D02*
X219386667Y-144669657D01*
X219386667Y-144669657D02*
X219462857Y-144631561D01*
X219462857Y-144631561D02*
X219577143Y-144631561D01*
X219577143Y-144631561D02*
X219653334Y-144669657D01*
X219653334Y-144669657D02*
X219691429Y-144745847D01*
X219691429Y-144745847D02*
X219691429Y-145164895D01*
X220339048Y-144745847D02*
X220072382Y-144745847D01*
X220072382Y-145164895D02*
X220072382Y-144364895D01*
X220072382Y-144364895D02*
X220453334Y-144364895D01*
D11*
X97597142Y-99519580D02*
X97549523Y-99567200D01*
X97549523Y-99567200D02*
X97406666Y-99614819D01*
X97406666Y-99614819D02*
X97311428Y-99614819D01*
X97311428Y-99614819D02*
X97168571Y-99567200D01*
X97168571Y-99567200D02*
X97073333Y-99471961D01*
X97073333Y-99471961D02*
X97025714Y-99376723D01*
X97025714Y-99376723D02*
X96978095Y-99186247D01*
X96978095Y-99186247D02*
X96978095Y-99043390D01*
X96978095Y-99043390D02*
X97025714Y-98852914D01*
X97025714Y-98852914D02*
X97073333Y-98757676D01*
X97073333Y-98757676D02*
X97168571Y-98662438D01*
X97168571Y-98662438D02*
X97311428Y-98614819D01*
X97311428Y-98614819D02*
X97406666Y-98614819D01*
X97406666Y-98614819D02*
X97549523Y-98662438D01*
X97549523Y-98662438D02*
X97597142Y-98710057D01*
X97978095Y-98710057D02*
X98025714Y-98662438D01*
X98025714Y-98662438D02*
X98120952Y-98614819D01*
X98120952Y-98614819D02*
X98359047Y-98614819D01*
X98359047Y-98614819D02*
X98454285Y-98662438D01*
X98454285Y-98662438D02*
X98501904Y-98710057D01*
X98501904Y-98710057D02*
X98549523Y-98805295D01*
X98549523Y-98805295D02*
X98549523Y-98900533D01*
X98549523Y-98900533D02*
X98501904Y-99043390D01*
X98501904Y-99043390D02*
X97930476Y-99614819D01*
X97930476Y-99614819D02*
X98549523Y-99614819D01*
X99168571Y-98614819D02*
X99263809Y-98614819D01*
X99263809Y-98614819D02*
X99359047Y-98662438D01*
X99359047Y-98662438D02*
X99406666Y-98710057D01*
X99406666Y-98710057D02*
X99454285Y-98805295D01*
X99454285Y-98805295D02*
X99501904Y-98995771D01*
X99501904Y-98995771D02*
X99501904Y-99233866D01*
X99501904Y-99233866D02*
X99454285Y-99424342D01*
X99454285Y-99424342D02*
X99406666Y-99519580D01*
X99406666Y-99519580D02*
X99359047Y-99567200D01*
X99359047Y-99567200D02*
X99263809Y-99614819D01*
X99263809Y-99614819D02*
X99168571Y-99614819D01*
X99168571Y-99614819D02*
X99073333Y-99567200D01*
X99073333Y-99567200D02*
X99025714Y-99519580D01*
X99025714Y-99519580D02*
X98978095Y-99424342D01*
X98978095Y-99424342D02*
X98930476Y-99233866D01*
X98930476Y-99233866D02*
X98930476Y-98995771D01*
X98930476Y-98995771D02*
X98978095Y-98805295D01*
X98978095Y-98805295D02*
X99025714Y-98710057D01*
X99025714Y-98710057D02*
X99073333Y-98662438D01*
X99073333Y-98662438D02*
X99168571Y-98614819D01*
D12*
X97452856Y-100994895D02*
X96995713Y-100994895D01*
X97224285Y-100994895D02*
X97224285Y-100194895D01*
X97224285Y-100194895D02*
X97148094Y-100309180D01*
X97148094Y-100309180D02*
X97071904Y-100385371D01*
X97071904Y-100385371D02*
X96995713Y-100423466D01*
X97948095Y-100194895D02*
X98024285Y-100194895D01*
X98024285Y-100194895D02*
X98100476Y-100232990D01*
X98100476Y-100232990D02*
X98138571Y-100271085D01*
X98138571Y-100271085D02*
X98176666Y-100347276D01*
X98176666Y-100347276D02*
X98214761Y-100499657D01*
X98214761Y-100499657D02*
X98214761Y-100690133D01*
X98214761Y-100690133D02*
X98176666Y-100842514D01*
X98176666Y-100842514D02*
X98138571Y-100918704D01*
X98138571Y-100918704D02*
X98100476Y-100956800D01*
X98100476Y-100956800D02*
X98024285Y-100994895D01*
X98024285Y-100994895D02*
X97948095Y-100994895D01*
X97948095Y-100994895D02*
X97871904Y-100956800D01*
X97871904Y-100956800D02*
X97833809Y-100918704D01*
X97833809Y-100918704D02*
X97795714Y-100842514D01*
X97795714Y-100842514D02*
X97757618Y-100690133D01*
X97757618Y-100690133D02*
X97757618Y-100499657D01*
X97757618Y-100499657D02*
X97795714Y-100347276D01*
X97795714Y-100347276D02*
X97833809Y-100271085D01*
X97833809Y-100271085D02*
X97871904Y-100232990D01*
X97871904Y-100232990D02*
X97948095Y-100194895D01*
X98900476Y-100461561D02*
X98900476Y-100994895D01*
X98557619Y-100461561D02*
X98557619Y-100880609D01*
X98557619Y-100880609D02*
X98595714Y-100956800D01*
X98595714Y-100956800D02*
X98671904Y-100994895D01*
X98671904Y-100994895D02*
X98786190Y-100994895D01*
X98786190Y-100994895D02*
X98862381Y-100956800D01*
X98862381Y-100956800D02*
X98900476Y-100918704D01*
X99548095Y-100575847D02*
X99281429Y-100575847D01*
X99281429Y-100994895D02*
X99281429Y-100194895D01*
X99281429Y-100194895D02*
X99662381Y-100194895D01*
D11*
X71180952Y-75044819D02*
X71752380Y-75044819D01*
X71466666Y-76044819D02*
X71466666Y-75044819D01*
X72085714Y-76044819D02*
X72085714Y-75044819D01*
X72085714Y-75044819D02*
X72466666Y-75044819D01*
X72466666Y-75044819D02*
X72561904Y-75092438D01*
X72561904Y-75092438D02*
X72609523Y-75140057D01*
X72609523Y-75140057D02*
X72657142Y-75235295D01*
X72657142Y-75235295D02*
X72657142Y-75378152D01*
X72657142Y-75378152D02*
X72609523Y-75473390D01*
X72609523Y-75473390D02*
X72561904Y-75521009D01*
X72561904Y-75521009D02*
X72466666Y-75568628D01*
X72466666Y-75568628D02*
X72085714Y-75568628D01*
X72847619Y-76140057D02*
X73609523Y-76140057D01*
X74371428Y-75092438D02*
X74276190Y-75044819D01*
X74276190Y-75044819D02*
X74133333Y-75044819D01*
X74133333Y-75044819D02*
X73990476Y-75092438D01*
X73990476Y-75092438D02*
X73895238Y-75187676D01*
X73895238Y-75187676D02*
X73847619Y-75282914D01*
X73847619Y-75282914D02*
X73800000Y-75473390D01*
X73800000Y-75473390D02*
X73800000Y-75616247D01*
X73800000Y-75616247D02*
X73847619Y-75806723D01*
X73847619Y-75806723D02*
X73895238Y-75901961D01*
X73895238Y-75901961D02*
X73990476Y-75997200D01*
X73990476Y-75997200D02*
X74133333Y-76044819D01*
X74133333Y-76044819D02*
X74228571Y-76044819D01*
X74228571Y-76044819D02*
X74371428Y-75997200D01*
X74371428Y-75997200D02*
X74419047Y-75949580D01*
X74419047Y-75949580D02*
X74419047Y-75616247D01*
X74419047Y-75616247D02*
X74228571Y-75616247D01*
X74847619Y-76044819D02*
X74847619Y-75044819D01*
X74847619Y-75044819D02*
X75228571Y-75044819D01*
X75228571Y-75044819D02*
X75323809Y-75092438D01*
X75323809Y-75092438D02*
X75371428Y-75140057D01*
X75371428Y-75140057D02*
X75419047Y-75235295D01*
X75419047Y-75235295D02*
X75419047Y-75378152D01*
X75419047Y-75378152D02*
X75371428Y-75473390D01*
X75371428Y-75473390D02*
X75323809Y-75521009D01*
X75323809Y-75521009D02*
X75228571Y-75568628D01*
X75228571Y-75568628D02*
X74847619Y-75568628D01*
X75800000Y-75997200D02*
X75942857Y-76044819D01*
X75942857Y-76044819D02*
X76180952Y-76044819D01*
X76180952Y-76044819D02*
X76276190Y-75997200D01*
X76276190Y-75997200D02*
X76323809Y-75949580D01*
X76323809Y-75949580D02*
X76371428Y-75854342D01*
X76371428Y-75854342D02*
X76371428Y-75759104D01*
X76371428Y-75759104D02*
X76323809Y-75663866D01*
X76323809Y-75663866D02*
X76276190Y-75616247D01*
X76276190Y-75616247D02*
X76180952Y-75568628D01*
X76180952Y-75568628D02*
X75990476Y-75521009D01*
X75990476Y-75521009D02*
X75895238Y-75473390D01*
X75895238Y-75473390D02*
X75847619Y-75425771D01*
X75847619Y-75425771D02*
X75800000Y-75330533D01*
X75800000Y-75330533D02*
X75800000Y-75235295D01*
X75800000Y-75235295D02*
X75847619Y-75140057D01*
X75847619Y-75140057D02*
X75895238Y-75092438D01*
X75895238Y-75092438D02*
X75990476Y-75044819D01*
X75990476Y-75044819D02*
X76228571Y-75044819D01*
X76228571Y-75044819D02*
X76371428Y-75092438D01*
X77371428Y-76044819D02*
X77038095Y-75568628D01*
X76800000Y-76044819D02*
X76800000Y-75044819D01*
X76800000Y-75044819D02*
X77180952Y-75044819D01*
X77180952Y-75044819D02*
X77276190Y-75092438D01*
X77276190Y-75092438D02*
X77323809Y-75140057D01*
X77323809Y-75140057D02*
X77371428Y-75235295D01*
X77371428Y-75235295D02*
X77371428Y-75378152D01*
X77371428Y-75378152D02*
X77323809Y-75473390D01*
X77323809Y-75473390D02*
X77276190Y-75521009D01*
X77276190Y-75521009D02*
X77180952Y-75568628D01*
X77180952Y-75568628D02*
X76800000Y-75568628D01*
X77704762Y-75044819D02*
X78371428Y-76044819D01*
X78371428Y-75044819D02*
X77704762Y-76044819D01*
X93067142Y-99879580D02*
X93019523Y-99927200D01*
X93019523Y-99927200D02*
X92876666Y-99974819D01*
X92876666Y-99974819D02*
X92781428Y-99974819D01*
X92781428Y-99974819D02*
X92638571Y-99927200D01*
X92638571Y-99927200D02*
X92543333Y-99831961D01*
X92543333Y-99831961D02*
X92495714Y-99736723D01*
X92495714Y-99736723D02*
X92448095Y-99546247D01*
X92448095Y-99546247D02*
X92448095Y-99403390D01*
X92448095Y-99403390D02*
X92495714Y-99212914D01*
X92495714Y-99212914D02*
X92543333Y-99117676D01*
X92543333Y-99117676D02*
X92638571Y-99022438D01*
X92638571Y-99022438D02*
X92781428Y-98974819D01*
X92781428Y-98974819D02*
X92876666Y-98974819D01*
X92876666Y-98974819D02*
X93019523Y-99022438D01*
X93019523Y-99022438D02*
X93067142Y-99070057D01*
X94019523Y-99974819D02*
X93448095Y-99974819D01*
X93733809Y-99974819D02*
X93733809Y-98974819D01*
X93733809Y-98974819D02*
X93638571Y-99117676D01*
X93638571Y-99117676D02*
X93543333Y-99212914D01*
X93543333Y-99212914D02*
X93448095Y-99260533D01*
X94495714Y-99974819D02*
X94686190Y-99974819D01*
X94686190Y-99974819D02*
X94781428Y-99927200D01*
X94781428Y-99927200D02*
X94829047Y-99879580D01*
X94829047Y-99879580D02*
X94924285Y-99736723D01*
X94924285Y-99736723D02*
X94971904Y-99546247D01*
X94971904Y-99546247D02*
X94971904Y-99165295D01*
X94971904Y-99165295D02*
X94924285Y-99070057D01*
X94924285Y-99070057D02*
X94876666Y-99022438D01*
X94876666Y-99022438D02*
X94781428Y-98974819D01*
X94781428Y-98974819D02*
X94590952Y-98974819D01*
X94590952Y-98974819D02*
X94495714Y-99022438D01*
X94495714Y-99022438D02*
X94448095Y-99070057D01*
X94448095Y-99070057D02*
X94400476Y-99165295D01*
X94400476Y-99165295D02*
X94400476Y-99403390D01*
X94400476Y-99403390D02*
X94448095Y-99498628D01*
X94448095Y-99498628D02*
X94495714Y-99546247D01*
X94495714Y-99546247D02*
X94590952Y-99593866D01*
X94590952Y-99593866D02*
X94781428Y-99593866D01*
X94781428Y-99593866D02*
X94876666Y-99546247D01*
X94876666Y-99546247D02*
X94924285Y-99498628D01*
X94924285Y-99498628D02*
X94971904Y-99403390D01*
D12*
X92711904Y-101284895D02*
X92254761Y-101284895D01*
X92483333Y-101284895D02*
X92483333Y-100484895D01*
X92483333Y-100484895D02*
X92407142Y-100599180D01*
X92407142Y-100599180D02*
X92330952Y-100675371D01*
X92330952Y-100675371D02*
X92254761Y-100713466D01*
X93207143Y-100484895D02*
X93283333Y-100484895D01*
X93283333Y-100484895D02*
X93359524Y-100522990D01*
X93359524Y-100522990D02*
X93397619Y-100561085D01*
X93397619Y-100561085D02*
X93435714Y-100637276D01*
X93435714Y-100637276D02*
X93473809Y-100789657D01*
X93473809Y-100789657D02*
X93473809Y-100980133D01*
X93473809Y-100980133D02*
X93435714Y-101132514D01*
X93435714Y-101132514D02*
X93397619Y-101208704D01*
X93397619Y-101208704D02*
X93359524Y-101246800D01*
X93359524Y-101246800D02*
X93283333Y-101284895D01*
X93283333Y-101284895D02*
X93207143Y-101284895D01*
X93207143Y-101284895D02*
X93130952Y-101246800D01*
X93130952Y-101246800D02*
X93092857Y-101208704D01*
X93092857Y-101208704D02*
X93054762Y-101132514D01*
X93054762Y-101132514D02*
X93016666Y-100980133D01*
X93016666Y-100980133D02*
X93016666Y-100789657D01*
X93016666Y-100789657D02*
X93054762Y-100637276D01*
X93054762Y-100637276D02*
X93092857Y-100561085D01*
X93092857Y-100561085D02*
X93130952Y-100522990D01*
X93130952Y-100522990D02*
X93207143Y-100484895D01*
X93969048Y-100484895D02*
X94045238Y-100484895D01*
X94045238Y-100484895D02*
X94121429Y-100522990D01*
X94121429Y-100522990D02*
X94159524Y-100561085D01*
X94159524Y-100561085D02*
X94197619Y-100637276D01*
X94197619Y-100637276D02*
X94235714Y-100789657D01*
X94235714Y-100789657D02*
X94235714Y-100980133D01*
X94235714Y-100980133D02*
X94197619Y-101132514D01*
X94197619Y-101132514D02*
X94159524Y-101208704D01*
X94159524Y-101208704D02*
X94121429Y-101246800D01*
X94121429Y-101246800D02*
X94045238Y-101284895D01*
X94045238Y-101284895D02*
X93969048Y-101284895D01*
X93969048Y-101284895D02*
X93892857Y-101246800D01*
X93892857Y-101246800D02*
X93854762Y-101208704D01*
X93854762Y-101208704D02*
X93816667Y-101132514D01*
X93816667Y-101132514D02*
X93778571Y-100980133D01*
X93778571Y-100980133D02*
X93778571Y-100789657D01*
X93778571Y-100789657D02*
X93816667Y-100637276D01*
X93816667Y-100637276D02*
X93854762Y-100561085D01*
X93854762Y-100561085D02*
X93892857Y-100522990D01*
X93892857Y-100522990D02*
X93969048Y-100484895D01*
X94578572Y-100751561D02*
X94578572Y-101284895D01*
X94578572Y-100827752D02*
X94616667Y-100789657D01*
X94616667Y-100789657D02*
X94692857Y-100751561D01*
X94692857Y-100751561D02*
X94807143Y-100751561D01*
X94807143Y-100751561D02*
X94883334Y-100789657D01*
X94883334Y-100789657D02*
X94921429Y-100865847D01*
X94921429Y-100865847D02*
X94921429Y-101284895D01*
X95569048Y-100865847D02*
X95302382Y-100865847D01*
X95302382Y-101284895D02*
X95302382Y-100484895D01*
X95302382Y-100484895D02*
X95683334Y-100484895D01*
D11*
X214583333Y-76569580D02*
X214535714Y-76617200D01*
X214535714Y-76617200D02*
X214392857Y-76664819D01*
X214392857Y-76664819D02*
X214297619Y-76664819D01*
X214297619Y-76664819D02*
X214154762Y-76617200D01*
X214154762Y-76617200D02*
X214059524Y-76521961D01*
X214059524Y-76521961D02*
X214011905Y-76426723D01*
X214011905Y-76426723D02*
X213964286Y-76236247D01*
X213964286Y-76236247D02*
X213964286Y-76093390D01*
X213964286Y-76093390D02*
X214011905Y-75902914D01*
X214011905Y-75902914D02*
X214059524Y-75807676D01*
X214059524Y-75807676D02*
X214154762Y-75712438D01*
X214154762Y-75712438D02*
X214297619Y-75664819D01*
X214297619Y-75664819D02*
X214392857Y-75664819D01*
X214392857Y-75664819D02*
X214535714Y-75712438D01*
X214535714Y-75712438D02*
X214583333Y-75760057D01*
X215154762Y-76093390D02*
X215059524Y-76045771D01*
X215059524Y-76045771D02*
X215011905Y-75998152D01*
X215011905Y-75998152D02*
X214964286Y-75902914D01*
X214964286Y-75902914D02*
X214964286Y-75855295D01*
X214964286Y-75855295D02*
X215011905Y-75760057D01*
X215011905Y-75760057D02*
X215059524Y-75712438D01*
X215059524Y-75712438D02*
X215154762Y-75664819D01*
X215154762Y-75664819D02*
X215345238Y-75664819D01*
X215345238Y-75664819D02*
X215440476Y-75712438D01*
X215440476Y-75712438D02*
X215488095Y-75760057D01*
X215488095Y-75760057D02*
X215535714Y-75855295D01*
X215535714Y-75855295D02*
X215535714Y-75902914D01*
X215535714Y-75902914D02*
X215488095Y-75998152D01*
X215488095Y-75998152D02*
X215440476Y-76045771D01*
X215440476Y-76045771D02*
X215345238Y-76093390D01*
X215345238Y-76093390D02*
X215154762Y-76093390D01*
X215154762Y-76093390D02*
X215059524Y-76141009D01*
X215059524Y-76141009D02*
X215011905Y-76188628D01*
X215011905Y-76188628D02*
X214964286Y-76283866D01*
X214964286Y-76283866D02*
X214964286Y-76474342D01*
X214964286Y-76474342D02*
X215011905Y-76569580D01*
X215011905Y-76569580D02*
X215059524Y-76617200D01*
X215059524Y-76617200D02*
X215154762Y-76664819D01*
X215154762Y-76664819D02*
X215345238Y-76664819D01*
X215345238Y-76664819D02*
X215440476Y-76617200D01*
X215440476Y-76617200D02*
X215488095Y-76569580D01*
X215488095Y-76569580D02*
X215535714Y-76474342D01*
X215535714Y-76474342D02*
X215535714Y-76283866D01*
X215535714Y-76283866D02*
X215488095Y-76188628D01*
X215488095Y-76188628D02*
X215440476Y-76141009D01*
X215440476Y-76141009D02*
X215345238Y-76093390D01*
D12*
X214002856Y-77974895D02*
X213545713Y-77974895D01*
X213774285Y-77974895D02*
X213774285Y-77174895D01*
X213774285Y-77174895D02*
X213698094Y-77289180D01*
X213698094Y-77289180D02*
X213621904Y-77365371D01*
X213621904Y-77365371D02*
X213545713Y-77403466D01*
X214498095Y-77174895D02*
X214574285Y-77174895D01*
X214574285Y-77174895D02*
X214650476Y-77212990D01*
X214650476Y-77212990D02*
X214688571Y-77251085D01*
X214688571Y-77251085D02*
X214726666Y-77327276D01*
X214726666Y-77327276D02*
X214764761Y-77479657D01*
X214764761Y-77479657D02*
X214764761Y-77670133D01*
X214764761Y-77670133D02*
X214726666Y-77822514D01*
X214726666Y-77822514D02*
X214688571Y-77898704D01*
X214688571Y-77898704D02*
X214650476Y-77936800D01*
X214650476Y-77936800D02*
X214574285Y-77974895D01*
X214574285Y-77974895D02*
X214498095Y-77974895D01*
X214498095Y-77974895D02*
X214421904Y-77936800D01*
X214421904Y-77936800D02*
X214383809Y-77898704D01*
X214383809Y-77898704D02*
X214345714Y-77822514D01*
X214345714Y-77822514D02*
X214307618Y-77670133D01*
X214307618Y-77670133D02*
X214307618Y-77479657D01*
X214307618Y-77479657D02*
X214345714Y-77327276D01*
X214345714Y-77327276D02*
X214383809Y-77251085D01*
X214383809Y-77251085D02*
X214421904Y-77212990D01*
X214421904Y-77212990D02*
X214498095Y-77174895D01*
X215450476Y-77441561D02*
X215450476Y-77974895D01*
X215107619Y-77441561D02*
X215107619Y-77860609D01*
X215107619Y-77860609D02*
X215145714Y-77936800D01*
X215145714Y-77936800D02*
X215221904Y-77974895D01*
X215221904Y-77974895D02*
X215336190Y-77974895D01*
X215336190Y-77974895D02*
X215412381Y-77936800D01*
X215412381Y-77936800D02*
X215450476Y-77898704D01*
X216098095Y-77555847D02*
X215831429Y-77555847D01*
X215831429Y-77974895D02*
X215831429Y-77174895D01*
X215831429Y-77174895D02*
X216212381Y-77174895D01*
D11*
X124988571Y-78914819D02*
X125559999Y-78914819D01*
X125274285Y-79914819D02*
X125274285Y-78914819D01*
X125893333Y-79914819D02*
X125893333Y-78914819D01*
X125893333Y-78914819D02*
X126274285Y-78914819D01*
X126274285Y-78914819D02*
X126369523Y-78962438D01*
X126369523Y-78962438D02*
X126417142Y-79010057D01*
X126417142Y-79010057D02*
X126464761Y-79105295D01*
X126464761Y-79105295D02*
X126464761Y-79248152D01*
X126464761Y-79248152D02*
X126417142Y-79343390D01*
X126417142Y-79343390D02*
X126369523Y-79391009D01*
X126369523Y-79391009D02*
X126274285Y-79438628D01*
X126274285Y-79438628D02*
X125893333Y-79438628D01*
X126655238Y-80010057D02*
X127417142Y-80010057D01*
X127607619Y-79867200D02*
X127750476Y-79914819D01*
X127750476Y-79914819D02*
X127988571Y-79914819D01*
X127988571Y-79914819D02*
X128083809Y-79867200D01*
X128083809Y-79867200D02*
X128131428Y-79819580D01*
X128131428Y-79819580D02*
X128179047Y-79724342D01*
X128179047Y-79724342D02*
X128179047Y-79629104D01*
X128179047Y-79629104D02*
X128131428Y-79533866D01*
X128131428Y-79533866D02*
X128083809Y-79486247D01*
X128083809Y-79486247D02*
X127988571Y-79438628D01*
X127988571Y-79438628D02*
X127798095Y-79391009D01*
X127798095Y-79391009D02*
X127702857Y-79343390D01*
X127702857Y-79343390D02*
X127655238Y-79295771D01*
X127655238Y-79295771D02*
X127607619Y-79200533D01*
X127607619Y-79200533D02*
X127607619Y-79105295D01*
X127607619Y-79105295D02*
X127655238Y-79010057D01*
X127655238Y-79010057D02*
X127702857Y-78962438D01*
X127702857Y-78962438D02*
X127798095Y-78914819D01*
X127798095Y-78914819D02*
X128036190Y-78914819D01*
X128036190Y-78914819D02*
X128179047Y-78962438D01*
X128607619Y-79914819D02*
X128607619Y-78914819D01*
X128607619Y-78914819D02*
X128845714Y-78914819D01*
X128845714Y-78914819D02*
X128988571Y-78962438D01*
X128988571Y-78962438D02*
X129083809Y-79057676D01*
X129083809Y-79057676D02*
X129131428Y-79152914D01*
X129131428Y-79152914D02*
X129179047Y-79343390D01*
X129179047Y-79343390D02*
X129179047Y-79486247D01*
X129179047Y-79486247D02*
X129131428Y-79676723D01*
X129131428Y-79676723D02*
X129083809Y-79771961D01*
X129083809Y-79771961D02*
X128988571Y-79867200D01*
X128988571Y-79867200D02*
X128845714Y-79914819D01*
X128845714Y-79914819D02*
X128607619Y-79914819D01*
X129560000Y-79629104D02*
X130036190Y-79629104D01*
X129464762Y-79914819D02*
X129798095Y-78914819D01*
X129798095Y-78914819D02*
X130131428Y-79914819D01*
X72860588Y-113717438D02*
X72765350Y-113669819D01*
X72765350Y-113669819D02*
X72622493Y-113669819D01*
X72622493Y-113669819D02*
X72479636Y-113717438D01*
X72479636Y-113717438D02*
X72384398Y-113812676D01*
X72384398Y-113812676D02*
X72336779Y-113907914D01*
X72336779Y-113907914D02*
X72289160Y-114098390D01*
X72289160Y-114098390D02*
X72289160Y-114241247D01*
X72289160Y-114241247D02*
X72336779Y-114431723D01*
X72336779Y-114431723D02*
X72384398Y-114526961D01*
X72384398Y-114526961D02*
X72479636Y-114622200D01*
X72479636Y-114622200D02*
X72622493Y-114669819D01*
X72622493Y-114669819D02*
X72717731Y-114669819D01*
X72717731Y-114669819D02*
X72860588Y-114622200D01*
X72860588Y-114622200D02*
X72908207Y-114574580D01*
X72908207Y-114574580D02*
X72908207Y-114241247D01*
X72908207Y-114241247D02*
X72717731Y-114241247D01*
X73336779Y-114669819D02*
X73336779Y-113669819D01*
X73336779Y-113669819D02*
X73717731Y-113669819D01*
X73717731Y-113669819D02*
X73812969Y-113717438D01*
X73812969Y-113717438D02*
X73860588Y-113765057D01*
X73860588Y-113765057D02*
X73908207Y-113860295D01*
X73908207Y-113860295D02*
X73908207Y-114003152D01*
X73908207Y-114003152D02*
X73860588Y-114098390D01*
X73860588Y-114098390D02*
X73812969Y-114146009D01*
X73812969Y-114146009D02*
X73717731Y-114193628D01*
X73717731Y-114193628D02*
X73336779Y-114193628D01*
X74289160Y-114622200D02*
X74432017Y-114669819D01*
X74432017Y-114669819D02*
X74670112Y-114669819D01*
X74670112Y-114669819D02*
X74765350Y-114622200D01*
X74765350Y-114622200D02*
X74812969Y-114574580D01*
X74812969Y-114574580D02*
X74860588Y-114479342D01*
X74860588Y-114479342D02*
X74860588Y-114384104D01*
X74860588Y-114384104D02*
X74812969Y-114288866D01*
X74812969Y-114288866D02*
X74765350Y-114241247D01*
X74765350Y-114241247D02*
X74670112Y-114193628D01*
X74670112Y-114193628D02*
X74479636Y-114146009D01*
X74479636Y-114146009D02*
X74384398Y-114098390D01*
X74384398Y-114098390D02*
X74336779Y-114050771D01*
X74336779Y-114050771D02*
X74289160Y-113955533D01*
X74289160Y-113955533D02*
X74289160Y-113860295D01*
X74289160Y-113860295D02*
X74336779Y-113765057D01*
X74336779Y-113765057D02*
X74384398Y-113717438D01*
X74384398Y-113717438D02*
X74479636Y-113669819D01*
X74479636Y-113669819D02*
X74717731Y-113669819D01*
X74717731Y-113669819D02*
X74860588Y-113717438D01*
X86747255Y-96930519D02*
X87318683Y-96930519D01*
X87032969Y-97930519D02*
X87032969Y-96930519D01*
X87556779Y-96930519D02*
X88223445Y-97930519D01*
X88223445Y-96930519D02*
X87556779Y-97930519D01*
X87223445Y-100310519D02*
X86890112Y-99834328D01*
X86652017Y-100310519D02*
X86652017Y-99310519D01*
X86652017Y-99310519D02*
X87032969Y-99310519D01*
X87032969Y-99310519D02*
X87128207Y-99358138D01*
X87128207Y-99358138D02*
X87175826Y-99405757D01*
X87175826Y-99405757D02*
X87223445Y-99500995D01*
X87223445Y-99500995D02*
X87223445Y-99643852D01*
X87223445Y-99643852D02*
X87175826Y-99739090D01*
X87175826Y-99739090D02*
X87128207Y-99786709D01*
X87128207Y-99786709D02*
X87032969Y-99834328D01*
X87032969Y-99834328D02*
X86652017Y-99834328D01*
X87556779Y-99310519D02*
X88223445Y-100310519D01*
X88223445Y-99310519D02*
X87556779Y-100310519D01*
X86080588Y-94337438D02*
X85985350Y-94289819D01*
X85985350Y-94289819D02*
X85842493Y-94289819D01*
X85842493Y-94289819D02*
X85699636Y-94337438D01*
X85699636Y-94337438D02*
X85604398Y-94432676D01*
X85604398Y-94432676D02*
X85556779Y-94527914D01*
X85556779Y-94527914D02*
X85509160Y-94718390D01*
X85509160Y-94718390D02*
X85509160Y-94861247D01*
X85509160Y-94861247D02*
X85556779Y-95051723D01*
X85556779Y-95051723D02*
X85604398Y-95146961D01*
X85604398Y-95146961D02*
X85699636Y-95242200D01*
X85699636Y-95242200D02*
X85842493Y-95289819D01*
X85842493Y-95289819D02*
X85937731Y-95289819D01*
X85937731Y-95289819D02*
X86080588Y-95242200D01*
X86080588Y-95242200D02*
X86128207Y-95194580D01*
X86128207Y-95194580D02*
X86128207Y-94861247D01*
X86128207Y-94861247D02*
X85937731Y-94861247D01*
X86556779Y-95289819D02*
X86556779Y-94289819D01*
X86556779Y-94289819D02*
X87128207Y-95289819D01*
X87128207Y-95289819D02*
X87128207Y-94289819D01*
X87604398Y-95289819D02*
X87604398Y-94289819D01*
X87604398Y-94289819D02*
X87842493Y-94289819D01*
X87842493Y-94289819D02*
X87985350Y-94337438D01*
X87985350Y-94337438D02*
X88080588Y-94432676D01*
X88080588Y-94432676D02*
X88128207Y-94527914D01*
X88128207Y-94527914D02*
X88175826Y-94718390D01*
X88175826Y-94718390D02*
X88175826Y-94861247D01*
X88175826Y-94861247D02*
X88128207Y-95051723D01*
X88128207Y-95051723D02*
X88080588Y-95146961D01*
X88080588Y-95146961D02*
X87985350Y-95242200D01*
X87985350Y-95242200D02*
X87842493Y-95289819D01*
X87842493Y-95289819D02*
X87604398Y-95289819D01*
X85604398Y-101820519D02*
X85937731Y-102820519D01*
X85937731Y-102820519D02*
X86271064Y-101820519D01*
X87175826Y-102725280D02*
X87128207Y-102772900D01*
X87128207Y-102772900D02*
X86985350Y-102820519D01*
X86985350Y-102820519D02*
X86890112Y-102820519D01*
X86890112Y-102820519D02*
X86747255Y-102772900D01*
X86747255Y-102772900D02*
X86652017Y-102677661D01*
X86652017Y-102677661D02*
X86604398Y-102582423D01*
X86604398Y-102582423D02*
X86556779Y-102391947D01*
X86556779Y-102391947D02*
X86556779Y-102249090D01*
X86556779Y-102249090D02*
X86604398Y-102058614D01*
X86604398Y-102058614D02*
X86652017Y-101963376D01*
X86652017Y-101963376D02*
X86747255Y-101868138D01*
X86747255Y-101868138D02*
X86890112Y-101820519D01*
X86890112Y-101820519D02*
X86985350Y-101820519D01*
X86985350Y-101820519D02*
X87128207Y-101868138D01*
X87128207Y-101868138D02*
X87175826Y-101915757D01*
X88175826Y-102725280D02*
X88128207Y-102772900D01*
X88128207Y-102772900D02*
X87985350Y-102820519D01*
X87985350Y-102820519D02*
X87890112Y-102820519D01*
X87890112Y-102820519D02*
X87747255Y-102772900D01*
X87747255Y-102772900D02*
X87652017Y-102677661D01*
X87652017Y-102677661D02*
X87604398Y-102582423D01*
X87604398Y-102582423D02*
X87556779Y-102391947D01*
X87556779Y-102391947D02*
X87556779Y-102249090D01*
X87556779Y-102249090D02*
X87604398Y-102058614D01*
X87604398Y-102058614D02*
X87652017Y-101963376D01*
X87652017Y-101963376D02*
X87747255Y-101868138D01*
X87747255Y-101868138D02*
X87890112Y-101820519D01*
X87890112Y-101820519D02*
X87985350Y-101820519D01*
X87985350Y-101820519D02*
X88128207Y-101868138D01*
X88128207Y-101868138D02*
X88175826Y-101915757D01*
X97197142Y-64079580D02*
X97149523Y-64127200D01*
X97149523Y-64127200D02*
X97006666Y-64174819D01*
X97006666Y-64174819D02*
X96911428Y-64174819D01*
X96911428Y-64174819D02*
X96768571Y-64127200D01*
X96768571Y-64127200D02*
X96673333Y-64031961D01*
X96673333Y-64031961D02*
X96625714Y-63936723D01*
X96625714Y-63936723D02*
X96578095Y-63746247D01*
X96578095Y-63746247D02*
X96578095Y-63603390D01*
X96578095Y-63603390D02*
X96625714Y-63412914D01*
X96625714Y-63412914D02*
X96673333Y-63317676D01*
X96673333Y-63317676D02*
X96768571Y-63222438D01*
X96768571Y-63222438D02*
X96911428Y-63174819D01*
X96911428Y-63174819D02*
X97006666Y-63174819D01*
X97006666Y-63174819D02*
X97149523Y-63222438D01*
X97149523Y-63222438D02*
X97197142Y-63270057D01*
X98149523Y-64174819D02*
X97578095Y-64174819D01*
X97863809Y-64174819D02*
X97863809Y-63174819D01*
X97863809Y-63174819D02*
X97768571Y-63317676D01*
X97768571Y-63317676D02*
X97673333Y-63412914D01*
X97673333Y-63412914D02*
X97578095Y-63460533D01*
X99006666Y-63508152D02*
X99006666Y-64174819D01*
X98768571Y-63127200D02*
X98530476Y-63841485D01*
X98530476Y-63841485D02*
X99149523Y-63841485D01*
D12*
X97182856Y-65974895D02*
X96725713Y-65974895D01*
X96954285Y-65974895D02*
X96954285Y-65174895D01*
X96954285Y-65174895D02*
X96878094Y-65289180D01*
X96878094Y-65289180D02*
X96801904Y-65365371D01*
X96801904Y-65365371D02*
X96725713Y-65403466D01*
X97678095Y-65174895D02*
X97754285Y-65174895D01*
X97754285Y-65174895D02*
X97830476Y-65212990D01*
X97830476Y-65212990D02*
X97868571Y-65251085D01*
X97868571Y-65251085D02*
X97906666Y-65327276D01*
X97906666Y-65327276D02*
X97944761Y-65479657D01*
X97944761Y-65479657D02*
X97944761Y-65670133D01*
X97944761Y-65670133D02*
X97906666Y-65822514D01*
X97906666Y-65822514D02*
X97868571Y-65898704D01*
X97868571Y-65898704D02*
X97830476Y-65936800D01*
X97830476Y-65936800D02*
X97754285Y-65974895D01*
X97754285Y-65974895D02*
X97678095Y-65974895D01*
X97678095Y-65974895D02*
X97601904Y-65936800D01*
X97601904Y-65936800D02*
X97563809Y-65898704D01*
X97563809Y-65898704D02*
X97525714Y-65822514D01*
X97525714Y-65822514D02*
X97487618Y-65670133D01*
X97487618Y-65670133D02*
X97487618Y-65479657D01*
X97487618Y-65479657D02*
X97525714Y-65327276D01*
X97525714Y-65327276D02*
X97563809Y-65251085D01*
X97563809Y-65251085D02*
X97601904Y-65212990D01*
X97601904Y-65212990D02*
X97678095Y-65174895D01*
X98630476Y-65441561D02*
X98630476Y-65974895D01*
X98287619Y-65441561D02*
X98287619Y-65860609D01*
X98287619Y-65860609D02*
X98325714Y-65936800D01*
X98325714Y-65936800D02*
X98401904Y-65974895D01*
X98401904Y-65974895D02*
X98516190Y-65974895D01*
X98516190Y-65974895D02*
X98592381Y-65936800D01*
X98592381Y-65936800D02*
X98630476Y-65898704D01*
X99278095Y-65555847D02*
X99011429Y-65555847D01*
X99011429Y-65974895D02*
X99011429Y-65174895D01*
X99011429Y-65174895D02*
X99392381Y-65174895D01*
D11*
X114132381Y-78834819D02*
X114703809Y-78834819D01*
X114418095Y-79834819D02*
X114418095Y-78834819D01*
X115037143Y-79834819D02*
X115037143Y-78834819D01*
X115037143Y-78834819D02*
X115418095Y-78834819D01*
X115418095Y-78834819D02*
X115513333Y-78882438D01*
X115513333Y-78882438D02*
X115560952Y-78930057D01*
X115560952Y-78930057D02*
X115608571Y-79025295D01*
X115608571Y-79025295D02*
X115608571Y-79168152D01*
X115608571Y-79168152D02*
X115560952Y-79263390D01*
X115560952Y-79263390D02*
X115513333Y-79311009D01*
X115513333Y-79311009D02*
X115418095Y-79358628D01*
X115418095Y-79358628D02*
X115037143Y-79358628D01*
X115799048Y-79930057D02*
X116560952Y-79930057D01*
X116751429Y-79787200D02*
X116894286Y-79834819D01*
X116894286Y-79834819D02*
X117132381Y-79834819D01*
X117132381Y-79834819D02*
X117227619Y-79787200D01*
X117227619Y-79787200D02*
X117275238Y-79739580D01*
X117275238Y-79739580D02*
X117322857Y-79644342D01*
X117322857Y-79644342D02*
X117322857Y-79549104D01*
X117322857Y-79549104D02*
X117275238Y-79453866D01*
X117275238Y-79453866D02*
X117227619Y-79406247D01*
X117227619Y-79406247D02*
X117132381Y-79358628D01*
X117132381Y-79358628D02*
X116941905Y-79311009D01*
X116941905Y-79311009D02*
X116846667Y-79263390D01*
X116846667Y-79263390D02*
X116799048Y-79215771D01*
X116799048Y-79215771D02*
X116751429Y-79120533D01*
X116751429Y-79120533D02*
X116751429Y-79025295D01*
X116751429Y-79025295D02*
X116799048Y-78930057D01*
X116799048Y-78930057D02*
X116846667Y-78882438D01*
X116846667Y-78882438D02*
X116941905Y-78834819D01*
X116941905Y-78834819D02*
X117180000Y-78834819D01*
X117180000Y-78834819D02*
X117322857Y-78882438D01*
X118322857Y-79739580D02*
X118275238Y-79787200D01*
X118275238Y-79787200D02*
X118132381Y-79834819D01*
X118132381Y-79834819D02*
X118037143Y-79834819D01*
X118037143Y-79834819D02*
X117894286Y-79787200D01*
X117894286Y-79787200D02*
X117799048Y-79691961D01*
X117799048Y-79691961D02*
X117751429Y-79596723D01*
X117751429Y-79596723D02*
X117703810Y-79406247D01*
X117703810Y-79406247D02*
X117703810Y-79263390D01*
X117703810Y-79263390D02*
X117751429Y-79072914D01*
X117751429Y-79072914D02*
X117799048Y-78977676D01*
X117799048Y-78977676D02*
X117894286Y-78882438D01*
X117894286Y-78882438D02*
X118037143Y-78834819D01*
X118037143Y-78834819D02*
X118132381Y-78834819D01*
X118132381Y-78834819D02*
X118275238Y-78882438D01*
X118275238Y-78882438D02*
X118322857Y-78930057D01*
X119227619Y-79834819D02*
X118751429Y-79834819D01*
X118751429Y-79834819D02*
X118751429Y-78834819D01*
X169589524Y-71974819D02*
X170160952Y-71974819D01*
X169875238Y-72974819D02*
X169875238Y-71974819D01*
X170494286Y-72974819D02*
X170494286Y-71974819D01*
X170494286Y-71974819D02*
X170875238Y-71974819D01*
X170875238Y-71974819D02*
X170970476Y-72022438D01*
X170970476Y-72022438D02*
X171018095Y-72070057D01*
X171018095Y-72070057D02*
X171065714Y-72165295D01*
X171065714Y-72165295D02*
X171065714Y-72308152D01*
X171065714Y-72308152D02*
X171018095Y-72403390D01*
X171018095Y-72403390D02*
X170970476Y-72451009D01*
X170970476Y-72451009D02*
X170875238Y-72498628D01*
X170875238Y-72498628D02*
X170494286Y-72498628D01*
X171256191Y-73070057D02*
X172018095Y-73070057D01*
X172780000Y-72022438D02*
X172684762Y-71974819D01*
X172684762Y-71974819D02*
X172541905Y-71974819D01*
X172541905Y-71974819D02*
X172399048Y-72022438D01*
X172399048Y-72022438D02*
X172303810Y-72117676D01*
X172303810Y-72117676D02*
X172256191Y-72212914D01*
X172256191Y-72212914D02*
X172208572Y-72403390D01*
X172208572Y-72403390D02*
X172208572Y-72546247D01*
X172208572Y-72546247D02*
X172256191Y-72736723D01*
X172256191Y-72736723D02*
X172303810Y-72831961D01*
X172303810Y-72831961D02*
X172399048Y-72927200D01*
X172399048Y-72927200D02*
X172541905Y-72974819D01*
X172541905Y-72974819D02*
X172637143Y-72974819D01*
X172637143Y-72974819D02*
X172780000Y-72927200D01*
X172780000Y-72927200D02*
X172827619Y-72879580D01*
X172827619Y-72879580D02*
X172827619Y-72546247D01*
X172827619Y-72546247D02*
X172637143Y-72546247D01*
X173256191Y-72974819D02*
X173256191Y-71974819D01*
X173256191Y-71974819D02*
X173827619Y-72974819D01*
X173827619Y-72974819D02*
X173827619Y-71974819D01*
X174303810Y-72974819D02*
X174303810Y-71974819D01*
X174303810Y-71974819D02*
X174541905Y-71974819D01*
X174541905Y-71974819D02*
X174684762Y-72022438D01*
X174684762Y-72022438D02*
X174780000Y-72117676D01*
X174780000Y-72117676D02*
X174827619Y-72212914D01*
X174827619Y-72212914D02*
X174875238Y-72403390D01*
X174875238Y-72403390D02*
X174875238Y-72546247D01*
X174875238Y-72546247D02*
X174827619Y-72736723D01*
X174827619Y-72736723D02*
X174780000Y-72831961D01*
X174780000Y-72831961D02*
X174684762Y-72927200D01*
X174684762Y-72927200D02*
X174541905Y-72974819D01*
X174541905Y-72974819D02*
X174303810Y-72974819D01*
X178573333Y-129829580D02*
X178525714Y-129877200D01*
X178525714Y-129877200D02*
X178382857Y-129924819D01*
X178382857Y-129924819D02*
X178287619Y-129924819D01*
X178287619Y-129924819D02*
X178144762Y-129877200D01*
X178144762Y-129877200D02*
X178049524Y-129781961D01*
X178049524Y-129781961D02*
X178001905Y-129686723D01*
X178001905Y-129686723D02*
X177954286Y-129496247D01*
X177954286Y-129496247D02*
X177954286Y-129353390D01*
X177954286Y-129353390D02*
X178001905Y-129162914D01*
X178001905Y-129162914D02*
X178049524Y-129067676D01*
X178049524Y-129067676D02*
X178144762Y-128972438D01*
X178144762Y-128972438D02*
X178287619Y-128924819D01*
X178287619Y-128924819D02*
X178382857Y-128924819D01*
X178382857Y-128924819D02*
X178525714Y-128972438D01*
X178525714Y-128972438D02*
X178573333Y-129020057D01*
X178954286Y-129020057D02*
X179001905Y-128972438D01*
X179001905Y-128972438D02*
X179097143Y-128924819D01*
X179097143Y-128924819D02*
X179335238Y-128924819D01*
X179335238Y-128924819D02*
X179430476Y-128972438D01*
X179430476Y-128972438D02*
X179478095Y-129020057D01*
X179478095Y-129020057D02*
X179525714Y-129115295D01*
X179525714Y-129115295D02*
X179525714Y-129210533D01*
X179525714Y-129210533D02*
X179478095Y-129353390D01*
X179478095Y-129353390D02*
X178906667Y-129924819D01*
X178906667Y-129924819D02*
X179525714Y-129924819D01*
D12*
X177332856Y-131304895D02*
X176875713Y-131304895D01*
X177104285Y-131304895D02*
X177104285Y-130504895D01*
X177104285Y-130504895D02*
X177028094Y-130619180D01*
X177028094Y-130619180D02*
X176951904Y-130695371D01*
X176951904Y-130695371D02*
X176875713Y-130733466D01*
X177828095Y-130504895D02*
X177904285Y-130504895D01*
X177904285Y-130504895D02*
X177980476Y-130542990D01*
X177980476Y-130542990D02*
X178018571Y-130581085D01*
X178018571Y-130581085D02*
X178056666Y-130657276D01*
X178056666Y-130657276D02*
X178094761Y-130809657D01*
X178094761Y-130809657D02*
X178094761Y-131000133D01*
X178094761Y-131000133D02*
X178056666Y-131152514D01*
X178056666Y-131152514D02*
X178018571Y-131228704D01*
X178018571Y-131228704D02*
X177980476Y-131266800D01*
X177980476Y-131266800D02*
X177904285Y-131304895D01*
X177904285Y-131304895D02*
X177828095Y-131304895D01*
X177828095Y-131304895D02*
X177751904Y-131266800D01*
X177751904Y-131266800D02*
X177713809Y-131228704D01*
X177713809Y-131228704D02*
X177675714Y-131152514D01*
X177675714Y-131152514D02*
X177637618Y-131000133D01*
X177637618Y-131000133D02*
X177637618Y-130809657D01*
X177637618Y-130809657D02*
X177675714Y-130657276D01*
X177675714Y-130657276D02*
X177713809Y-130581085D01*
X177713809Y-130581085D02*
X177751904Y-130542990D01*
X177751904Y-130542990D02*
X177828095Y-130504895D01*
X178437619Y-130771561D02*
X178437619Y-131304895D01*
X178437619Y-130847752D02*
X178475714Y-130809657D01*
X178475714Y-130809657D02*
X178551904Y-130771561D01*
X178551904Y-130771561D02*
X178666190Y-130771561D01*
X178666190Y-130771561D02*
X178742381Y-130809657D01*
X178742381Y-130809657D02*
X178780476Y-130885847D01*
X178780476Y-130885847D02*
X178780476Y-131304895D01*
X179428095Y-130885847D02*
X179161429Y-130885847D01*
X179161429Y-131304895D02*
X179161429Y-130504895D01*
X179161429Y-130504895D02*
X179542381Y-130504895D01*
D11*
X173572381Y-126284819D02*
X174143809Y-126284819D01*
X173858095Y-127284819D02*
X173858095Y-126284819D01*
X174477143Y-127284819D02*
X174477143Y-126284819D01*
X174477143Y-126284819D02*
X174858095Y-126284819D01*
X174858095Y-126284819D02*
X174953333Y-126332438D01*
X174953333Y-126332438D02*
X175000952Y-126380057D01*
X175000952Y-126380057D02*
X175048571Y-126475295D01*
X175048571Y-126475295D02*
X175048571Y-126618152D01*
X175048571Y-126618152D02*
X175000952Y-126713390D01*
X175000952Y-126713390D02*
X174953333Y-126761009D01*
X174953333Y-126761009D02*
X174858095Y-126808628D01*
X174858095Y-126808628D02*
X174477143Y-126808628D01*
X175239048Y-127380057D02*
X176000952Y-127380057D01*
X176143810Y-126284819D02*
X176762857Y-126284819D01*
X176762857Y-126284819D02*
X176429524Y-126665771D01*
X176429524Y-126665771D02*
X176572381Y-126665771D01*
X176572381Y-126665771D02*
X176667619Y-126713390D01*
X176667619Y-126713390D02*
X176715238Y-126761009D01*
X176715238Y-126761009D02*
X176762857Y-126856247D01*
X176762857Y-126856247D02*
X176762857Y-127094342D01*
X176762857Y-127094342D02*
X176715238Y-127189580D01*
X176715238Y-127189580D02*
X176667619Y-127237200D01*
X176667619Y-127237200D02*
X176572381Y-127284819D01*
X176572381Y-127284819D02*
X176286667Y-127284819D01*
X176286667Y-127284819D02*
X176191429Y-127237200D01*
X176191429Y-127237200D02*
X176143810Y-127189580D01*
X177048572Y-126284819D02*
X177381905Y-127284819D01*
X177381905Y-127284819D02*
X177715238Y-126284819D01*
X177953334Y-126284819D02*
X178572381Y-126284819D01*
X178572381Y-126284819D02*
X178239048Y-126665771D01*
X178239048Y-126665771D02*
X178381905Y-126665771D01*
X178381905Y-126665771D02*
X178477143Y-126713390D01*
X178477143Y-126713390D02*
X178524762Y-126761009D01*
X178524762Y-126761009D02*
X178572381Y-126856247D01*
X178572381Y-126856247D02*
X178572381Y-127094342D01*
X178572381Y-127094342D02*
X178524762Y-127189580D01*
X178524762Y-127189580D02*
X178477143Y-127237200D01*
X178477143Y-127237200D02*
X178381905Y-127284819D01*
X178381905Y-127284819D02*
X178096191Y-127284819D01*
X178096191Y-127284819D02*
X178000953Y-127237200D01*
X178000953Y-127237200D02*
X177953334Y-127189580D01*
X214523333Y-145559580D02*
X214475714Y-145607200D01*
X214475714Y-145607200D02*
X214332857Y-145654819D01*
X214332857Y-145654819D02*
X214237619Y-145654819D01*
X214237619Y-145654819D02*
X214094762Y-145607200D01*
X214094762Y-145607200D02*
X213999524Y-145511961D01*
X213999524Y-145511961D02*
X213951905Y-145416723D01*
X213951905Y-145416723D02*
X213904286Y-145226247D01*
X213904286Y-145226247D02*
X213904286Y-145083390D01*
X213904286Y-145083390D02*
X213951905Y-144892914D01*
X213951905Y-144892914D02*
X213999524Y-144797676D01*
X213999524Y-144797676D02*
X214094762Y-144702438D01*
X214094762Y-144702438D02*
X214237619Y-144654819D01*
X214237619Y-144654819D02*
X214332857Y-144654819D01*
X214332857Y-144654819D02*
X214475714Y-144702438D01*
X214475714Y-144702438D02*
X214523333Y-144750057D01*
X215428095Y-144654819D02*
X214951905Y-144654819D01*
X214951905Y-144654819D02*
X214904286Y-145131009D01*
X214904286Y-145131009D02*
X214951905Y-145083390D01*
X214951905Y-145083390D02*
X215047143Y-145035771D01*
X215047143Y-145035771D02*
X215285238Y-145035771D01*
X215285238Y-145035771D02*
X215380476Y-145083390D01*
X215380476Y-145083390D02*
X215428095Y-145131009D01*
X215428095Y-145131009D02*
X215475714Y-145226247D01*
X215475714Y-145226247D02*
X215475714Y-145464342D01*
X215475714Y-145464342D02*
X215428095Y-145559580D01*
X215428095Y-145559580D02*
X215380476Y-145607200D01*
X215380476Y-145607200D02*
X215285238Y-145654819D01*
X215285238Y-145654819D02*
X215047143Y-145654819D01*
X215047143Y-145654819D02*
X214951905Y-145607200D01*
X214951905Y-145607200D02*
X214904286Y-145559580D01*
D12*
X213942856Y-146894895D02*
X213485713Y-146894895D01*
X213714285Y-146894895D02*
X213714285Y-146094895D01*
X213714285Y-146094895D02*
X213638094Y-146209180D01*
X213638094Y-146209180D02*
X213561904Y-146285371D01*
X213561904Y-146285371D02*
X213485713Y-146323466D01*
X214438095Y-146094895D02*
X214514285Y-146094895D01*
X214514285Y-146094895D02*
X214590476Y-146132990D01*
X214590476Y-146132990D02*
X214628571Y-146171085D01*
X214628571Y-146171085D02*
X214666666Y-146247276D01*
X214666666Y-146247276D02*
X214704761Y-146399657D01*
X214704761Y-146399657D02*
X214704761Y-146590133D01*
X214704761Y-146590133D02*
X214666666Y-146742514D01*
X214666666Y-146742514D02*
X214628571Y-146818704D01*
X214628571Y-146818704D02*
X214590476Y-146856800D01*
X214590476Y-146856800D02*
X214514285Y-146894895D01*
X214514285Y-146894895D02*
X214438095Y-146894895D01*
X214438095Y-146894895D02*
X214361904Y-146856800D01*
X214361904Y-146856800D02*
X214323809Y-146818704D01*
X214323809Y-146818704D02*
X214285714Y-146742514D01*
X214285714Y-146742514D02*
X214247618Y-146590133D01*
X214247618Y-146590133D02*
X214247618Y-146399657D01*
X214247618Y-146399657D02*
X214285714Y-146247276D01*
X214285714Y-146247276D02*
X214323809Y-146171085D01*
X214323809Y-146171085D02*
X214361904Y-146132990D01*
X214361904Y-146132990D02*
X214438095Y-146094895D01*
X215390476Y-146361561D02*
X215390476Y-146894895D01*
X215047619Y-146361561D02*
X215047619Y-146780609D01*
X215047619Y-146780609D02*
X215085714Y-146856800D01*
X215085714Y-146856800D02*
X215161904Y-146894895D01*
X215161904Y-146894895D02*
X215276190Y-146894895D01*
X215276190Y-146894895D02*
X215352381Y-146856800D01*
X215352381Y-146856800D02*
X215390476Y-146818704D01*
X216038095Y-146475847D02*
X215771429Y-146475847D01*
X215771429Y-146894895D02*
X215771429Y-146094895D01*
X215771429Y-146094895D02*
X216152381Y-146094895D01*
D11*
X199162381Y-71496819D02*
X199733809Y-71496819D01*
X199448095Y-72496819D02*
X199448095Y-71496819D01*
X200067143Y-72496819D02*
X200067143Y-71496819D01*
X200067143Y-71496819D02*
X200448095Y-71496819D01*
X200448095Y-71496819D02*
X200543333Y-71544438D01*
X200543333Y-71544438D02*
X200590952Y-71592057D01*
X200590952Y-71592057D02*
X200638571Y-71687295D01*
X200638571Y-71687295D02*
X200638571Y-71830152D01*
X200638571Y-71830152D02*
X200590952Y-71925390D01*
X200590952Y-71925390D02*
X200543333Y-71973009D01*
X200543333Y-71973009D02*
X200448095Y-72020628D01*
X200448095Y-72020628D02*
X200067143Y-72020628D01*
X200829048Y-72592057D02*
X201590952Y-72592057D01*
X201733810Y-71496819D02*
X202352857Y-71496819D01*
X202352857Y-71496819D02*
X202019524Y-71877771D01*
X202019524Y-71877771D02*
X202162381Y-71877771D01*
X202162381Y-71877771D02*
X202257619Y-71925390D01*
X202257619Y-71925390D02*
X202305238Y-71973009D01*
X202305238Y-71973009D02*
X202352857Y-72068247D01*
X202352857Y-72068247D02*
X202352857Y-72306342D01*
X202352857Y-72306342D02*
X202305238Y-72401580D01*
X202305238Y-72401580D02*
X202257619Y-72449200D01*
X202257619Y-72449200D02*
X202162381Y-72496819D01*
X202162381Y-72496819D02*
X201876667Y-72496819D01*
X201876667Y-72496819D02*
X201781429Y-72449200D01*
X201781429Y-72449200D02*
X201733810Y-72401580D01*
X202638572Y-71496819D02*
X202971905Y-72496819D01*
X202971905Y-72496819D02*
X203305238Y-71496819D01*
X203543334Y-71496819D02*
X204162381Y-71496819D01*
X204162381Y-71496819D02*
X203829048Y-71877771D01*
X203829048Y-71877771D02*
X203971905Y-71877771D01*
X203971905Y-71877771D02*
X204067143Y-71925390D01*
X204067143Y-71925390D02*
X204114762Y-71973009D01*
X204114762Y-71973009D02*
X204162381Y-72068247D01*
X204162381Y-72068247D02*
X204162381Y-72306342D01*
X204162381Y-72306342D02*
X204114762Y-72401580D01*
X204114762Y-72401580D02*
X204067143Y-72449200D01*
X204067143Y-72449200D02*
X203971905Y-72496819D01*
X203971905Y-72496819D02*
X203686191Y-72496819D01*
X203686191Y-72496819D02*
X203590953Y-72449200D01*
X203590953Y-72449200D02*
X203543334Y-72401580D01*
X225213922Y-155259819D02*
X225785350Y-155259819D01*
X225499636Y-156259819D02*
X225499636Y-155259819D01*
X226118684Y-155736009D02*
X226452017Y-155736009D01*
X226594874Y-156259819D02*
X226118684Y-156259819D01*
X226118684Y-156259819D02*
X226118684Y-155259819D01*
X226118684Y-155259819D02*
X226594874Y-155259819D01*
X227499636Y-156259819D02*
X227023446Y-156259819D01*
X227023446Y-156259819D02*
X227023446Y-155259819D01*
X227832970Y-155736009D02*
X228166303Y-155736009D01*
X228309160Y-156259819D02*
X227832970Y-156259819D01*
X227832970Y-156259819D02*
X227832970Y-155259819D01*
X227832970Y-155259819D02*
X228309160Y-155259819D01*
X228737732Y-156259819D02*
X228737732Y-155259819D01*
X228737732Y-155259819D02*
X229071065Y-155974104D01*
X229071065Y-155974104D02*
X229404398Y-155259819D01*
X229404398Y-155259819D02*
X229404398Y-156259819D01*
X229880589Y-155736009D02*
X230213922Y-155736009D01*
X230356779Y-156259819D02*
X229880589Y-156259819D01*
X229880589Y-156259819D02*
X229880589Y-155259819D01*
X229880589Y-155259819D02*
X230356779Y-155259819D01*
X230642494Y-155259819D02*
X231213922Y-155259819D01*
X230928208Y-156259819D02*
X230928208Y-155259819D01*
X232118684Y-156259819D02*
X231785351Y-155783628D01*
X231547256Y-156259819D02*
X231547256Y-155259819D01*
X231547256Y-155259819D02*
X231928208Y-155259819D01*
X231928208Y-155259819D02*
X232023446Y-155307438D01*
X232023446Y-155307438D02*
X232071065Y-155355057D01*
X232071065Y-155355057D02*
X232118684Y-155450295D01*
X232118684Y-155450295D02*
X232118684Y-155593152D01*
X232118684Y-155593152D02*
X232071065Y-155688390D01*
X232071065Y-155688390D02*
X232023446Y-155736009D01*
X232023446Y-155736009D02*
X231928208Y-155783628D01*
X231928208Y-155783628D02*
X231547256Y-155783628D01*
X232547256Y-156259819D02*
X232547256Y-155259819D01*
X232642494Y-154878866D02*
X232499637Y-155021723D01*
X232975827Y-155974104D02*
X233452017Y-155974104D01*
X232880589Y-156259819D02*
X233213922Y-155259819D01*
X233213922Y-155259819D02*
X233547255Y-156259819D01*
X162978571Y-66634819D02*
X163549999Y-66634819D01*
X163264285Y-67634819D02*
X163264285Y-66634819D01*
X163883333Y-67634819D02*
X163883333Y-66634819D01*
X163883333Y-66634819D02*
X164264285Y-66634819D01*
X164264285Y-66634819D02*
X164359523Y-66682438D01*
X164359523Y-66682438D02*
X164407142Y-66730057D01*
X164407142Y-66730057D02*
X164454761Y-66825295D01*
X164454761Y-66825295D02*
X164454761Y-66968152D01*
X164454761Y-66968152D02*
X164407142Y-67063390D01*
X164407142Y-67063390D02*
X164359523Y-67111009D01*
X164359523Y-67111009D02*
X164264285Y-67158628D01*
X164264285Y-67158628D02*
X163883333Y-67158628D01*
X164645238Y-67730057D02*
X165407142Y-67730057D01*
X166216666Y-67634819D02*
X165883333Y-67158628D01*
X165645238Y-67634819D02*
X165645238Y-66634819D01*
X165645238Y-66634819D02*
X166026190Y-66634819D01*
X166026190Y-66634819D02*
X166121428Y-66682438D01*
X166121428Y-66682438D02*
X166169047Y-66730057D01*
X166169047Y-66730057D02*
X166216666Y-66825295D01*
X166216666Y-66825295D02*
X166216666Y-66968152D01*
X166216666Y-66968152D02*
X166169047Y-67063390D01*
X166169047Y-67063390D02*
X166121428Y-67111009D01*
X166121428Y-67111009D02*
X166026190Y-67158628D01*
X166026190Y-67158628D02*
X165645238Y-67158628D01*
X166597619Y-67349104D02*
X167073809Y-67349104D01*
X166502381Y-67634819D02*
X166835714Y-66634819D01*
X166835714Y-66634819D02*
X167169047Y-67634819D01*
X167502381Y-67634819D02*
X167502381Y-66634819D01*
X167502381Y-66634819D02*
X167740476Y-66634819D01*
X167740476Y-66634819D02*
X167883333Y-66682438D01*
X167883333Y-66682438D02*
X167978571Y-66777676D01*
X167978571Y-66777676D02*
X168026190Y-66872914D01*
X168026190Y-66872914D02*
X168073809Y-67063390D01*
X168073809Y-67063390D02*
X168073809Y-67206247D01*
X168073809Y-67206247D02*
X168026190Y-67396723D01*
X168026190Y-67396723D02*
X167978571Y-67491961D01*
X167978571Y-67491961D02*
X167883333Y-67587200D01*
X167883333Y-67587200D02*
X167740476Y-67634819D01*
X167740476Y-67634819D02*
X167502381Y-67634819D01*
X169073809Y-67634819D02*
X168740476Y-67158628D01*
X168502381Y-67634819D02*
X168502381Y-66634819D01*
X168502381Y-66634819D02*
X168883333Y-66634819D01*
X168883333Y-66634819D02*
X168978571Y-66682438D01*
X168978571Y-66682438D02*
X169026190Y-66730057D01*
X169026190Y-66730057D02*
X169073809Y-66825295D01*
X169073809Y-66825295D02*
X169073809Y-66968152D01*
X169073809Y-66968152D02*
X169026190Y-67063390D01*
X169026190Y-67063390D02*
X168978571Y-67111009D01*
X168978571Y-67111009D02*
X168883333Y-67158628D01*
X168883333Y-67158628D02*
X168502381Y-67158628D01*
X169407143Y-66634819D02*
X170073809Y-67634819D01*
X170073809Y-66634819D02*
X169407143Y-67634819D01*
X199179524Y-84054819D02*
X199750952Y-84054819D01*
X199465238Y-85054819D02*
X199465238Y-84054819D01*
X200084286Y-85054819D02*
X200084286Y-84054819D01*
X200084286Y-84054819D02*
X200465238Y-84054819D01*
X200465238Y-84054819D02*
X200560476Y-84102438D01*
X200560476Y-84102438D02*
X200608095Y-84150057D01*
X200608095Y-84150057D02*
X200655714Y-84245295D01*
X200655714Y-84245295D02*
X200655714Y-84388152D01*
X200655714Y-84388152D02*
X200608095Y-84483390D01*
X200608095Y-84483390D02*
X200560476Y-84531009D01*
X200560476Y-84531009D02*
X200465238Y-84578628D01*
X200465238Y-84578628D02*
X200084286Y-84578628D01*
X200846191Y-85150057D02*
X201608095Y-85150057D01*
X202370000Y-84102438D02*
X202274762Y-84054819D01*
X202274762Y-84054819D02*
X202131905Y-84054819D01*
X202131905Y-84054819D02*
X201989048Y-84102438D01*
X201989048Y-84102438D02*
X201893810Y-84197676D01*
X201893810Y-84197676D02*
X201846191Y-84292914D01*
X201846191Y-84292914D02*
X201798572Y-84483390D01*
X201798572Y-84483390D02*
X201798572Y-84626247D01*
X201798572Y-84626247D02*
X201846191Y-84816723D01*
X201846191Y-84816723D02*
X201893810Y-84911961D01*
X201893810Y-84911961D02*
X201989048Y-85007200D01*
X201989048Y-85007200D02*
X202131905Y-85054819D01*
X202131905Y-85054819D02*
X202227143Y-85054819D01*
X202227143Y-85054819D02*
X202370000Y-85007200D01*
X202370000Y-85007200D02*
X202417619Y-84959580D01*
X202417619Y-84959580D02*
X202417619Y-84626247D01*
X202417619Y-84626247D02*
X202227143Y-84626247D01*
X202846191Y-85054819D02*
X202846191Y-84054819D01*
X202846191Y-84054819D02*
X203417619Y-85054819D01*
X203417619Y-85054819D02*
X203417619Y-84054819D01*
X203893810Y-85054819D02*
X203893810Y-84054819D01*
X203893810Y-84054819D02*
X204131905Y-84054819D01*
X204131905Y-84054819D02*
X204274762Y-84102438D01*
X204274762Y-84102438D02*
X204370000Y-84197676D01*
X204370000Y-84197676D02*
X204417619Y-84292914D01*
X204417619Y-84292914D02*
X204465238Y-84483390D01*
X204465238Y-84483390D02*
X204465238Y-84626247D01*
X204465238Y-84626247D02*
X204417619Y-84816723D01*
X204417619Y-84816723D02*
X204370000Y-84911961D01*
X204370000Y-84911961D02*
X204274762Y-85007200D01*
X204274762Y-85007200D02*
X204131905Y-85054819D01*
X204131905Y-85054819D02*
X203893810Y-85054819D01*
X58570000Y-75124819D02*
X59141428Y-75124819D01*
X58855714Y-76124819D02*
X58855714Y-75124819D01*
X59474762Y-76124819D02*
X59474762Y-75124819D01*
X59474762Y-75124819D02*
X59855714Y-75124819D01*
X59855714Y-75124819D02*
X59950952Y-75172438D01*
X59950952Y-75172438D02*
X59998571Y-75220057D01*
X59998571Y-75220057D02*
X60046190Y-75315295D01*
X60046190Y-75315295D02*
X60046190Y-75458152D01*
X60046190Y-75458152D02*
X59998571Y-75553390D01*
X59998571Y-75553390D02*
X59950952Y-75601009D01*
X59950952Y-75601009D02*
X59855714Y-75648628D01*
X59855714Y-75648628D02*
X59474762Y-75648628D01*
X60236667Y-76220057D02*
X60998571Y-76220057D01*
X61760476Y-75172438D02*
X61665238Y-75124819D01*
X61665238Y-75124819D02*
X61522381Y-75124819D01*
X61522381Y-75124819D02*
X61379524Y-75172438D01*
X61379524Y-75172438D02*
X61284286Y-75267676D01*
X61284286Y-75267676D02*
X61236667Y-75362914D01*
X61236667Y-75362914D02*
X61189048Y-75553390D01*
X61189048Y-75553390D02*
X61189048Y-75696247D01*
X61189048Y-75696247D02*
X61236667Y-75886723D01*
X61236667Y-75886723D02*
X61284286Y-75981961D01*
X61284286Y-75981961D02*
X61379524Y-76077200D01*
X61379524Y-76077200D02*
X61522381Y-76124819D01*
X61522381Y-76124819D02*
X61617619Y-76124819D01*
X61617619Y-76124819D02*
X61760476Y-76077200D01*
X61760476Y-76077200D02*
X61808095Y-76029580D01*
X61808095Y-76029580D02*
X61808095Y-75696247D01*
X61808095Y-75696247D02*
X61617619Y-75696247D01*
X62236667Y-76124819D02*
X62236667Y-75124819D01*
X62236667Y-75124819D02*
X62617619Y-75124819D01*
X62617619Y-75124819D02*
X62712857Y-75172438D01*
X62712857Y-75172438D02*
X62760476Y-75220057D01*
X62760476Y-75220057D02*
X62808095Y-75315295D01*
X62808095Y-75315295D02*
X62808095Y-75458152D01*
X62808095Y-75458152D02*
X62760476Y-75553390D01*
X62760476Y-75553390D02*
X62712857Y-75601009D01*
X62712857Y-75601009D02*
X62617619Y-75648628D01*
X62617619Y-75648628D02*
X62236667Y-75648628D01*
X63189048Y-76077200D02*
X63331905Y-76124819D01*
X63331905Y-76124819D02*
X63570000Y-76124819D01*
X63570000Y-76124819D02*
X63665238Y-76077200D01*
X63665238Y-76077200D02*
X63712857Y-76029580D01*
X63712857Y-76029580D02*
X63760476Y-75934342D01*
X63760476Y-75934342D02*
X63760476Y-75839104D01*
X63760476Y-75839104D02*
X63712857Y-75743866D01*
X63712857Y-75743866D02*
X63665238Y-75696247D01*
X63665238Y-75696247D02*
X63570000Y-75648628D01*
X63570000Y-75648628D02*
X63379524Y-75601009D01*
X63379524Y-75601009D02*
X63284286Y-75553390D01*
X63284286Y-75553390D02*
X63236667Y-75505771D01*
X63236667Y-75505771D02*
X63189048Y-75410533D01*
X63189048Y-75410533D02*
X63189048Y-75315295D01*
X63189048Y-75315295D02*
X63236667Y-75220057D01*
X63236667Y-75220057D02*
X63284286Y-75172438D01*
X63284286Y-75172438D02*
X63379524Y-75124819D01*
X63379524Y-75124819D02*
X63617619Y-75124819D01*
X63617619Y-75124819D02*
X63760476Y-75172438D01*
X64046191Y-75124819D02*
X64617619Y-75124819D01*
X64331905Y-76124819D02*
X64331905Y-75124819D01*
X64855715Y-75124819D02*
X65522381Y-76124819D01*
X65522381Y-75124819D02*
X64855715Y-76124819D01*
X209243333Y-75372080D02*
X209195714Y-75419700D01*
X209195714Y-75419700D02*
X209052857Y-75467319D01*
X209052857Y-75467319D02*
X208957619Y-75467319D01*
X208957619Y-75467319D02*
X208814762Y-75419700D01*
X208814762Y-75419700D02*
X208719524Y-75324461D01*
X208719524Y-75324461D02*
X208671905Y-75229223D01*
X208671905Y-75229223D02*
X208624286Y-75038747D01*
X208624286Y-75038747D02*
X208624286Y-74895890D01*
X208624286Y-74895890D02*
X208671905Y-74705414D01*
X208671905Y-74705414D02*
X208719524Y-74610176D01*
X208719524Y-74610176D02*
X208814762Y-74514938D01*
X208814762Y-74514938D02*
X208957619Y-74467319D01*
X208957619Y-74467319D02*
X209052857Y-74467319D01*
X209052857Y-74467319D02*
X209195714Y-74514938D01*
X209195714Y-74514938D02*
X209243333Y-74562557D01*
X209719524Y-75467319D02*
X209910000Y-75467319D01*
X209910000Y-75467319D02*
X210005238Y-75419700D01*
X210005238Y-75419700D02*
X210052857Y-75372080D01*
X210052857Y-75372080D02*
X210148095Y-75229223D01*
X210148095Y-75229223D02*
X210195714Y-75038747D01*
X210195714Y-75038747D02*
X210195714Y-74657795D01*
X210195714Y-74657795D02*
X210148095Y-74562557D01*
X210148095Y-74562557D02*
X210100476Y-74514938D01*
X210100476Y-74514938D02*
X210005238Y-74467319D01*
X210005238Y-74467319D02*
X209814762Y-74467319D01*
X209814762Y-74467319D02*
X209719524Y-74514938D01*
X209719524Y-74514938D02*
X209671905Y-74562557D01*
X209671905Y-74562557D02*
X209624286Y-74657795D01*
X209624286Y-74657795D02*
X209624286Y-74895890D01*
X209624286Y-74895890D02*
X209671905Y-74991128D01*
X209671905Y-74991128D02*
X209719524Y-75038747D01*
X209719524Y-75038747D02*
X209814762Y-75086366D01*
X209814762Y-75086366D02*
X210005238Y-75086366D01*
X210005238Y-75086366D02*
X210100476Y-75038747D01*
X210100476Y-75038747D02*
X210148095Y-74991128D01*
X210148095Y-74991128D02*
X210195714Y-74895890D01*
D12*
X208211904Y-76727395D02*
X207754761Y-76727395D01*
X207983333Y-76727395D02*
X207983333Y-75927395D01*
X207983333Y-75927395D02*
X207907142Y-76041680D01*
X207907142Y-76041680D02*
X207830952Y-76117871D01*
X207830952Y-76117871D02*
X207754761Y-76155966D01*
X208707143Y-75927395D02*
X208783333Y-75927395D01*
X208783333Y-75927395D02*
X208859524Y-75965490D01*
X208859524Y-75965490D02*
X208897619Y-76003585D01*
X208897619Y-76003585D02*
X208935714Y-76079776D01*
X208935714Y-76079776D02*
X208973809Y-76232157D01*
X208973809Y-76232157D02*
X208973809Y-76422633D01*
X208973809Y-76422633D02*
X208935714Y-76575014D01*
X208935714Y-76575014D02*
X208897619Y-76651204D01*
X208897619Y-76651204D02*
X208859524Y-76689300D01*
X208859524Y-76689300D02*
X208783333Y-76727395D01*
X208783333Y-76727395D02*
X208707143Y-76727395D01*
X208707143Y-76727395D02*
X208630952Y-76689300D01*
X208630952Y-76689300D02*
X208592857Y-76651204D01*
X208592857Y-76651204D02*
X208554762Y-76575014D01*
X208554762Y-76575014D02*
X208516666Y-76422633D01*
X208516666Y-76422633D02*
X208516666Y-76232157D01*
X208516666Y-76232157D02*
X208554762Y-76079776D01*
X208554762Y-76079776D02*
X208592857Y-76003585D01*
X208592857Y-76003585D02*
X208630952Y-75965490D01*
X208630952Y-75965490D02*
X208707143Y-75927395D01*
X209469048Y-75927395D02*
X209545238Y-75927395D01*
X209545238Y-75927395D02*
X209621429Y-75965490D01*
X209621429Y-75965490D02*
X209659524Y-76003585D01*
X209659524Y-76003585D02*
X209697619Y-76079776D01*
X209697619Y-76079776D02*
X209735714Y-76232157D01*
X209735714Y-76232157D02*
X209735714Y-76422633D01*
X209735714Y-76422633D02*
X209697619Y-76575014D01*
X209697619Y-76575014D02*
X209659524Y-76651204D01*
X209659524Y-76651204D02*
X209621429Y-76689300D01*
X209621429Y-76689300D02*
X209545238Y-76727395D01*
X209545238Y-76727395D02*
X209469048Y-76727395D01*
X209469048Y-76727395D02*
X209392857Y-76689300D01*
X209392857Y-76689300D02*
X209354762Y-76651204D01*
X209354762Y-76651204D02*
X209316667Y-76575014D01*
X209316667Y-76575014D02*
X209278571Y-76422633D01*
X209278571Y-76422633D02*
X209278571Y-76232157D01*
X209278571Y-76232157D02*
X209316667Y-76079776D01*
X209316667Y-76079776D02*
X209354762Y-76003585D01*
X209354762Y-76003585D02*
X209392857Y-75965490D01*
X209392857Y-75965490D02*
X209469048Y-75927395D01*
X210421429Y-76194061D02*
X210421429Y-76727395D01*
X210078572Y-76194061D02*
X210078572Y-76613109D01*
X210078572Y-76613109D02*
X210116667Y-76689300D01*
X210116667Y-76689300D02*
X210192857Y-76727395D01*
X210192857Y-76727395D02*
X210307143Y-76727395D01*
X210307143Y-76727395D02*
X210383334Y-76689300D01*
X210383334Y-76689300D02*
X210421429Y-76651204D01*
X211069048Y-76308347D02*
X210802382Y-76308347D01*
X210802382Y-76727395D02*
X210802382Y-75927395D01*
X210802382Y-75927395D02*
X211183334Y-75927395D01*
D11*
X164548571Y-140314819D02*
X165119999Y-140314819D01*
X164834285Y-141314819D02*
X164834285Y-140314819D01*
X165453333Y-141314819D02*
X165453333Y-140314819D01*
X165453333Y-140314819D02*
X165834285Y-140314819D01*
X165834285Y-140314819D02*
X165929523Y-140362438D01*
X165929523Y-140362438D02*
X165977142Y-140410057D01*
X165977142Y-140410057D02*
X166024761Y-140505295D01*
X166024761Y-140505295D02*
X166024761Y-140648152D01*
X166024761Y-140648152D02*
X165977142Y-140743390D01*
X165977142Y-140743390D02*
X165929523Y-140791009D01*
X165929523Y-140791009D02*
X165834285Y-140838628D01*
X165834285Y-140838628D02*
X165453333Y-140838628D01*
X166215238Y-141410057D02*
X166977142Y-141410057D01*
X167691428Y-140314819D02*
X167215238Y-140314819D01*
X167215238Y-140314819D02*
X167167619Y-140791009D01*
X167167619Y-140791009D02*
X167215238Y-140743390D01*
X167215238Y-140743390D02*
X167310476Y-140695771D01*
X167310476Y-140695771D02*
X167548571Y-140695771D01*
X167548571Y-140695771D02*
X167643809Y-140743390D01*
X167643809Y-140743390D02*
X167691428Y-140791009D01*
X167691428Y-140791009D02*
X167739047Y-140886247D01*
X167739047Y-140886247D02*
X167739047Y-141124342D01*
X167739047Y-141124342D02*
X167691428Y-141219580D01*
X167691428Y-141219580D02*
X167643809Y-141267200D01*
X167643809Y-141267200D02*
X167548571Y-141314819D01*
X167548571Y-141314819D02*
X167310476Y-141314819D01*
X167310476Y-141314819D02*
X167215238Y-141267200D01*
X167215238Y-141267200D02*
X167167619Y-141219580D01*
X168024762Y-140314819D02*
X168358095Y-141314819D01*
X168358095Y-141314819D02*
X168691428Y-140314819D01*
X118097200Y-69400839D02*
X118144819Y-69257982D01*
X118144819Y-69257982D02*
X118144819Y-69019887D01*
X118144819Y-69019887D02*
X118097200Y-68924649D01*
X118097200Y-68924649D02*
X118049580Y-68877030D01*
X118049580Y-68877030D02*
X117954342Y-68829411D01*
X117954342Y-68829411D02*
X117859104Y-68829411D01*
X117859104Y-68829411D02*
X117763866Y-68877030D01*
X117763866Y-68877030D02*
X117716247Y-68924649D01*
X117716247Y-68924649D02*
X117668628Y-69019887D01*
X117668628Y-69019887D02*
X117621009Y-69210363D01*
X117621009Y-69210363D02*
X117573390Y-69305601D01*
X117573390Y-69305601D02*
X117525771Y-69353220D01*
X117525771Y-69353220D02*
X117430533Y-69400839D01*
X117430533Y-69400839D02*
X117335295Y-69400839D01*
X117335295Y-69400839D02*
X117240057Y-69353220D01*
X117240057Y-69353220D02*
X117192438Y-69305601D01*
X117192438Y-69305601D02*
X117144819Y-69210363D01*
X117144819Y-69210363D02*
X117144819Y-68972268D01*
X117144819Y-68972268D02*
X117192438Y-68829411D01*
X118049580Y-67829411D02*
X118097200Y-67877030D01*
X118097200Y-67877030D02*
X118144819Y-68019887D01*
X118144819Y-68019887D02*
X118144819Y-68115125D01*
X118144819Y-68115125D02*
X118097200Y-68257982D01*
X118097200Y-68257982D02*
X118001961Y-68353220D01*
X118001961Y-68353220D02*
X117906723Y-68400839D01*
X117906723Y-68400839D02*
X117716247Y-68448458D01*
X117716247Y-68448458D02*
X117573390Y-68448458D01*
X117573390Y-68448458D02*
X117382914Y-68400839D01*
X117382914Y-68400839D02*
X117287676Y-68353220D01*
X117287676Y-68353220D02*
X117192438Y-68257982D01*
X117192438Y-68257982D02*
X117144819Y-68115125D01*
X117144819Y-68115125D02*
X117144819Y-68019887D01*
X117144819Y-68019887D02*
X117192438Y-67877030D01*
X117192438Y-67877030D02*
X117240057Y-67829411D01*
X118144819Y-66924649D02*
X118144819Y-67400839D01*
X118144819Y-67400839D02*
X117144819Y-67400839D01*
X135416009Y-70599887D02*
X135416009Y-70933220D01*
X135939819Y-70933220D02*
X134939819Y-70933220D01*
X134939819Y-70933220D02*
X134939819Y-70457030D01*
X135892200Y-70123696D02*
X135939819Y-69980839D01*
X135939819Y-69980839D02*
X135939819Y-69742744D01*
X135939819Y-69742744D02*
X135892200Y-69647506D01*
X135892200Y-69647506D02*
X135844580Y-69599887D01*
X135844580Y-69599887D02*
X135749342Y-69552268D01*
X135749342Y-69552268D02*
X135654104Y-69552268D01*
X135654104Y-69552268D02*
X135558866Y-69599887D01*
X135558866Y-69599887D02*
X135511247Y-69647506D01*
X135511247Y-69647506D02*
X135463628Y-69742744D01*
X135463628Y-69742744D02*
X135416009Y-69933220D01*
X135416009Y-69933220D02*
X135368390Y-70028458D01*
X135368390Y-70028458D02*
X135320771Y-70076077D01*
X135320771Y-70076077D02*
X135225533Y-70123696D01*
X135225533Y-70123696D02*
X135130295Y-70123696D01*
X135130295Y-70123696D02*
X135035057Y-70076077D01*
X135035057Y-70076077D02*
X134987438Y-70028458D01*
X134987438Y-70028458D02*
X134939819Y-69933220D01*
X134939819Y-69933220D02*
X134939819Y-69695125D01*
X134939819Y-69695125D02*
X134987438Y-69552268D01*
X135463628Y-68933220D02*
X135939819Y-68933220D01*
X134939819Y-69266553D02*
X135463628Y-68933220D01*
X135463628Y-68933220D02*
X134939819Y-68599887D01*
X135939819Y-68266553D02*
X134939819Y-68266553D01*
X134939819Y-68266553D02*
X135939819Y-67695125D01*
X135939819Y-67695125D02*
X134939819Y-67695125D01*
X135844580Y-66647506D02*
X135892200Y-66695125D01*
X135892200Y-66695125D02*
X135939819Y-66837982D01*
X135939819Y-66837982D02*
X135939819Y-66933220D01*
X135939819Y-66933220D02*
X135892200Y-67076077D01*
X135892200Y-67076077D02*
X135796961Y-67171315D01*
X135796961Y-67171315D02*
X135701723Y-67218934D01*
X135701723Y-67218934D02*
X135511247Y-67266553D01*
X135511247Y-67266553D02*
X135368390Y-67266553D01*
X135368390Y-67266553D02*
X135177914Y-67218934D01*
X135177914Y-67218934D02*
X135082676Y-67171315D01*
X135082676Y-67171315D02*
X134987438Y-67076077D01*
X134987438Y-67076077D02*
X134939819Y-66933220D01*
X134939819Y-66933220D02*
X134939819Y-66837982D01*
X134939819Y-66837982D02*
X134987438Y-66695125D01*
X134987438Y-66695125D02*
X135035057Y-66647506D01*
X130944819Y-68893220D02*
X129944819Y-68893220D01*
X130944819Y-68417030D02*
X129944819Y-68417030D01*
X129944819Y-68417030D02*
X130944819Y-67845602D01*
X130944819Y-67845602D02*
X129944819Y-67845602D01*
X129944819Y-67512268D02*
X129944819Y-66940840D01*
X130944819Y-67226554D02*
X129944819Y-67226554D01*
X133494819Y-69353220D02*
X132494819Y-69353220D01*
X132494819Y-69353220D02*
X133494819Y-68781792D01*
X133494819Y-68781792D02*
X132494819Y-68781792D01*
X133399580Y-67734173D02*
X133447200Y-67781792D01*
X133447200Y-67781792D02*
X133494819Y-67924649D01*
X133494819Y-67924649D02*
X133494819Y-68019887D01*
X133494819Y-68019887D02*
X133447200Y-68162744D01*
X133447200Y-68162744D02*
X133351961Y-68257982D01*
X133351961Y-68257982D02*
X133256723Y-68305601D01*
X133256723Y-68305601D02*
X133066247Y-68353220D01*
X133066247Y-68353220D02*
X132923390Y-68353220D01*
X132923390Y-68353220D02*
X132732914Y-68305601D01*
X132732914Y-68305601D02*
X132637676Y-68257982D01*
X132637676Y-68257982D02*
X132542438Y-68162744D01*
X132542438Y-68162744D02*
X132494819Y-68019887D01*
X132494819Y-68019887D02*
X132494819Y-67924649D01*
X132494819Y-67924649D02*
X132542438Y-67781792D01*
X132542438Y-67781792D02*
X132590057Y-67734173D01*
X133447200Y-67353220D02*
X133494819Y-67210363D01*
X133494819Y-67210363D02*
X133494819Y-66972268D01*
X133494819Y-66972268D02*
X133447200Y-66877030D01*
X133447200Y-66877030D02*
X133399580Y-66829411D01*
X133399580Y-66829411D02*
X133304342Y-66781792D01*
X133304342Y-66781792D02*
X133209104Y-66781792D01*
X133209104Y-66781792D02*
X133113866Y-66829411D01*
X133113866Y-66829411D02*
X133066247Y-66877030D01*
X133066247Y-66877030D02*
X133018628Y-66972268D01*
X133018628Y-66972268D02*
X132971009Y-67162744D01*
X132971009Y-67162744D02*
X132923390Y-67257982D01*
X132923390Y-67257982D02*
X132875771Y-67305601D01*
X132875771Y-67305601D02*
X132780533Y-67353220D01*
X132780533Y-67353220D02*
X132685295Y-67353220D01*
X132685295Y-67353220D02*
X132590057Y-67305601D01*
X132590057Y-67305601D02*
X132542438Y-67257982D01*
X132542438Y-67257982D02*
X132494819Y-67162744D01*
X132494819Y-67162744D02*
X132494819Y-66924649D01*
X132494819Y-66924649D02*
X132542438Y-66781792D01*
X128059104Y-69400839D02*
X128059104Y-68924649D01*
X128344819Y-69496077D02*
X127344819Y-69162744D01*
X127344819Y-69162744D02*
X128344819Y-68829411D01*
X128344819Y-68496077D02*
X127344819Y-68496077D01*
X127344819Y-68496077D02*
X127344819Y-68257982D01*
X127344819Y-68257982D02*
X127392438Y-68115125D01*
X127392438Y-68115125D02*
X127487676Y-68019887D01*
X127487676Y-68019887D02*
X127582914Y-67972268D01*
X127582914Y-67972268D02*
X127773390Y-67924649D01*
X127773390Y-67924649D02*
X127916247Y-67924649D01*
X127916247Y-67924649D02*
X128106723Y-67972268D01*
X128106723Y-67972268D02*
X128201961Y-68019887D01*
X128201961Y-68019887D02*
X128297200Y-68115125D01*
X128297200Y-68115125D02*
X128344819Y-68257982D01*
X128344819Y-68257982D02*
X128344819Y-68496077D01*
X127344819Y-67305601D02*
X127344819Y-67115125D01*
X127344819Y-67115125D02*
X127392438Y-67019887D01*
X127392438Y-67019887D02*
X127487676Y-66924649D01*
X127487676Y-66924649D02*
X127678152Y-66877030D01*
X127678152Y-66877030D02*
X128011485Y-66877030D01*
X128011485Y-66877030D02*
X128201961Y-66924649D01*
X128201961Y-66924649D02*
X128297200Y-67019887D01*
X128297200Y-67019887D02*
X128344819Y-67115125D01*
X128344819Y-67115125D02*
X128344819Y-67305601D01*
X128344819Y-67305601D02*
X128297200Y-67400839D01*
X128297200Y-67400839D02*
X128201961Y-67496077D01*
X128201961Y-67496077D02*
X128011485Y-67543696D01*
X128011485Y-67543696D02*
X127678152Y-67543696D01*
X127678152Y-67543696D02*
X127487676Y-67496077D01*
X127487676Y-67496077D02*
X127392438Y-67400839D01*
X127392438Y-67400839D02*
X127344819Y-67305601D01*
X111089819Y-69146077D02*
X112089819Y-68812744D01*
X112089819Y-68812744D02*
X111089819Y-68479411D01*
X111994580Y-67574649D02*
X112042200Y-67622268D01*
X112042200Y-67622268D02*
X112089819Y-67765125D01*
X112089819Y-67765125D02*
X112089819Y-67860363D01*
X112089819Y-67860363D02*
X112042200Y-68003220D01*
X112042200Y-68003220D02*
X111946961Y-68098458D01*
X111946961Y-68098458D02*
X111851723Y-68146077D01*
X111851723Y-68146077D02*
X111661247Y-68193696D01*
X111661247Y-68193696D02*
X111518390Y-68193696D01*
X111518390Y-68193696D02*
X111327914Y-68146077D01*
X111327914Y-68146077D02*
X111232676Y-68098458D01*
X111232676Y-68098458D02*
X111137438Y-68003220D01*
X111137438Y-68003220D02*
X111089819Y-67860363D01*
X111089819Y-67860363D02*
X111089819Y-67765125D01*
X111089819Y-67765125D02*
X111137438Y-67622268D01*
X111137438Y-67622268D02*
X111185057Y-67574649D01*
X111994580Y-66574649D02*
X112042200Y-66622268D01*
X112042200Y-66622268D02*
X112089819Y-66765125D01*
X112089819Y-66765125D02*
X112089819Y-66860363D01*
X112089819Y-66860363D02*
X112042200Y-67003220D01*
X112042200Y-67003220D02*
X111946961Y-67098458D01*
X111946961Y-67098458D02*
X111851723Y-67146077D01*
X111851723Y-67146077D02*
X111661247Y-67193696D01*
X111661247Y-67193696D02*
X111518390Y-67193696D01*
X111518390Y-67193696D02*
X111327914Y-67146077D01*
X111327914Y-67146077D02*
X111232676Y-67098458D01*
X111232676Y-67098458D02*
X111137438Y-67003220D01*
X111137438Y-67003220D02*
X111089819Y-66860363D01*
X111089819Y-66860363D02*
X111089819Y-66765125D01*
X111089819Y-66765125D02*
X111137438Y-66622268D01*
X111137438Y-66622268D02*
X111185057Y-66574649D01*
X114757438Y-70919411D02*
X114709819Y-71014649D01*
X114709819Y-71014649D02*
X114709819Y-71157506D01*
X114709819Y-71157506D02*
X114757438Y-71300363D01*
X114757438Y-71300363D02*
X114852676Y-71395601D01*
X114852676Y-71395601D02*
X114947914Y-71443220D01*
X114947914Y-71443220D02*
X115138390Y-71490839D01*
X115138390Y-71490839D02*
X115281247Y-71490839D01*
X115281247Y-71490839D02*
X115471723Y-71443220D01*
X115471723Y-71443220D02*
X115566961Y-71395601D01*
X115566961Y-71395601D02*
X115662200Y-71300363D01*
X115662200Y-71300363D02*
X115709819Y-71157506D01*
X115709819Y-71157506D02*
X115709819Y-71062268D01*
X115709819Y-71062268D02*
X115662200Y-70919411D01*
X115662200Y-70919411D02*
X115614580Y-70871792D01*
X115614580Y-70871792D02*
X115281247Y-70871792D01*
X115281247Y-70871792D02*
X115281247Y-71062268D01*
X115709819Y-70443220D02*
X114709819Y-70443220D01*
X114709819Y-70443220D02*
X115709819Y-69871792D01*
X115709819Y-69871792D02*
X114709819Y-69871792D01*
X115709819Y-69395601D02*
X114709819Y-69395601D01*
X114709819Y-69395601D02*
X114709819Y-69157506D01*
X114709819Y-69157506D02*
X114757438Y-69014649D01*
X114757438Y-69014649D02*
X114852676Y-68919411D01*
X114852676Y-68919411D02*
X114947914Y-68871792D01*
X114947914Y-68871792D02*
X115138390Y-68824173D01*
X115138390Y-68824173D02*
X115281247Y-68824173D01*
X115281247Y-68824173D02*
X115471723Y-68871792D01*
X115471723Y-68871792D02*
X115566961Y-68919411D01*
X115566961Y-68919411D02*
X115662200Y-69014649D01*
X115662200Y-69014649D02*
X115709819Y-69157506D01*
X115709819Y-69157506D02*
X115709819Y-69395601D01*
X120847200Y-69400839D02*
X120894819Y-69257982D01*
X120894819Y-69257982D02*
X120894819Y-69019887D01*
X120894819Y-69019887D02*
X120847200Y-68924649D01*
X120847200Y-68924649D02*
X120799580Y-68877030D01*
X120799580Y-68877030D02*
X120704342Y-68829411D01*
X120704342Y-68829411D02*
X120609104Y-68829411D01*
X120609104Y-68829411D02*
X120513866Y-68877030D01*
X120513866Y-68877030D02*
X120466247Y-68924649D01*
X120466247Y-68924649D02*
X120418628Y-69019887D01*
X120418628Y-69019887D02*
X120371009Y-69210363D01*
X120371009Y-69210363D02*
X120323390Y-69305601D01*
X120323390Y-69305601D02*
X120275771Y-69353220D01*
X120275771Y-69353220D02*
X120180533Y-69400839D01*
X120180533Y-69400839D02*
X120085295Y-69400839D01*
X120085295Y-69400839D02*
X119990057Y-69353220D01*
X119990057Y-69353220D02*
X119942438Y-69305601D01*
X119942438Y-69305601D02*
X119894819Y-69210363D01*
X119894819Y-69210363D02*
X119894819Y-68972268D01*
X119894819Y-68972268D02*
X119942438Y-68829411D01*
X120894819Y-68400839D02*
X119894819Y-68400839D01*
X119894819Y-68400839D02*
X119894819Y-68162744D01*
X119894819Y-68162744D02*
X119942438Y-68019887D01*
X119942438Y-68019887D02*
X120037676Y-67924649D01*
X120037676Y-67924649D02*
X120132914Y-67877030D01*
X120132914Y-67877030D02*
X120323390Y-67829411D01*
X120323390Y-67829411D02*
X120466247Y-67829411D01*
X120466247Y-67829411D02*
X120656723Y-67877030D01*
X120656723Y-67877030D02*
X120751961Y-67924649D01*
X120751961Y-67924649D02*
X120847200Y-68019887D01*
X120847200Y-68019887D02*
X120894819Y-68162744D01*
X120894819Y-68162744D02*
X120894819Y-68400839D01*
X120609104Y-67448458D02*
X120609104Y-66972268D01*
X120894819Y-67543696D02*
X119894819Y-67210363D01*
X119894819Y-67210363D02*
X120894819Y-66877030D01*
X125421009Y-69353220D02*
X125421009Y-69019887D01*
X125944819Y-68877030D02*
X125944819Y-69353220D01*
X125944819Y-69353220D02*
X124944819Y-69353220D01*
X124944819Y-69353220D02*
X124944819Y-68877030D01*
X125849580Y-67877030D02*
X125897200Y-67924649D01*
X125897200Y-67924649D02*
X125944819Y-68067506D01*
X125944819Y-68067506D02*
X125944819Y-68162744D01*
X125944819Y-68162744D02*
X125897200Y-68305601D01*
X125897200Y-68305601D02*
X125801961Y-68400839D01*
X125801961Y-68400839D02*
X125706723Y-68448458D01*
X125706723Y-68448458D02*
X125516247Y-68496077D01*
X125516247Y-68496077D02*
X125373390Y-68496077D01*
X125373390Y-68496077D02*
X125182914Y-68448458D01*
X125182914Y-68448458D02*
X125087676Y-68400839D01*
X125087676Y-68400839D02*
X124992438Y-68305601D01*
X124992438Y-68305601D02*
X124944819Y-68162744D01*
X124944819Y-68162744D02*
X124944819Y-68067506D01*
X124944819Y-68067506D02*
X124992438Y-67924649D01*
X124992438Y-67924649D02*
X125040057Y-67877030D01*
X125944819Y-66972268D02*
X125944819Y-67448458D01*
X125944819Y-67448458D02*
X124944819Y-67448458D01*
X122871009Y-69353220D02*
X122871009Y-69019887D01*
X123394819Y-68877030D02*
X123394819Y-69353220D01*
X123394819Y-69353220D02*
X122394819Y-69353220D01*
X122394819Y-69353220D02*
X122394819Y-68877030D01*
X123394819Y-68448458D02*
X122394819Y-68448458D01*
X122394819Y-68448458D02*
X122394819Y-68210363D01*
X122394819Y-68210363D02*
X122442438Y-68067506D01*
X122442438Y-68067506D02*
X122537676Y-67972268D01*
X122537676Y-67972268D02*
X122632914Y-67924649D01*
X122632914Y-67924649D02*
X122823390Y-67877030D01*
X122823390Y-67877030D02*
X122966247Y-67877030D01*
X122966247Y-67877030D02*
X123156723Y-67924649D01*
X123156723Y-67924649D02*
X123251961Y-67972268D01*
X123251961Y-67972268D02*
X123347200Y-68067506D01*
X123347200Y-68067506D02*
X123394819Y-68210363D01*
X123394819Y-68210363D02*
X123394819Y-68448458D01*
X123109104Y-67496077D02*
X123109104Y-67019887D01*
X123394819Y-67591315D02*
X122394819Y-67257982D01*
X122394819Y-67257982D02*
X123394819Y-66924649D01*
X199109524Y-152984819D02*
X199680952Y-152984819D01*
X199395238Y-153984819D02*
X199395238Y-152984819D01*
X200014286Y-153984819D02*
X200014286Y-152984819D01*
X200014286Y-152984819D02*
X200395238Y-152984819D01*
X200395238Y-152984819D02*
X200490476Y-153032438D01*
X200490476Y-153032438D02*
X200538095Y-153080057D01*
X200538095Y-153080057D02*
X200585714Y-153175295D01*
X200585714Y-153175295D02*
X200585714Y-153318152D01*
X200585714Y-153318152D02*
X200538095Y-153413390D01*
X200538095Y-153413390D02*
X200490476Y-153461009D01*
X200490476Y-153461009D02*
X200395238Y-153508628D01*
X200395238Y-153508628D02*
X200014286Y-153508628D01*
X200776191Y-154080057D02*
X201538095Y-154080057D01*
X202300000Y-153032438D02*
X202204762Y-152984819D01*
X202204762Y-152984819D02*
X202061905Y-152984819D01*
X202061905Y-152984819D02*
X201919048Y-153032438D01*
X201919048Y-153032438D02*
X201823810Y-153127676D01*
X201823810Y-153127676D02*
X201776191Y-153222914D01*
X201776191Y-153222914D02*
X201728572Y-153413390D01*
X201728572Y-153413390D02*
X201728572Y-153556247D01*
X201728572Y-153556247D02*
X201776191Y-153746723D01*
X201776191Y-153746723D02*
X201823810Y-153841961D01*
X201823810Y-153841961D02*
X201919048Y-153937200D01*
X201919048Y-153937200D02*
X202061905Y-153984819D01*
X202061905Y-153984819D02*
X202157143Y-153984819D01*
X202157143Y-153984819D02*
X202300000Y-153937200D01*
X202300000Y-153937200D02*
X202347619Y-153889580D01*
X202347619Y-153889580D02*
X202347619Y-153556247D01*
X202347619Y-153556247D02*
X202157143Y-153556247D01*
X202776191Y-153984819D02*
X202776191Y-152984819D01*
X202776191Y-152984819D02*
X203347619Y-153984819D01*
X203347619Y-153984819D02*
X203347619Y-152984819D01*
X203823810Y-153984819D02*
X203823810Y-152984819D01*
X203823810Y-152984819D02*
X204061905Y-152984819D01*
X204061905Y-152984819D02*
X204204762Y-153032438D01*
X204204762Y-153032438D02*
X204300000Y-153127676D01*
X204300000Y-153127676D02*
X204347619Y-153222914D01*
X204347619Y-153222914D02*
X204395238Y-153413390D01*
X204395238Y-153413390D02*
X204395238Y-153556247D01*
X204395238Y-153556247D02*
X204347619Y-153746723D01*
X204347619Y-153746723D02*
X204300000Y-153841961D01*
X204300000Y-153841961D02*
X204204762Y-153937200D01*
X204204762Y-153937200D02*
X204061905Y-153984819D01*
X204061905Y-153984819D02*
X203823810Y-153984819D01*
X218433333Y-75219580D02*
X218385714Y-75267200D01*
X218385714Y-75267200D02*
X218242857Y-75314819D01*
X218242857Y-75314819D02*
X218147619Y-75314819D01*
X218147619Y-75314819D02*
X218004762Y-75267200D01*
X218004762Y-75267200D02*
X217909524Y-75171961D01*
X217909524Y-75171961D02*
X217861905Y-75076723D01*
X217861905Y-75076723D02*
X217814286Y-74886247D01*
X217814286Y-74886247D02*
X217814286Y-74743390D01*
X217814286Y-74743390D02*
X217861905Y-74552914D01*
X217861905Y-74552914D02*
X217909524Y-74457676D01*
X217909524Y-74457676D02*
X218004762Y-74362438D01*
X218004762Y-74362438D02*
X218147619Y-74314819D01*
X218147619Y-74314819D02*
X218242857Y-74314819D01*
X218242857Y-74314819D02*
X218385714Y-74362438D01*
X218385714Y-74362438D02*
X218433333Y-74410057D01*
X218766667Y-74314819D02*
X219433333Y-74314819D01*
X219433333Y-74314819D02*
X219004762Y-75314819D01*
D12*
X217511904Y-76434895D02*
X217054761Y-76434895D01*
X217283333Y-76434895D02*
X217283333Y-75634895D01*
X217283333Y-75634895D02*
X217207142Y-75749180D01*
X217207142Y-75749180D02*
X217130952Y-75825371D01*
X217130952Y-75825371D02*
X217054761Y-75863466D01*
X218007143Y-75634895D02*
X218083333Y-75634895D01*
X218083333Y-75634895D02*
X218159524Y-75672990D01*
X218159524Y-75672990D02*
X218197619Y-75711085D01*
X218197619Y-75711085D02*
X218235714Y-75787276D01*
X218235714Y-75787276D02*
X218273809Y-75939657D01*
X218273809Y-75939657D02*
X218273809Y-76130133D01*
X218273809Y-76130133D02*
X218235714Y-76282514D01*
X218235714Y-76282514D02*
X218197619Y-76358704D01*
X218197619Y-76358704D02*
X218159524Y-76396800D01*
X218159524Y-76396800D02*
X218083333Y-76434895D01*
X218083333Y-76434895D02*
X218007143Y-76434895D01*
X218007143Y-76434895D02*
X217930952Y-76396800D01*
X217930952Y-76396800D02*
X217892857Y-76358704D01*
X217892857Y-76358704D02*
X217854762Y-76282514D01*
X217854762Y-76282514D02*
X217816666Y-76130133D01*
X217816666Y-76130133D02*
X217816666Y-75939657D01*
X217816666Y-75939657D02*
X217854762Y-75787276D01*
X217854762Y-75787276D02*
X217892857Y-75711085D01*
X217892857Y-75711085D02*
X217930952Y-75672990D01*
X217930952Y-75672990D02*
X218007143Y-75634895D01*
X218769048Y-75634895D02*
X218845238Y-75634895D01*
X218845238Y-75634895D02*
X218921429Y-75672990D01*
X218921429Y-75672990D02*
X218959524Y-75711085D01*
X218959524Y-75711085D02*
X218997619Y-75787276D01*
X218997619Y-75787276D02*
X219035714Y-75939657D01*
X219035714Y-75939657D02*
X219035714Y-76130133D01*
X219035714Y-76130133D02*
X218997619Y-76282514D01*
X218997619Y-76282514D02*
X218959524Y-76358704D01*
X218959524Y-76358704D02*
X218921429Y-76396800D01*
X218921429Y-76396800D02*
X218845238Y-76434895D01*
X218845238Y-76434895D02*
X218769048Y-76434895D01*
X218769048Y-76434895D02*
X218692857Y-76396800D01*
X218692857Y-76396800D02*
X218654762Y-76358704D01*
X218654762Y-76358704D02*
X218616667Y-76282514D01*
X218616667Y-76282514D02*
X218578571Y-76130133D01*
X218578571Y-76130133D02*
X218578571Y-75939657D01*
X218578571Y-75939657D02*
X218616667Y-75787276D01*
X218616667Y-75787276D02*
X218654762Y-75711085D01*
X218654762Y-75711085D02*
X218692857Y-75672990D01*
X218692857Y-75672990D02*
X218769048Y-75634895D01*
X219378572Y-75901561D02*
X219378572Y-76434895D01*
X219378572Y-75977752D02*
X219416667Y-75939657D01*
X219416667Y-75939657D02*
X219492857Y-75901561D01*
X219492857Y-75901561D02*
X219607143Y-75901561D01*
X219607143Y-75901561D02*
X219683334Y-75939657D01*
X219683334Y-75939657D02*
X219721429Y-76015847D01*
X219721429Y-76015847D02*
X219721429Y-76434895D01*
X220369048Y-76015847D02*
X220102382Y-76015847D01*
X220102382Y-76434895D02*
X220102382Y-75634895D01*
X220102382Y-75634895D02*
X220483334Y-75634895D01*
D11*
X163827619Y-83334819D02*
X164399047Y-83334819D01*
X164113333Y-84334819D02*
X164113333Y-83334819D01*
X164732381Y-84334819D02*
X164732381Y-83334819D01*
X164732381Y-83334819D02*
X165113333Y-83334819D01*
X165113333Y-83334819D02*
X165208571Y-83382438D01*
X165208571Y-83382438D02*
X165256190Y-83430057D01*
X165256190Y-83430057D02*
X165303809Y-83525295D01*
X165303809Y-83525295D02*
X165303809Y-83668152D01*
X165303809Y-83668152D02*
X165256190Y-83763390D01*
X165256190Y-83763390D02*
X165208571Y-83811009D01*
X165208571Y-83811009D02*
X165113333Y-83858628D01*
X165113333Y-83858628D02*
X164732381Y-83858628D01*
X165494286Y-84430057D02*
X166256190Y-84430057D01*
X167065714Y-84334819D02*
X166732381Y-83858628D01*
X166494286Y-84334819D02*
X166494286Y-83334819D01*
X166494286Y-83334819D02*
X166875238Y-83334819D01*
X166875238Y-83334819D02*
X166970476Y-83382438D01*
X166970476Y-83382438D02*
X167018095Y-83430057D01*
X167018095Y-83430057D02*
X167065714Y-83525295D01*
X167065714Y-83525295D02*
X167065714Y-83668152D01*
X167065714Y-83668152D02*
X167018095Y-83763390D01*
X167018095Y-83763390D02*
X166970476Y-83811009D01*
X166970476Y-83811009D02*
X166875238Y-83858628D01*
X166875238Y-83858628D02*
X166494286Y-83858628D01*
X167446667Y-84049104D02*
X167922857Y-84049104D01*
X167351429Y-84334819D02*
X167684762Y-83334819D01*
X167684762Y-83334819D02*
X168018095Y-84334819D01*
X168351429Y-84334819D02*
X168351429Y-83334819D01*
X168351429Y-83334819D02*
X168589524Y-83334819D01*
X168589524Y-83334819D02*
X168732381Y-83382438D01*
X168732381Y-83382438D02*
X168827619Y-83477676D01*
X168827619Y-83477676D02*
X168875238Y-83572914D01*
X168875238Y-83572914D02*
X168922857Y-83763390D01*
X168922857Y-83763390D02*
X168922857Y-83906247D01*
X168922857Y-83906247D02*
X168875238Y-84096723D01*
X168875238Y-84096723D02*
X168827619Y-84191961D01*
X168827619Y-84191961D02*
X168732381Y-84287200D01*
X168732381Y-84287200D02*
X168589524Y-84334819D01*
X168589524Y-84334819D02*
X168351429Y-84334819D01*
X169208572Y-83334819D02*
X169780000Y-83334819D01*
X169494286Y-84334819D02*
X169494286Y-83334819D01*
X170018096Y-83334819D02*
X170684762Y-84334819D01*
X170684762Y-83334819D02*
X170018096Y-84334819D01*
X173598095Y-64167200D02*
X173740952Y-64214819D01*
X173740952Y-64214819D02*
X173979047Y-64214819D01*
X173979047Y-64214819D02*
X174074285Y-64167200D01*
X174074285Y-64167200D02*
X174121904Y-64119580D01*
X174121904Y-64119580D02*
X174169523Y-64024342D01*
X174169523Y-64024342D02*
X174169523Y-63929104D01*
X174169523Y-63929104D02*
X174121904Y-63833866D01*
X174121904Y-63833866D02*
X174074285Y-63786247D01*
X174074285Y-63786247D02*
X173979047Y-63738628D01*
X173979047Y-63738628D02*
X173788571Y-63691009D01*
X173788571Y-63691009D02*
X173693333Y-63643390D01*
X173693333Y-63643390D02*
X173645714Y-63595771D01*
X173645714Y-63595771D02*
X173598095Y-63500533D01*
X173598095Y-63500533D02*
X173598095Y-63405295D01*
X173598095Y-63405295D02*
X173645714Y-63310057D01*
X173645714Y-63310057D02*
X173693333Y-63262438D01*
X173693333Y-63262438D02*
X173788571Y-63214819D01*
X173788571Y-63214819D02*
X174026666Y-63214819D01*
X174026666Y-63214819D02*
X174169523Y-63262438D01*
X174598095Y-64214819D02*
X174598095Y-63214819D01*
X174598095Y-63214819D02*
X174836190Y-63214819D01*
X174836190Y-63214819D02*
X174979047Y-63262438D01*
X174979047Y-63262438D02*
X175074285Y-63357676D01*
X175074285Y-63357676D02*
X175121904Y-63452914D01*
X175121904Y-63452914D02*
X175169523Y-63643390D01*
X175169523Y-63643390D02*
X175169523Y-63786247D01*
X175169523Y-63786247D02*
X175121904Y-63976723D01*
X175121904Y-63976723D02*
X175074285Y-64071961D01*
X175074285Y-64071961D02*
X174979047Y-64167200D01*
X174979047Y-64167200D02*
X174836190Y-64214819D01*
X174836190Y-64214819D02*
X174598095Y-64214819D01*
X175788571Y-63214819D02*
X175883809Y-63214819D01*
X175883809Y-63214819D02*
X175979047Y-63262438D01*
X175979047Y-63262438D02*
X176026666Y-63310057D01*
X176026666Y-63310057D02*
X176074285Y-63405295D01*
X176074285Y-63405295D02*
X176121904Y-63595771D01*
X176121904Y-63595771D02*
X176121904Y-63833866D01*
X176121904Y-63833866D02*
X176074285Y-64024342D01*
X176074285Y-64024342D02*
X176026666Y-64119580D01*
X176026666Y-64119580D02*
X175979047Y-64167200D01*
X175979047Y-64167200D02*
X175883809Y-64214819D01*
X175883809Y-64214819D02*
X175788571Y-64214819D01*
X175788571Y-64214819D02*
X175693333Y-64167200D01*
X175693333Y-64167200D02*
X175645714Y-64119580D01*
X175645714Y-64119580D02*
X175598095Y-64024342D01*
X175598095Y-64024342D02*
X175550476Y-63833866D01*
X175550476Y-63833866D02*
X175550476Y-63595771D01*
X175550476Y-63595771D02*
X175598095Y-63405295D01*
X175598095Y-63405295D02*
X175645714Y-63310057D01*
X175645714Y-63310057D02*
X175693333Y-63262438D01*
X175693333Y-63262438D02*
X175788571Y-63214819D01*
X174034524Y-56481200D02*
X174177381Y-56528819D01*
X174177381Y-56528819D02*
X174415476Y-56528819D01*
X174415476Y-56528819D02*
X174510714Y-56481200D01*
X174510714Y-56481200D02*
X174558333Y-56433580D01*
X174558333Y-56433580D02*
X174605952Y-56338342D01*
X174605952Y-56338342D02*
X174605952Y-56243104D01*
X174605952Y-56243104D02*
X174558333Y-56147866D01*
X174558333Y-56147866D02*
X174510714Y-56100247D01*
X174510714Y-56100247D02*
X174415476Y-56052628D01*
X174415476Y-56052628D02*
X174225000Y-56005009D01*
X174225000Y-56005009D02*
X174129762Y-55957390D01*
X174129762Y-55957390D02*
X174082143Y-55909771D01*
X174082143Y-55909771D02*
X174034524Y-55814533D01*
X174034524Y-55814533D02*
X174034524Y-55719295D01*
X174034524Y-55719295D02*
X174082143Y-55624057D01*
X174082143Y-55624057D02*
X174129762Y-55576438D01*
X174129762Y-55576438D02*
X174225000Y-55528819D01*
X174225000Y-55528819D02*
X174463095Y-55528819D01*
X174463095Y-55528819D02*
X174605952Y-55576438D01*
X175605952Y-56433580D02*
X175558333Y-56481200D01*
X175558333Y-56481200D02*
X175415476Y-56528819D01*
X175415476Y-56528819D02*
X175320238Y-56528819D01*
X175320238Y-56528819D02*
X175177381Y-56481200D01*
X175177381Y-56481200D02*
X175082143Y-56385961D01*
X175082143Y-56385961D02*
X175034524Y-56290723D01*
X175034524Y-56290723D02*
X174986905Y-56100247D01*
X174986905Y-56100247D02*
X174986905Y-55957390D01*
X174986905Y-55957390D02*
X175034524Y-55766914D01*
X175034524Y-55766914D02*
X175082143Y-55671676D01*
X175082143Y-55671676D02*
X175177381Y-55576438D01*
X175177381Y-55576438D02*
X175320238Y-55528819D01*
X175320238Y-55528819D02*
X175415476Y-55528819D01*
X175415476Y-55528819D02*
X175558333Y-55576438D01*
X175558333Y-55576438D02*
X175605952Y-55624057D01*
X176510714Y-56528819D02*
X176034524Y-56528819D01*
X176034524Y-56528819D02*
X176034524Y-55528819D01*
X174283333Y-61539580D02*
X174235714Y-61587200D01*
X174235714Y-61587200D02*
X174092857Y-61634819D01*
X174092857Y-61634819D02*
X173997619Y-61634819D01*
X173997619Y-61634819D02*
X173854762Y-61587200D01*
X173854762Y-61587200D02*
X173759524Y-61491961D01*
X173759524Y-61491961D02*
X173711905Y-61396723D01*
X173711905Y-61396723D02*
X173664286Y-61206247D01*
X173664286Y-61206247D02*
X173664286Y-61063390D01*
X173664286Y-61063390D02*
X173711905Y-60872914D01*
X173711905Y-60872914D02*
X173759524Y-60777676D01*
X173759524Y-60777676D02*
X173854762Y-60682438D01*
X173854762Y-60682438D02*
X173997619Y-60634819D01*
X173997619Y-60634819D02*
X174092857Y-60634819D01*
X174092857Y-60634819D02*
X174235714Y-60682438D01*
X174235714Y-60682438D02*
X174283333Y-60730057D01*
X174664286Y-61587200D02*
X174807143Y-61634819D01*
X174807143Y-61634819D02*
X175045238Y-61634819D01*
X175045238Y-61634819D02*
X175140476Y-61587200D01*
X175140476Y-61587200D02*
X175188095Y-61539580D01*
X175188095Y-61539580D02*
X175235714Y-61444342D01*
X175235714Y-61444342D02*
X175235714Y-61349104D01*
X175235714Y-61349104D02*
X175188095Y-61253866D01*
X175188095Y-61253866D02*
X175140476Y-61206247D01*
X175140476Y-61206247D02*
X175045238Y-61158628D01*
X175045238Y-61158628D02*
X174854762Y-61111009D01*
X174854762Y-61111009D02*
X174759524Y-61063390D01*
X174759524Y-61063390D02*
X174711905Y-61015771D01*
X174711905Y-61015771D02*
X174664286Y-60920533D01*
X174664286Y-60920533D02*
X174664286Y-60825295D01*
X174664286Y-60825295D02*
X174711905Y-60730057D01*
X174711905Y-60730057D02*
X174759524Y-60682438D01*
X174759524Y-60682438D02*
X174854762Y-60634819D01*
X174854762Y-60634819D02*
X175092857Y-60634819D01*
X175092857Y-60634819D02*
X175235714Y-60682438D01*
X175997619Y-61111009D02*
X176140476Y-61158628D01*
X176140476Y-61158628D02*
X176188095Y-61206247D01*
X176188095Y-61206247D02*
X176235714Y-61301485D01*
X176235714Y-61301485D02*
X176235714Y-61444342D01*
X176235714Y-61444342D02*
X176188095Y-61539580D01*
X176188095Y-61539580D02*
X176140476Y-61587200D01*
X176140476Y-61587200D02*
X176045238Y-61634819D01*
X176045238Y-61634819D02*
X175664286Y-61634819D01*
X175664286Y-61634819D02*
X175664286Y-60634819D01*
X175664286Y-60634819D02*
X175997619Y-60634819D01*
X175997619Y-60634819D02*
X176092857Y-60682438D01*
X176092857Y-60682438D02*
X176140476Y-60730057D01*
X176140476Y-60730057D02*
X176188095Y-60825295D01*
X176188095Y-60825295D02*
X176188095Y-60920533D01*
X176188095Y-60920533D02*
X176140476Y-61015771D01*
X176140476Y-61015771D02*
X176092857Y-61063390D01*
X176092857Y-61063390D02*
X175997619Y-61111009D01*
X175997619Y-61111009D02*
X175664286Y-61111009D01*
X173695714Y-58997200D02*
X173838571Y-59044819D01*
X173838571Y-59044819D02*
X174076666Y-59044819D01*
X174076666Y-59044819D02*
X174171904Y-58997200D01*
X174171904Y-58997200D02*
X174219523Y-58949580D01*
X174219523Y-58949580D02*
X174267142Y-58854342D01*
X174267142Y-58854342D02*
X174267142Y-58759104D01*
X174267142Y-58759104D02*
X174219523Y-58663866D01*
X174219523Y-58663866D02*
X174171904Y-58616247D01*
X174171904Y-58616247D02*
X174076666Y-58568628D01*
X174076666Y-58568628D02*
X173886190Y-58521009D01*
X173886190Y-58521009D02*
X173790952Y-58473390D01*
X173790952Y-58473390D02*
X173743333Y-58425771D01*
X173743333Y-58425771D02*
X173695714Y-58330533D01*
X173695714Y-58330533D02*
X173695714Y-58235295D01*
X173695714Y-58235295D02*
X173743333Y-58140057D01*
X173743333Y-58140057D02*
X173790952Y-58092438D01*
X173790952Y-58092438D02*
X173886190Y-58044819D01*
X173886190Y-58044819D02*
X174124285Y-58044819D01*
X174124285Y-58044819D02*
X174267142Y-58092438D01*
X174695714Y-59044819D02*
X174695714Y-58044819D01*
X174695714Y-58044819D02*
X174933809Y-58044819D01*
X174933809Y-58044819D02*
X175076666Y-58092438D01*
X175076666Y-58092438D02*
X175171904Y-58187676D01*
X175171904Y-58187676D02*
X175219523Y-58282914D01*
X175219523Y-58282914D02*
X175267142Y-58473390D01*
X175267142Y-58473390D02*
X175267142Y-58616247D01*
X175267142Y-58616247D02*
X175219523Y-58806723D01*
X175219523Y-58806723D02*
X175171904Y-58901961D01*
X175171904Y-58901961D02*
X175076666Y-58997200D01*
X175076666Y-58997200D02*
X174933809Y-59044819D01*
X174933809Y-59044819D02*
X174695714Y-59044819D01*
X175648095Y-58759104D02*
X176124285Y-58759104D01*
X175552857Y-59044819D02*
X175886190Y-58044819D01*
X175886190Y-58044819D02*
X176219523Y-59044819D01*
X180290112Y-67341009D02*
X180432969Y-67388628D01*
X180432969Y-67388628D02*
X180480588Y-67436247D01*
X180480588Y-67436247D02*
X180528207Y-67531485D01*
X180528207Y-67531485D02*
X180528207Y-67674342D01*
X180528207Y-67674342D02*
X180480588Y-67769580D01*
X180480588Y-67769580D02*
X180432969Y-67817200D01*
X180432969Y-67817200D02*
X180337731Y-67864819D01*
X180337731Y-67864819D02*
X179956779Y-67864819D01*
X179956779Y-67864819D02*
X179956779Y-66864819D01*
X179956779Y-66864819D02*
X180290112Y-66864819D01*
X180290112Y-66864819D02*
X180385350Y-66912438D01*
X180385350Y-66912438D02*
X180432969Y-66960057D01*
X180432969Y-66960057D02*
X180480588Y-67055295D01*
X180480588Y-67055295D02*
X180480588Y-67150533D01*
X180480588Y-67150533D02*
X180432969Y-67245771D01*
X180432969Y-67245771D02*
X180385350Y-67293390D01*
X180385350Y-67293390D02*
X180290112Y-67341009D01*
X180290112Y-67341009D02*
X179956779Y-67341009D01*
X180909160Y-67579104D02*
X181385350Y-67579104D01*
X180813922Y-67864819D02*
X181147255Y-66864819D01*
X181147255Y-66864819D02*
X181480588Y-67864819D01*
X182385350Y-67864819D02*
X182052017Y-67388628D01*
X181813922Y-67864819D02*
X181813922Y-66864819D01*
X181813922Y-66864819D02*
X182194874Y-66864819D01*
X182194874Y-66864819D02*
X182290112Y-66912438D01*
X182290112Y-66912438D02*
X182337731Y-66960057D01*
X182337731Y-66960057D02*
X182385350Y-67055295D01*
X182385350Y-67055295D02*
X182385350Y-67198152D01*
X182385350Y-67198152D02*
X182337731Y-67293390D01*
X182337731Y-67293390D02*
X182290112Y-67341009D01*
X182290112Y-67341009D02*
X182194874Y-67388628D01*
X182194874Y-67388628D02*
X181813922Y-67388628D01*
X183004398Y-66864819D02*
X183194874Y-66864819D01*
X183194874Y-66864819D02*
X183290112Y-66912438D01*
X183290112Y-66912438D02*
X183385350Y-67007676D01*
X183385350Y-67007676D02*
X183432969Y-67198152D01*
X183432969Y-67198152D02*
X183432969Y-67531485D01*
X183432969Y-67531485D02*
X183385350Y-67721961D01*
X183385350Y-67721961D02*
X183290112Y-67817200D01*
X183290112Y-67817200D02*
X183194874Y-67864819D01*
X183194874Y-67864819D02*
X183004398Y-67864819D01*
X183004398Y-67864819D02*
X182909160Y-67817200D01*
X182909160Y-67817200D02*
X182813922Y-67721961D01*
X182813922Y-67721961D02*
X182766303Y-67531485D01*
X182766303Y-67531485D02*
X182766303Y-67198152D01*
X182766303Y-67198152D02*
X182813922Y-67007676D01*
X182813922Y-67007676D02*
X182909160Y-66912438D01*
X182909160Y-66912438D02*
X183004398Y-66864819D01*
X183194874Y-66483866D02*
X183052017Y-66626723D01*
X183861541Y-67864819D02*
X183861541Y-66864819D01*
X183861541Y-66864819D02*
X184194874Y-67579104D01*
X184194874Y-67579104D02*
X184528207Y-66864819D01*
X184528207Y-66864819D02*
X184528207Y-67864819D01*
X185004398Y-67341009D02*
X185337731Y-67341009D01*
X185480588Y-67864819D02*
X185004398Y-67864819D01*
X185004398Y-67864819D02*
X185004398Y-66864819D01*
X185004398Y-66864819D02*
X185480588Y-66864819D01*
X185766303Y-66864819D02*
X186337731Y-66864819D01*
X186052017Y-67864819D02*
X186052017Y-66864819D01*
X187242493Y-67864819D02*
X186909160Y-67388628D01*
X186671065Y-67864819D02*
X186671065Y-66864819D01*
X186671065Y-66864819D02*
X187052017Y-66864819D01*
X187052017Y-66864819D02*
X187147255Y-66912438D01*
X187147255Y-66912438D02*
X187194874Y-66960057D01*
X187194874Y-66960057D02*
X187242493Y-67055295D01*
X187242493Y-67055295D02*
X187242493Y-67198152D01*
X187242493Y-67198152D02*
X187194874Y-67293390D01*
X187194874Y-67293390D02*
X187147255Y-67341009D01*
X187147255Y-67341009D02*
X187052017Y-67388628D01*
X187052017Y-67388628D02*
X186671065Y-67388628D01*
X187861541Y-66864819D02*
X188052017Y-66864819D01*
X188052017Y-66864819D02*
X188147255Y-66912438D01*
X188147255Y-66912438D02*
X188242493Y-67007676D01*
X188242493Y-67007676D02*
X188290112Y-67198152D01*
X188290112Y-67198152D02*
X188290112Y-67531485D01*
X188290112Y-67531485D02*
X188242493Y-67721961D01*
X188242493Y-67721961D02*
X188147255Y-67817200D01*
X188147255Y-67817200D02*
X188052017Y-67864819D01*
X188052017Y-67864819D02*
X187861541Y-67864819D01*
X187861541Y-67864819D02*
X187766303Y-67817200D01*
X187766303Y-67817200D02*
X187671065Y-67721961D01*
X187671065Y-67721961D02*
X187623446Y-67531485D01*
X187623446Y-67531485D02*
X187623446Y-67198152D01*
X187623446Y-67198152D02*
X187671065Y-67007676D01*
X187671065Y-67007676D02*
X187766303Y-66912438D01*
X187766303Y-66912438D02*
X187861541Y-66864819D01*
X152727142Y-144299580D02*
X152679523Y-144347200D01*
X152679523Y-144347200D02*
X152536666Y-144394819D01*
X152536666Y-144394819D02*
X152441428Y-144394819D01*
X152441428Y-144394819D02*
X152298571Y-144347200D01*
X152298571Y-144347200D02*
X152203333Y-144251961D01*
X152203333Y-144251961D02*
X152155714Y-144156723D01*
X152155714Y-144156723D02*
X152108095Y-143966247D01*
X152108095Y-143966247D02*
X152108095Y-143823390D01*
X152108095Y-143823390D02*
X152155714Y-143632914D01*
X152155714Y-143632914D02*
X152203333Y-143537676D01*
X152203333Y-143537676D02*
X152298571Y-143442438D01*
X152298571Y-143442438D02*
X152441428Y-143394819D01*
X152441428Y-143394819D02*
X152536666Y-143394819D01*
X152536666Y-143394819D02*
X152679523Y-143442438D01*
X152679523Y-143442438D02*
X152727142Y-143490057D01*
X153679523Y-144394819D02*
X153108095Y-144394819D01*
X153393809Y-144394819D02*
X153393809Y-143394819D01*
X153393809Y-143394819D02*
X153298571Y-143537676D01*
X153298571Y-143537676D02*
X153203333Y-143632914D01*
X153203333Y-143632914D02*
X153108095Y-143680533D01*
X154631904Y-144394819D02*
X154060476Y-144394819D01*
X154346190Y-144394819D02*
X154346190Y-143394819D01*
X154346190Y-143394819D02*
X154250952Y-143537676D01*
X154250952Y-143537676D02*
X154155714Y-143632914D01*
X154155714Y-143632914D02*
X154060476Y-143680533D01*
D12*
X152432856Y-146034895D02*
X151975713Y-146034895D01*
X152204285Y-146034895D02*
X152204285Y-145234895D01*
X152204285Y-145234895D02*
X152128094Y-145349180D01*
X152128094Y-145349180D02*
X152051904Y-145425371D01*
X152051904Y-145425371D02*
X151975713Y-145463466D01*
X152928095Y-145234895D02*
X153004285Y-145234895D01*
X153004285Y-145234895D02*
X153080476Y-145272990D01*
X153080476Y-145272990D02*
X153118571Y-145311085D01*
X153118571Y-145311085D02*
X153156666Y-145387276D01*
X153156666Y-145387276D02*
X153194761Y-145539657D01*
X153194761Y-145539657D02*
X153194761Y-145730133D01*
X153194761Y-145730133D02*
X153156666Y-145882514D01*
X153156666Y-145882514D02*
X153118571Y-145958704D01*
X153118571Y-145958704D02*
X153080476Y-145996800D01*
X153080476Y-145996800D02*
X153004285Y-146034895D01*
X153004285Y-146034895D02*
X152928095Y-146034895D01*
X152928095Y-146034895D02*
X152851904Y-145996800D01*
X152851904Y-145996800D02*
X152813809Y-145958704D01*
X152813809Y-145958704D02*
X152775714Y-145882514D01*
X152775714Y-145882514D02*
X152737618Y-145730133D01*
X152737618Y-145730133D02*
X152737618Y-145539657D01*
X152737618Y-145539657D02*
X152775714Y-145387276D01*
X152775714Y-145387276D02*
X152813809Y-145311085D01*
X152813809Y-145311085D02*
X152851904Y-145272990D01*
X152851904Y-145272990D02*
X152928095Y-145234895D01*
X153880476Y-145501561D02*
X153880476Y-146034895D01*
X153537619Y-145501561D02*
X153537619Y-145920609D01*
X153537619Y-145920609D02*
X153575714Y-145996800D01*
X153575714Y-145996800D02*
X153651904Y-146034895D01*
X153651904Y-146034895D02*
X153766190Y-146034895D01*
X153766190Y-146034895D02*
X153842381Y-145996800D01*
X153842381Y-145996800D02*
X153880476Y-145958704D01*
X154528095Y-145615847D02*
X154261429Y-145615847D01*
X154261429Y-146034895D02*
X154261429Y-145234895D01*
X154261429Y-145234895D02*
X154642381Y-145234895D01*
D11*
X157047142Y-144329580D02*
X156999523Y-144377200D01*
X156999523Y-144377200D02*
X156856666Y-144424819D01*
X156856666Y-144424819D02*
X156761428Y-144424819D01*
X156761428Y-144424819D02*
X156618571Y-144377200D01*
X156618571Y-144377200D02*
X156523333Y-144281961D01*
X156523333Y-144281961D02*
X156475714Y-144186723D01*
X156475714Y-144186723D02*
X156428095Y-143996247D01*
X156428095Y-143996247D02*
X156428095Y-143853390D01*
X156428095Y-143853390D02*
X156475714Y-143662914D01*
X156475714Y-143662914D02*
X156523333Y-143567676D01*
X156523333Y-143567676D02*
X156618571Y-143472438D01*
X156618571Y-143472438D02*
X156761428Y-143424819D01*
X156761428Y-143424819D02*
X156856666Y-143424819D01*
X156856666Y-143424819D02*
X156999523Y-143472438D01*
X156999523Y-143472438D02*
X157047142Y-143520057D01*
X157999523Y-144424819D02*
X157428095Y-144424819D01*
X157713809Y-144424819D02*
X157713809Y-143424819D01*
X157713809Y-143424819D02*
X157618571Y-143567676D01*
X157618571Y-143567676D02*
X157523333Y-143662914D01*
X157523333Y-143662914D02*
X157428095Y-143710533D01*
X158380476Y-143520057D02*
X158428095Y-143472438D01*
X158428095Y-143472438D02*
X158523333Y-143424819D01*
X158523333Y-143424819D02*
X158761428Y-143424819D01*
X158761428Y-143424819D02*
X158856666Y-143472438D01*
X158856666Y-143472438D02*
X158904285Y-143520057D01*
X158904285Y-143520057D02*
X158951904Y-143615295D01*
X158951904Y-143615295D02*
X158951904Y-143710533D01*
X158951904Y-143710533D02*
X158904285Y-143853390D01*
X158904285Y-143853390D02*
X158332857Y-144424819D01*
X158332857Y-144424819D02*
X158951904Y-144424819D01*
D12*
X156541904Y-146034895D02*
X156084761Y-146034895D01*
X156313333Y-146034895D02*
X156313333Y-145234895D01*
X156313333Y-145234895D02*
X156237142Y-145349180D01*
X156237142Y-145349180D02*
X156160952Y-145425371D01*
X156160952Y-145425371D02*
X156084761Y-145463466D01*
X157037143Y-145234895D02*
X157113333Y-145234895D01*
X157113333Y-145234895D02*
X157189524Y-145272990D01*
X157189524Y-145272990D02*
X157227619Y-145311085D01*
X157227619Y-145311085D02*
X157265714Y-145387276D01*
X157265714Y-145387276D02*
X157303809Y-145539657D01*
X157303809Y-145539657D02*
X157303809Y-145730133D01*
X157303809Y-145730133D02*
X157265714Y-145882514D01*
X157265714Y-145882514D02*
X157227619Y-145958704D01*
X157227619Y-145958704D02*
X157189524Y-145996800D01*
X157189524Y-145996800D02*
X157113333Y-146034895D01*
X157113333Y-146034895D02*
X157037143Y-146034895D01*
X157037143Y-146034895D02*
X156960952Y-145996800D01*
X156960952Y-145996800D02*
X156922857Y-145958704D01*
X156922857Y-145958704D02*
X156884762Y-145882514D01*
X156884762Y-145882514D02*
X156846666Y-145730133D01*
X156846666Y-145730133D02*
X156846666Y-145539657D01*
X156846666Y-145539657D02*
X156884762Y-145387276D01*
X156884762Y-145387276D02*
X156922857Y-145311085D01*
X156922857Y-145311085D02*
X156960952Y-145272990D01*
X156960952Y-145272990D02*
X157037143Y-145234895D01*
X157799048Y-145234895D02*
X157875238Y-145234895D01*
X157875238Y-145234895D02*
X157951429Y-145272990D01*
X157951429Y-145272990D02*
X157989524Y-145311085D01*
X157989524Y-145311085D02*
X158027619Y-145387276D01*
X158027619Y-145387276D02*
X158065714Y-145539657D01*
X158065714Y-145539657D02*
X158065714Y-145730133D01*
X158065714Y-145730133D02*
X158027619Y-145882514D01*
X158027619Y-145882514D02*
X157989524Y-145958704D01*
X157989524Y-145958704D02*
X157951429Y-145996800D01*
X157951429Y-145996800D02*
X157875238Y-146034895D01*
X157875238Y-146034895D02*
X157799048Y-146034895D01*
X157799048Y-146034895D02*
X157722857Y-145996800D01*
X157722857Y-145996800D02*
X157684762Y-145958704D01*
X157684762Y-145958704D02*
X157646667Y-145882514D01*
X157646667Y-145882514D02*
X157608571Y-145730133D01*
X157608571Y-145730133D02*
X157608571Y-145539657D01*
X157608571Y-145539657D02*
X157646667Y-145387276D01*
X157646667Y-145387276D02*
X157684762Y-145311085D01*
X157684762Y-145311085D02*
X157722857Y-145272990D01*
X157722857Y-145272990D02*
X157799048Y-145234895D01*
X158751429Y-145501561D02*
X158751429Y-146034895D01*
X158408572Y-145501561D02*
X158408572Y-145920609D01*
X158408572Y-145920609D02*
X158446667Y-145996800D01*
X158446667Y-145996800D02*
X158522857Y-146034895D01*
X158522857Y-146034895D02*
X158637143Y-146034895D01*
X158637143Y-146034895D02*
X158713334Y-145996800D01*
X158713334Y-145996800D02*
X158751429Y-145958704D01*
X159399048Y-145615847D02*
X159132382Y-145615847D01*
X159132382Y-146034895D02*
X159132382Y-145234895D01*
X159132382Y-145234895D02*
X159513334Y-145234895D01*
D13*
%TO.C,N1*%
X171983000Y-133237500D02*
X171983000Y-133615960D01*
X171983000Y-139844040D02*
X171983000Y-140222500D01*
X171983000Y-140222500D02*
X178333000Y-140222500D01*
X178333000Y-133237500D02*
X171983000Y-133237500D01*
X178333000Y-140222500D02*
X178333000Y-133237500D01*
X178815600Y-133885200D02*
X179882400Y-133885200D01*
X178815600Y-134494800D02*
X179882400Y-134494800D01*
X178815600Y-135155200D02*
X179882400Y-135155200D01*
X178815600Y-135764800D02*
X179882400Y-135764800D01*
X178815600Y-136425200D02*
X179882400Y-136425200D01*
X178815600Y-137034800D02*
X179882400Y-137034800D01*
X178815600Y-137695200D02*
X179882400Y-137695200D01*
X178815600Y-138304800D02*
X179882400Y-138304800D01*
X178815600Y-138965200D02*
X179882400Y-138965200D01*
X178815600Y-139574800D02*
X179882400Y-139574800D01*
D10*
%TO.C,C1*%
X181876248Y-140965000D02*
X183298752Y-140965000D01*
X181876248Y-142785000D02*
X183298752Y-142785000D01*
%TO.C,TP_GND*%
X136730000Y-80510000D02*
G75*
G02*
X134830000Y-80510000I-950000J0D01*
G01*
X134830000Y-80510000D02*
G75*
G02*
X136730000Y-80510000I950000J0D01*
G01*
%TO.C,C3*%
X184938748Y-133790000D02*
X187261252Y-133790000D01*
X184938748Y-137210000D02*
X187261252Y-137210000D01*
%TO.C,TP_3V3*%
X200640000Y-143310000D02*
X203040000Y-143310000D01*
X200640000Y-145710000D02*
X200640000Y-143310000D01*
X203040000Y-143310000D02*
X203040000Y-145710000D01*
X203040000Y-145710000D02*
X200640000Y-145710000D01*
D14*
%TO.C,ESP_m2*%
X198180000Y-66390000D02*
X198180000Y-43690000D01*
X202680000Y-42390000D02*
X202680000Y-43690000D01*
X202680000Y-43690000D02*
X198180000Y-43690000D01*
X211680000Y-42390000D02*
X202680000Y-42390000D01*
X211680000Y-42390000D02*
X211680000Y-43690000D01*
X216180000Y-43690000D02*
X211680000Y-43690000D01*
X216180000Y-66390000D02*
X198180000Y-66390000D01*
X216180000Y-66390000D02*
X216180000Y-43690000D01*
D10*
%TO.C,C13*%
X90588748Y-59790000D02*
X92011252Y-59790000D01*
X90588748Y-61610000D02*
X92011252Y-61610000D01*
%TO.C,C21*%
X101830000Y-101247500D02*
X101830000Y-109487500D01*
X106350000Y-101247500D02*
X101830000Y-101247500D01*
X106350000Y-109487500D02*
X106350000Y-101247500D01*
%TO.C,C15*%
X82875000Y-71335000D02*
X91115000Y-71335000D01*
X91115000Y-66815000D02*
X82875000Y-66815000D01*
X91115000Y-71335000D02*
X91115000Y-66815000D01*
%TO.C,A1*%
X52107480Y-61842797D02*
X52107480Y-47212797D01*
X54997480Y-45942797D02*
X95517480Y-45942797D01*
X95517480Y-61842797D02*
X52107480Y-61842797D01*
X95517480Y-61842797D02*
X95517480Y-45942797D01*
D15*
%TO.C,USB1*%
X178300000Y-148370000D02*
X180020000Y-148370000D01*
X178300000Y-151220000D02*
X178300000Y-148370000D01*
X178300000Y-155120000D02*
X178300000Y-153540000D01*
X181980000Y-148370000D02*
X183620000Y-148370000D01*
X185580000Y-148340000D02*
X187260000Y-148340000D01*
X187260000Y-148340000D02*
X187260000Y-151210000D01*
X187260000Y-153550000D02*
X187260000Y-155120000D01*
X187260000Y-155120000D02*
X178300000Y-155120000D01*
X180040000Y-147800000D02*
G75*
G02*
X179780000Y-147800000I-130000J0D01*
G01*
X179780000Y-147800000D02*
G75*
G02*
X180040000Y-147800000I130000J0D01*
G01*
D10*
%TO.C,TP_GND*%
X174480000Y-110990000D02*
G75*
G02*
X172580000Y-110990000I-950000J0D01*
G01*
X172580000Y-110990000D02*
G75*
G02*
X174480000Y-110990000I950000J0D01*
G01*
%TO.C,C6*%
X207210000Y-146067500D02*
X207210000Y-154307500D01*
X211730000Y-146067500D02*
X207210000Y-146067500D01*
X211730000Y-154307500D02*
X211730000Y-146067500D01*
%TO.C,TP_GND*%
X69070000Y-70900000D02*
G75*
G02*
X67170000Y-70900000I-950000J0D01*
G01*
X67170000Y-70900000D02*
G75*
G02*
X69070000Y-70900000I950000J0D01*
G01*
%TO.C,C10*%
X148690000Y-151088748D02*
X148690000Y-152511252D01*
X150510000Y-151088748D02*
X150510000Y-152511252D01*
%TO.C,TP_GND*%
X166000000Y-150360000D02*
X168400000Y-150360000D01*
X166000000Y-152760000D02*
X166000000Y-150360000D01*
X168400000Y-150360000D02*
X168400000Y-152760000D01*
X168400000Y-152760000D02*
X166000000Y-152760000D01*
%TO.C,C4*%
X217570000Y-148801252D02*
X217570000Y-147378748D01*
X219390000Y-148801252D02*
X219390000Y-147378748D01*
%TO.C,C20*%
X96540000Y-101360000D02*
X96540000Y-108300000D01*
X99960000Y-101360000D02*
X96540000Y-101360000D01*
X99960000Y-108300000D02*
X99960000Y-101360000D01*
%TO.C,TP_GPSRX*%
X75590000Y-77890000D02*
G75*
G02*
X73690000Y-77890000I-950000J0D01*
G01*
X73690000Y-77890000D02*
G75*
G02*
X75590000Y-77890000I950000J0D01*
G01*
%TO.C,C19*%
X92910000Y-103358748D02*
X92910000Y-104781252D01*
X94730000Y-103358748D02*
X94730000Y-104781252D01*
%TO.C,C8*%
X212480000Y-78182500D02*
X212480000Y-86422500D01*
X217000000Y-78182500D02*
X212480000Y-78182500D01*
X217000000Y-86422500D02*
X217000000Y-78182500D01*
%TO.C,TP_SDA*%
X128280000Y-76840000D02*
G75*
G02*
X126380000Y-76840000I-950000J0D01*
G01*
X126380000Y-76840000D02*
G75*
G02*
X128280000Y-76840000I950000J0D01*
G01*
D14*
%TO.C,G1*%
X55230000Y-84630000D02*
X55230000Y-112210000D01*
X55230000Y-112210000D02*
X92330000Y-112210000D01*
X92330000Y-84630000D02*
X55230000Y-84630000D01*
X92330000Y-97420000D02*
X92330000Y-84630000D01*
D10*
X92330000Y-112210000D02*
X92330000Y-106390000D01*
%TO.C,C14*%
X88460000Y-62790000D02*
X88460000Y-66210000D01*
X88460000Y-66210000D02*
X95400000Y-66210000D01*
X95400000Y-62790000D02*
X88460000Y-62790000D01*
%TO.C,TP_SCL*%
X117750000Y-76840000D02*
G75*
G02*
X115850000Y-76840000I-950000J0D01*
G01*
X115850000Y-76840000D02*
G75*
G02*
X117750000Y-76840000I950000J0D01*
G01*
%TO.C,TP_GND*%
X172920000Y-74760000D02*
G75*
G02*
X171020000Y-74760000I-950000J0D01*
G01*
X171020000Y-74760000D02*
G75*
G02*
X172920000Y-74760000I950000J0D01*
G01*
%TO.C,C2*%
X180040000Y-129968748D02*
X180040000Y-131391252D01*
X181860000Y-129968748D02*
X181860000Y-131391252D01*
%TO.C,TP_3V3*%
X175310000Y-123050000D02*
X177710000Y-123050000D01*
X175310000Y-125450000D02*
X175310000Y-123050000D01*
X177710000Y-123050000D02*
X177710000Y-125450000D01*
X177710000Y-125450000D02*
X175310000Y-125450000D01*
%TO.C,C5*%
X212480000Y-147195000D02*
X212480000Y-155435000D01*
X217000000Y-147195000D02*
X212480000Y-147195000D01*
X217000000Y-155435000D02*
X217000000Y-147195000D01*
%TO.C,TP_3V3*%
X200530000Y-73430000D02*
X202930000Y-73430000D01*
X200530000Y-75830000D02*
X200530000Y-73430000D01*
X202930000Y-73430000D02*
X202930000Y-75830000D01*
X202930000Y-75830000D02*
X200530000Y-75830000D01*
D14*
%TO.C,ESP_m1*%
X198180000Y-135370000D02*
X198180000Y-112670000D01*
X202680000Y-111370000D02*
X202680000Y-112670000D01*
X202680000Y-112670000D02*
X198180000Y-112670000D01*
X211680000Y-111370000D02*
X202680000Y-111370000D01*
X211680000Y-111370000D02*
X211680000Y-112670000D01*
X216180000Y-112670000D02*
X211680000Y-112670000D01*
X216180000Y-135370000D02*
X198180000Y-135370000D01*
X216180000Y-135370000D02*
X216180000Y-112670000D01*
D10*
%TO.C,A2*%
X217320000Y-111240000D02*
X233220000Y-111240000D01*
X217320000Y-141530000D02*
X217320000Y-111240000D01*
X221510000Y-154650000D02*
X233220000Y-154650000D01*
X233220000Y-111240000D02*
X233220000Y-154650000D01*
%TO.C,TP_RADRX*%
X167360000Y-70270000D02*
G75*
G02*
X165460000Y-70270000I-950000J0D01*
G01*
X165460000Y-70270000D02*
G75*
G02*
X167360000Y-70270000I950000J0D01*
G01*
%TO.C,TP_GND*%
X200530000Y-79740000D02*
X202930000Y-79740000D01*
X200530000Y-82140000D02*
X200530000Y-79740000D01*
X202930000Y-79740000D02*
X202930000Y-82140000D01*
X202930000Y-82140000D02*
X200530000Y-82140000D01*
%TO.C,TP_GPSTX*%
X63050000Y-77890000D02*
G75*
G02*
X61150000Y-77890000I-950000J0D01*
G01*
X61150000Y-77890000D02*
G75*
G02*
X63050000Y-77890000I950000J0D01*
G01*
%TO.C,C9*%
X207210000Y-77077500D02*
X207210000Y-85317500D01*
X211730000Y-77077500D02*
X207210000Y-77077500D01*
X211730000Y-85317500D02*
X211730000Y-77077500D01*
%TO.C,TP_5V*%
X165370000Y-142060000D02*
X167770000Y-142060000D01*
X165370000Y-144460000D02*
X165370000Y-142060000D01*
X167770000Y-142060000D02*
X167770000Y-144460000D01*
X167770000Y-144460000D02*
X165370000Y-144460000D01*
%TO.C,I1*%
X110905000Y-66050000D02*
X110905000Y-49950000D01*
X110905000Y-66050000D02*
X137305000Y-66050000D01*
X137305000Y-49950000D02*
X110905000Y-49950000D01*
X137305000Y-66050000D02*
X137305000Y-49950000D01*
%TO.C,TP_GND*%
X200640000Y-149450000D02*
X203040000Y-149450000D01*
X200640000Y-151850000D02*
X200640000Y-149450000D01*
X203040000Y-149450000D02*
X203040000Y-151850000D01*
X203040000Y-151850000D02*
X200640000Y-151850000D01*
%TO.C,C7*%
X217570000Y-79811252D02*
X217570000Y-78388748D01*
X219390000Y-79811252D02*
X219390000Y-78388748D01*
%TO.C,TP_RADTX*%
X167990000Y-80790000D02*
G75*
G02*
X166090000Y-80790000I-950000J0D01*
G01*
X166090000Y-80790000D02*
G75*
G02*
X167990000Y-80790000I950000J0D01*
G01*
%TO.C,B1*%
X177495000Y-49220000D02*
X177495000Y-65470000D01*
X177495000Y-65470000D02*
X190207000Y-65470000D01*
X190207000Y-49220000D02*
X177495000Y-49220000D01*
X190207000Y-65470000D02*
X190207000Y-49220000D01*
%TO.C,A3*%
X217320000Y-42250000D02*
X233220000Y-42250000D01*
X217320000Y-72800000D02*
X217320000Y-42250000D01*
X221520000Y-85660000D02*
X233220000Y-85660000D01*
X233220000Y-42250000D02*
X233220000Y-85660000D01*
%TO.C,C11*%
X151540000Y-146267500D02*
X151540000Y-153207500D01*
X154960000Y-146267500D02*
X151540000Y-146267500D01*
X154960000Y-153207500D02*
X154960000Y-146267500D01*
%TO.C,C12*%
X155590000Y-146210000D02*
X155590000Y-154450000D01*
X160110000Y-146210000D02*
X155590000Y-146210000D01*
X160110000Y-154450000D02*
X160110000Y-146210000D01*
%TD*%
M02*
