%TF.GenerationSoftware,KiCad,Pcbnew,9.0.8-9.0.8~ubuntu24.04.1*%
%TF.CreationDate,2026-04-15T10:55:21+02:00*%
%TF.ProjectId,TFG_v4,5446475f-7634-42e6-9b69-6361645f7063,rev?*%
%TF.SameCoordinates,Original*%
%TF.FileFunction,Soldermask,Top*%
%TF.FilePolarity,Negative*%
%FSLAX46Y46*%
G04 Gerber Fmt 4.6, Leading zero omitted, Abs format (unit mm)*
G04 Created by KiCad (PCBNEW 9.0.8-9.0.8~ubuntu24.04.1) date 2026-04-15 10:55:21*
%MOMM*%
%LPD*%
G01*
G04 APERTURE LIST*
G04 Aperture macros list*
%AMRoundRect*
0 Rectangle with rounded corners*
0 $1 Rounding radius*
0 $2 $3 $4 $5 $6 $7 $8 $9 X,Y pos of 4 corners*
0 Add a 4 corners polygon primitive as box body*
4,1,4,$2,$3,$4,$5,$6,$7,$8,$9,$2,$3,0*
0 Add four circle primitives for the rounded corners*
1,1,$1+$1,$2,$3*
1,1,$1+$1,$4,$5*
1,1,$1+$1,$6,$7*
1,1,$1+$1,$8,$9*
0 Add four rect primitives between the rounded corners*
20,1,$1+$1,$2,$3,$4,$5,0*
20,1,$1+$1,$4,$5,$6,$7,0*
20,1,$1+$1,$6,$7,$8,$9,0*
20,1,$1+$1,$8,$9,$2,$3,0*%
G04 Aperture macros list end*
%ADD10C,0.100000*%
%ADD11R,1.524000X0.660400*%
%ADD12R,6.426200X5.562600*%
%ADD13C,3.200000*%
%ADD14RoundRect,0.250000X-0.412500X-0.650000X0.412500X-0.650000X0.412500X0.650000X-0.412500X0.650000X0*%
%ADD15C,1.700000*%
%ADD16RoundRect,0.250000X-0.537500X-1.450000X0.537500X-1.450000X0.537500X1.450000X-0.537500X1.450000X0*%
%ADD17R,2.000000X2.000000*%
%ADD18C,1.904000*%
%ADD19RoundRect,0.250001X-1.044999X0.872499X-1.044999X-0.872499X1.044999X-0.872499X1.044999X0.872499X0*%
%ADD20RoundRect,0.250001X0.872499X1.044999X-0.872499X1.044999X-0.872499X-1.044999X0.872499X-1.044999X0*%
%ADD21C,3.180000*%
%ADD22R,1.700000X1.700000*%
%ADD23O,1.560000X1.050000*%
%ADD24O,1.100000X1.640000*%
%ADD25RoundRect,0.250000X-0.650000X0.412500X-0.650000X-0.412500X0.650000X-0.412500X0.650000X0.412500X0*%
%ADD26RoundRect,0.250000X0.650000X-0.412500X0.650000X0.412500X-0.650000X0.412500X-0.650000X-0.412500X0*%
%ADD27RoundRect,0.250001X-0.944999X0.872499X-0.944999X-0.872499X0.944999X-0.872499X0.944999X0.872499X0*%
%ADD28C,1.764000*%
%ADD29C,4.420000*%
%ADD30RoundRect,0.250001X-0.872499X-0.944999X0.872499X-0.944999X0.872499X0.944999X-0.872499X0.944999X0*%
%ADD31O,2.000000X2.000000*%
%ADD32C,2.200000*%
%ADD33RoundRect,0.102000X0.850000X-0.850000X0.850000X0.850000X-0.850000X0.850000X-0.850000X-0.850000X0*%
G04 APERTURE END LIST*
D10*
%TO.C,G1*%
X89920000Y-108899300D02*
X89080000Y-108899300D01*
%TD*%
D11*
%TO.C,N1*%
X181000000Y-139270000D03*
X181000000Y-138000000D03*
X181000000Y-136730000D03*
X181000000Y-135460000D03*
X181000000Y-134190000D03*
D12*
X173392700Y-136730000D03*
%TD*%
D13*
%TO.C,Agujero*%
X190964214Y-153114214D03*
%TD*%
D14*
%TO.C,C1*%
X181025000Y-141875000D03*
X184150000Y-141875000D03*
%TD*%
D15*
%TO.C,TP_GND*%
X135780000Y-80510000D03*
%TD*%
D16*
%TO.C,C3*%
X183962500Y-135500000D03*
X188237500Y-135500000D03*
%TD*%
D17*
%TO.C,TP_3V3*%
X201840000Y-144510000D03*
%TD*%
D18*
%TO.C,ESP_m2*%
X214800000Y-62920000D03*
X214800000Y-60380000D03*
X214800000Y-57840000D03*
X214800000Y-55300000D03*
X214800000Y-50220000D03*
X214800000Y-52760000D03*
X199560000Y-45140000D03*
X214800000Y-45140000D03*
X199560000Y-47680000D03*
X199560000Y-50220000D03*
X199560000Y-52760000D03*
X199560000Y-55300000D03*
X199560000Y-57840000D03*
X199560000Y-60380000D03*
X199560000Y-62920000D03*
X214800000Y-47680000D03*
%TD*%
D14*
%TO.C,C13*%
X89737500Y-60700000D03*
X92862500Y-60700000D03*
%TD*%
D19*
%TO.C,C21*%
X104090000Y-102630000D03*
X104090000Y-109045000D03*
%TD*%
D20*
%TO.C,C15*%
X89732500Y-69075000D03*
X83317500Y-69075000D03*
%TD*%
D21*
%TO.C,A1*%
X59707480Y-53882797D03*
D22*
X92247480Y-57692797D03*
D15*
X89707480Y-57692797D03*
X92247480Y-55152797D03*
X89707480Y-55152797D03*
X92247480Y-52612797D03*
X89707480Y-52612797D03*
X92247480Y-50072797D03*
X89707480Y-50072797D03*
%TD*%
D23*
%TO.C,USB1*%
X181000000Y-148350000D03*
X184600000Y-148350000D03*
D24*
X187125000Y-152430000D03*
X178475000Y-152430000D03*
%TD*%
D15*
%TO.C,TP_GND*%
X173530000Y-110990000D03*
%TD*%
D19*
%TO.C,C6*%
X209470000Y-147450000D03*
X209470000Y-153865000D03*
%TD*%
D15*
%TO.C,TP_GND*%
X68120000Y-70900000D03*
%TD*%
D25*
%TO.C,C10*%
X149600000Y-150237500D03*
X149600000Y-153362500D03*
%TD*%
D17*
%TO.C,TP_GND*%
X167200000Y-151560000D03*
%TD*%
D26*
%TO.C,C4*%
X218480000Y-149652500D03*
X218480000Y-146527500D03*
%TD*%
D27*
%TO.C,C20*%
X98250000Y-102742500D03*
X98250000Y-107857500D03*
%TD*%
D15*
%TO.C,TP_GPSRX*%
X74640000Y-77890000D03*
%TD*%
D25*
%TO.C,C19*%
X93820000Y-102507500D03*
X93820000Y-105632500D03*
%TD*%
D19*
%TO.C,C8*%
X214740000Y-79565000D03*
X214740000Y-85980000D03*
%TD*%
D15*
%TO.C,TP_SDA*%
X127330000Y-76840000D03*
%TD*%
D28*
%TO.C,G1*%
X89920000Y-102494100D03*
X89920000Y-99954100D03*
X89920000Y-97414100D03*
X89920000Y-94874100D03*
D29*
X58480000Y-108699300D03*
X88980000Y-108699300D03*
X58480000Y-88359300D03*
X88980000Y-88359300D03*
%TD*%
D30*
%TO.C,C14*%
X89842500Y-64500000D03*
X94957500Y-64500000D03*
%TD*%
D15*
%TO.C,TP_SCL*%
X116800000Y-76840000D03*
%TD*%
%TO.C,TP_GND*%
X171970000Y-74760000D03*
%TD*%
D25*
%TO.C,C2*%
X180950000Y-129117500D03*
X180950000Y-132242500D03*
%TD*%
D13*
%TO.C,Agujero*%
X190964214Y-45285787D03*
%TD*%
D17*
%TO.C,TP_3V3*%
X176510000Y-124250000D03*
%TD*%
D19*
%TO.C,C5*%
X214740000Y-148577500D03*
X214740000Y-154992500D03*
%TD*%
D17*
%TO.C,TP_3V3*%
X201730000Y-74630000D03*
%TD*%
D18*
%TO.C,ESP_m1*%
X214800000Y-131900000D03*
X214800000Y-129360000D03*
X214800000Y-126820000D03*
X214800000Y-124280000D03*
X214800000Y-119200000D03*
X214800000Y-121740000D03*
X199560000Y-114120000D03*
X214800000Y-114120000D03*
X199560000Y-116660000D03*
X199560000Y-119200000D03*
X199560000Y-121740000D03*
X199560000Y-124280000D03*
X199560000Y-126820000D03*
X199560000Y-129360000D03*
X199560000Y-131900000D03*
X214800000Y-116660000D03*
%TD*%
D21*
%TO.C,A2*%
X225280000Y-118840000D03*
D22*
X221470000Y-151380000D03*
D15*
X221470000Y-148840000D03*
X224010000Y-151380000D03*
X224010000Y-148840000D03*
X226550000Y-151380000D03*
X226550000Y-148840000D03*
X229090000Y-151380000D03*
X229090000Y-148840000D03*
%TD*%
%TO.C,TP_RADRX*%
X166410000Y-70270000D03*
%TD*%
D17*
%TO.C,TP_GND*%
X201730000Y-80940000D03*
%TD*%
D15*
%TO.C,TP_GPSTX*%
X62100000Y-77890000D03*
%TD*%
D19*
%TO.C,C9*%
X209470000Y-78460000D03*
X209470000Y-84875000D03*
%TD*%
D13*
%TO.C,Agujero*%
X53135787Y-153114214D03*
%TD*%
D17*
%TO.C,TP_5V*%
X166570000Y-143260000D03*
%TD*%
D13*
%TO.C,Agujero*%
X53135787Y-45285786D03*
%TD*%
%TO.C,I1*%
X113745000Y-52680000D03*
X134195000Y-52680000D03*
D22*
X112675000Y-64180000D03*
D15*
X115215000Y-64180000D03*
X117755000Y-64180000D03*
X120295000Y-64180000D03*
X122835000Y-64180000D03*
X125375000Y-64180000D03*
X127915000Y-64180000D03*
X130455000Y-64180000D03*
X132995000Y-64180000D03*
X135535000Y-64180000D03*
%TD*%
D17*
%TO.C,TP_GND*%
X201840000Y-150650000D03*
%TD*%
D26*
%TO.C,C7*%
X218480000Y-80662500D03*
X218480000Y-77537500D03*
%TD*%
D15*
%TO.C,TP_RADTX*%
X167040000Y-80790000D03*
%TD*%
D13*
%TO.C,B1*%
X186785000Y-51844000D03*
X186785000Y-62844000D03*
D15*
X179285000Y-50994000D03*
X179285000Y-53534000D03*
X179285000Y-56074000D03*
X179285000Y-58614000D03*
X179285000Y-61154000D03*
X179285000Y-63694000D03*
%TD*%
D21*
%TO.C,A3*%
X225280000Y-49850000D03*
D22*
X221470000Y-82390000D03*
D15*
X221470000Y-79850000D03*
X224010000Y-82390000D03*
X224010000Y-79850000D03*
X226550000Y-82390000D03*
X226550000Y-79850000D03*
X229090000Y-82390000D03*
X229090000Y-79850000D03*
%TD*%
D27*
%TO.C,C11*%
X153250000Y-147650000D03*
X153250000Y-152765000D03*
%TD*%
D19*
%TO.C,C12*%
X157850000Y-147592500D03*
X157850000Y-154007500D03*
%TD*%
D17*
%TO.C,ESP1*%
X146240000Y-99440000D03*
D31*
X146240000Y-101980000D03*
X146240000Y-104520000D03*
X146240000Y-107060000D03*
X146240000Y-109600000D03*
X146240000Y-112140000D03*
X146240000Y-114680000D03*
X146240000Y-117220000D03*
X146240000Y-119760000D03*
X146240000Y-122300000D03*
X146240000Y-124840000D03*
X146240000Y-127380000D03*
X146240000Y-129920000D03*
D17*
X146240000Y-132460000D03*
X146240000Y-135000000D03*
D31*
X146240000Y-137540000D03*
X146240000Y-140080000D03*
X146240000Y-142620000D03*
X146240000Y-145160000D03*
X146240000Y-147700280D03*
X146240000Y-150240280D03*
X146240000Y-152780280D03*
X120840000Y-152780000D03*
X120840000Y-150240000D03*
X120840000Y-147700000D03*
X120840000Y-145160000D03*
X120840000Y-142620000D03*
X120840000Y-140080000D03*
X120840000Y-137540000D03*
X120840000Y-135000000D03*
X120840000Y-132460000D03*
X120840000Y-129920000D03*
X120840000Y-127380000D03*
X120840000Y-124840000D03*
X120840000Y-122300000D03*
X120840000Y-119760000D03*
X120840000Y-117220000D03*
X120840000Y-114680000D03*
X120840000Y-112140000D03*
X120840000Y-109600000D03*
X120840000Y-107060000D03*
X120840000Y-104520000D03*
X120840000Y-101980000D03*
D17*
X120840000Y-99440000D03*
%TD*%
D32*
%TO.C,L1*%
X174230000Y-96885000D03*
X174230000Y-80885000D03*
D22*
X180460000Y-95235000D03*
D15*
X180460000Y-92695000D03*
X180460000Y-90155000D03*
X180460000Y-87615000D03*
X180460000Y-85075000D03*
X180460000Y-82535000D03*
%TD*%
D13*
%TO.C,RAD1*%
X144370000Y-68730000D03*
X144370000Y-54570000D03*
D33*
X155370000Y-66730000D03*
D18*
X155370000Y-64190000D03*
X155370000Y-61650000D03*
X155370000Y-59110000D03*
X155370000Y-56570000D03*
%TD*%
M02*
